M48
;Layer_Color=9474304
;FILE_FORMAT=2:5
INCH,LZ
;TYPE=PLATED
T1F00S00C0.01000
T2F00S00C0.03937
;TYPE=NON_PLATED
T3F00S00C0.06614
%
T01
X0128Y01475
X0176Y0144
X0224
X024
X0256
X0263Y01475
X0285Y01555
X0248Y0128
X0232
Y016
X0248
X0264
X0232Y0192
X0216
X02
X0184
X0168
X0176Y0208
X0192
X0208
X0224
X024
X0248Y0224
X0232
X0216
X02
X0184
X0168
X0176Y024
X0192
X0208
X0224
X024
X0248Y0256
X0232
X0216
X02
X0184
X0168
X0176Y0272
X016
X0168Y0288
X01695Y03015
Y0309
X016Y0304
X0192
X0208
Y0272
X0224
X024
X0248Y0288
X0232
X02405Y0303
Y0308
X0272Y0304
X028Y0288
X0272Y0272
X028Y0256
X0272Y024
X0285Y02355
X0285118Y0231941
X0208Y0176
X0192
X0176
X0184Y016
X02
X0168
X01575Y01565
X016Y0208
Y024
X01905Y02815
X0196
X0152Y0288
X0136
X0144Y0304
Y0272
X0152Y0256
X0136
X0144Y024
X0152Y0224
X0143Y0206
X01455Y0197
X01205
X01225Y0206
X014Y017
X0141Y0165
X0136Y01655
Y032
X0152Y0352
X0144Y0368
X0152Y0384
X01365Y0389
X0128384
X01285Y04145
X0133Y0423
X0137Y04235
X0127Y04295
X0128Y04415
X01265Y0445
X01355Y04385
X01425Y04375
X01424Y04345
X01435Y04415
X0144Y0445
X01475Y045
X01425Y04595
X0134
X01505Y0428
X01555Y04235
X0156Y0433
X0154Y04115
X0151316Y0413573
X0143Y0407
X01625Y0412
X01645Y0415
X0166Y04195
X01605Y04285
X0174336Y0428836
X0181Y04295
X0180206Y0426206
X01875Y0429
Y0423
X0182Y04135
X01925Y04125
X0196124Y0404507
X0209Y0403
X02175
X02115Y04125
X02235Y0423
X02245Y04285
X0224Y04375
X022Y0444
X0215Y0441
X0213Y04375
X02095Y04365
X0201Y04345
X02005Y0427
X0197Y0429
X0195Y0432
X01955Y04415
X0198Y0447
X0196Y04525
X01915Y045
X01805Y0447
X017625Y044875
X01725Y0447
Y04405
X0176
X01805
X0183Y0436
X0169Y04535
X01705Y04565
X0165Y045
X01695Y0405
X0168Y0384
X01575Y03935
X016Y0368
X0176
X0192
X0208
X0224
X024
X0232Y0384
X0216
X02
X01895Y03515
X0168Y0352
Y0331
X016Y0336
X0169Y03165
X02Y032
X0216
X0240022Y0316431
X0240004Y0323996
X024Y03315
X0232Y0352
X02195Y03525
X028Y0352
X0272Y0368
X028Y0384
X02555Y0394
X0248Y04105
X02525Y04155
X02315Y04175
X02335Y04625
X0284Y04615
X0272Y0336
X028Y032
Y048
X0264
X0248
X02335Y04745
Y0487
X0184Y048
X01575Y0479
X0161Y0470988
X01415Y0471
X0133Y0479
T02
X0193439Y0122165
X0201313
X0209187
X0217061
T03
X0259Y0469374
X0279
M30
