%TF.GenerationSoftware,Altium Limited,Altium Designer,20.2.8 (258)*%
G04 Layer_Color=16711935*
%FSLAX26Y26*%
%MOIN*%
%TF.SameCoordinates,C5A62E15-709C-4439-AAC4-A247E21399B6*%
%TF.FilePolarity,Positive*%
%TF.FileFunction,Other,Mechanical_1*%
%TF.Part,Single*%
G01*
G75*
%TA.AperFunction,NonConductor*%
%ADD96C,0.002000*%
G36*
X1340604Y1916614D02*
X1325822D01*
X1325785D01*
X1325675D01*
X1325508D01*
X1325286Y1916596D01*
X1325008D01*
X1324694Y1916578D01*
X1324342Y1916559D01*
X1323954Y1916541D01*
X1323565Y1916504D01*
X1323159Y1916466D01*
X1322344Y1916355D01*
X1321956Y1916282D01*
X1321568Y1916207D01*
X1321216Y1916115D01*
X1320901Y1916004D01*
X1320883D01*
X1320828Y1915967D01*
X1320754Y1915930D01*
X1320642Y1915874D01*
X1320513Y1915819D01*
X1320365Y1915726D01*
X1320014Y1915505D01*
X1319625Y1915208D01*
X1319421Y1915042D01*
X1319218Y1914839D01*
X1319014Y1914635D01*
X1318830Y1914395D01*
X1318645Y1914154D01*
X1318478Y1913877D01*
Y1913858D01*
X1318441Y1913803D01*
X1318404Y1913728D01*
X1318349Y1913599D01*
X1318274Y1913451D01*
X1318200Y1913284D01*
X1318127Y1913081D01*
X1318053Y1912841D01*
X1317978Y1912582D01*
X1317905Y1912304D01*
X1317831Y1912008D01*
X1317756Y1911675D01*
X1317701Y1911323D01*
X1317664Y1910954D01*
X1317646Y1910583D01*
X1317627Y1910177D01*
Y1910010D01*
X1317646Y1909825D01*
Y1909566D01*
X1317682Y1909252D01*
X1317719Y1908918D01*
X1317775Y1908530D01*
X1317831Y1908104D01*
X1317923Y1907679D01*
X1318034Y1907235D01*
X1318182Y1906791D01*
X1318330Y1906347D01*
X1318534Y1905921D01*
X1318755Y1905533D01*
X1319014Y1905163D01*
X1319311Y1904849D01*
X1319329Y1904830D01*
X1319384Y1904774D01*
X1319495Y1904700D01*
X1319643Y1904608D01*
X1319847Y1904478D01*
X1320106Y1904349D01*
X1320402Y1904201D01*
X1320772Y1904053D01*
X1321179Y1903905D01*
X1321641Y1903757D01*
X1322178Y1903628D01*
X1322770Y1903498D01*
X1323436Y1903406D01*
X1324158Y1903332D01*
X1324953Y1903276D01*
X1325822Y1903257D01*
X1340604D01*
Y1899872D01*
X1325804D01*
X1325785D01*
X1325767D01*
X1325711D01*
X1325638D01*
X1325545D01*
X1325434D01*
X1325175Y1899890D01*
X1324842D01*
X1324472Y1899909D01*
X1324046Y1899946D01*
X1323602Y1899983D01*
X1323121Y1900039D01*
X1322622Y1900094D01*
X1321604Y1900242D01*
X1321086Y1900353D01*
X1320605Y1900464D01*
X1320124Y1900612D01*
X1319680Y1900760D01*
X1319662Y1900778D01*
X1319588Y1900797D01*
X1319458Y1900852D01*
X1319311Y1900927D01*
X1319107Y1901037D01*
X1318885Y1901149D01*
X1318645Y1901296D01*
X1318367Y1901482D01*
X1318071Y1901685D01*
X1317775Y1901907D01*
X1317479Y1902166D01*
X1317165Y1902462D01*
X1316850Y1902776D01*
X1316554Y1903110D01*
X1316258Y1903498D01*
X1315980Y1903905D01*
X1315962Y1903924D01*
X1315925Y1904016D01*
X1315851Y1904146D01*
X1315758Y1904312D01*
X1315648Y1904553D01*
X1315536Y1904812D01*
X1315407Y1905145D01*
X1315277Y1905496D01*
X1315148Y1905921D01*
X1315018Y1906366D01*
X1314908Y1906847D01*
X1314796Y1907383D01*
X1314704Y1907957D01*
X1314630Y1908567D01*
X1314593Y1909196D01*
X1314574Y1909880D01*
Y1910232D01*
X1314593Y1910473D01*
X1314611Y1910787D01*
X1314649Y1911139D01*
X1314686Y1911545D01*
X1314723Y1911971D01*
X1314796Y1912434D01*
X1314870Y1912915D01*
X1314982Y1913396D01*
X1315092Y1913895D01*
X1315241Y1914376D01*
X1315407Y1914876D01*
X1315592Y1915338D01*
X1315814Y1915782D01*
X1315832Y1915801D01*
X1315870Y1915874D01*
X1315944Y1916004D01*
X1316036Y1916152D01*
X1316166Y1916337D01*
X1316332Y1916559D01*
X1316517Y1916781D01*
X1316720Y1917040D01*
X1316961Y1917299D01*
X1317238Y1917576D01*
X1317516Y1917854D01*
X1317849Y1918113D01*
X1318182Y1918372D01*
X1318571Y1918612D01*
X1318959Y1918834D01*
X1319384Y1919038D01*
X1319421Y1919056D01*
X1319495Y1919075D01*
X1319625Y1919130D01*
X1319810Y1919186D01*
X1320051Y1919260D01*
X1320347Y1919334D01*
X1320679Y1919427D01*
X1321068Y1919519D01*
X1321512Y1919611D01*
X1321993Y1919704D01*
X1322511Y1919778D01*
X1323084Y1919852D01*
X1323695Y1919908D01*
X1324361Y1919963D01*
X1325064Y1919982D01*
X1325804Y1920000D01*
X1340604D01*
Y1916614D01*
D02*
G37*
G36*
Y1884850D02*
Y1882278D01*
X1324009D01*
Y1878819D01*
X1321123D01*
Y1882278D01*
X1315000D01*
Y1885424D01*
X1321123D01*
Y1896524D01*
X1324009D01*
X1340604Y1884850D01*
D02*
G37*
%LPC*%
G36*
X1324009Y1893453D02*
Y1885424D01*
X1335553D01*
X1324009Y1893453D01*
D02*
G37*
%LPD*%
D96*
X1180000Y1180000D02*
G03*
X1250000Y1110000I70000J0D01*
G01*
X2855000D02*
G03*
X2925000Y1180000I0J70000D01*
G01*
Y4925000D02*
G03*
X2855000Y4995000I-70000J0D01*
G01*
X1250000D02*
G03*
X1180000Y4925000I0J-70000D01*
G01*
X1250000Y1110000D02*
X2855000D01*
X2925000Y1180000D02*
Y4925000D01*
X1250000Y4995000D02*
X2855000D01*
X1180000Y1180000D02*
Y4925000D01*
%TF.MD5,e9e020f7e82a9afbc5b646a74f7621cf*%
M02*
