%TF.GenerationSoftware,Altium Limited,Altium Designer,20.2.8 (258)*%
G04 Layer_Color=2752767*
%FSLAX26Y26*%
%MOIN*%
%TF.SameCoordinates,C5A62E15-709C-4439-AAC4-A247E21399B6*%
%TF.FilePolarity,Positive*%
%TF.FileFunction,Drawing*%
%TF.Part,Single*%
G01*
G75*
%TA.AperFunction,NonConductor*%
%ADD103C,0.005000*%
%ADD104C,0.006667*%
D103*
X2071870Y1201653D02*
Y1241653D01*
X2111870D01*
Y1201653D01*
X2071870D01*
X1993130D02*
Y1241653D01*
X2033130D01*
Y1201653D01*
X1993130D01*
X1914390D02*
Y1241653D01*
X1954390D01*
Y1201653D01*
X1914390D01*
X2150610D02*
Y1241653D01*
X2190610D01*
Y1201653D01*
X2150610D01*
X1340000Y4575000D02*
X1320000Y4615000D01*
X1360000D01*
X1340000Y4575000D01*
X1690000Y4515000D02*
X1670000Y4555000D01*
X1710000D01*
X1690000Y4515000D01*
X1915000Y4480000D02*
X1895000Y4520000D01*
X1935000D01*
X1915000Y4480000D01*
X1960000Y4505000D02*
X1940000Y4545000D01*
X1980000D01*
X1960000Y4505000D01*
X2005000Y4250000D02*
X1985000Y4290000D01*
X2025000D01*
X2005000Y4250000D01*
X1970000Y4270000D02*
X1950000Y4310000D01*
X1990000D01*
X1970000Y4270000D01*
X1424000Y4325000D02*
X1404000Y4365000D01*
X1444000D01*
X1424000Y4325000D01*
X1425000Y4355000D02*
X1405000Y4395000D01*
X1445000D01*
X1425000Y4355000D01*
X1830000Y4340000D02*
X1810000Y4380000D01*
X1850000D01*
X1830000Y4340000D01*
X1961243Y4025072D02*
X1941243Y4065072D01*
X1981243D01*
X1961243Y4025072D01*
X1270000Y4275000D02*
X1250000Y4315000D01*
X1290000D01*
X1270000Y4275000D01*
X2800000Y4780000D02*
X2780000Y4820000D01*
X2820000D01*
X2800000Y4780000D01*
Y3820000D02*
X2780000Y3860000D01*
X2820000D01*
X2800000Y3820000D01*
X2720000Y3660000D02*
X2700000Y3700000D01*
X2740000D01*
X2720000Y3660000D01*
X2800000Y3500000D02*
X2780000Y3540000D01*
X2820000D01*
X2800000Y3500000D01*
X2720000Y3340000D02*
X2700000Y3380000D01*
X2740000D01*
X2720000Y3340000D01*
X2800000Y3180000D02*
X2780000Y3220000D01*
X2820000D01*
X2800000Y3180000D01*
X2720000Y3020000D02*
X2700000Y3060000D01*
X2740000D01*
X2720000Y3020000D01*
X2800000Y2860000D02*
X2780000Y2900000D01*
X2820000D01*
X2800000Y2860000D01*
X2720000Y2700000D02*
X2700000Y2740000D01*
X2740000D01*
X2720000Y2700000D01*
X2800000Y2540000D02*
X2780000Y2580000D01*
X2820000D01*
X2800000Y2540000D01*
X2720000Y2380000D02*
X2700000Y2420000D01*
X2740000D01*
X2720000Y2380000D01*
X2640000Y4780000D02*
X2620000Y4820000D01*
X2660000D01*
X2640000Y4780000D01*
Y1580000D02*
X2620000Y1620000D01*
X2660000D01*
X2640000Y1580000D01*
X2560000Y1420000D02*
X2540000Y1460000D01*
X2580000D01*
X2560000Y1420000D01*
X2480000Y4780000D02*
X2460000Y4820000D01*
X2500000D01*
X2480000Y4780000D01*
X2400000Y3660000D02*
X2380000Y3700000D01*
X2420000D01*
X2400000Y3660000D01*
X2480000Y2860000D02*
X2460000Y2900000D01*
X2500000D01*
X2480000Y2860000D01*
X2400000Y2700000D02*
X2380000Y2740000D01*
X2420000D01*
X2400000Y2700000D01*
X2480000Y2540000D02*
X2460000Y2580000D01*
X2500000D01*
X2480000Y2540000D01*
X2400000Y2380000D02*
X2380000Y2420000D01*
X2420000D01*
X2400000Y2380000D01*
X2480000Y2220000D02*
X2460000Y2260000D01*
X2500000D01*
X2480000Y2220000D01*
X2400000Y2060000D02*
X2380000Y2100000D01*
X2420000D01*
X2400000Y2060000D01*
X2480000Y1580000D02*
X2460000Y1620000D01*
X2500000D01*
X2480000Y1580000D01*
X2400000Y1420000D02*
X2380000Y1460000D01*
X2420000D01*
X2400000Y1420000D01*
X2480000Y1260000D02*
X2460000Y1300000D01*
X2500000D01*
X2480000Y1260000D01*
X2320000Y3820000D02*
X2300000Y3860000D01*
X2340000D01*
X2320000Y3820000D01*
X2240000Y3660000D02*
X2220000Y3700000D01*
X2260000D01*
X2240000Y3660000D01*
X2320000Y3500000D02*
X2300000Y3540000D01*
X2340000D01*
X2320000Y3500000D01*
Y2860000D02*
X2300000Y2900000D01*
X2340000D01*
X2320000Y2860000D01*
X2240000Y2700000D02*
X2220000Y2740000D01*
X2260000D01*
X2240000Y2700000D01*
X2320000Y2540000D02*
X2300000Y2580000D01*
X2340000D01*
X2320000Y2540000D01*
X2240000Y2380000D02*
X2220000Y2420000D01*
X2260000D01*
X2240000Y2380000D01*
X2320000Y2220000D02*
X2300000Y2260000D01*
X2340000D01*
X2320000Y2220000D01*
X2240000Y2060000D02*
X2220000Y2100000D01*
X2260000D01*
X2240000Y2060000D01*
X2320000Y1900000D02*
X2300000Y1940000D01*
X2340000D01*
X2320000Y1900000D01*
Y1580000D02*
X2300000Y1620000D01*
X2340000D01*
X2320000Y1580000D01*
X2240000Y1420000D02*
X2220000Y1460000D01*
X2260000D01*
X2240000Y1420000D01*
X2320000Y1260000D02*
X2300000Y1300000D01*
X2340000D01*
X2320000Y1260000D01*
X2160000Y3820000D02*
X2140000Y3860000D01*
X2180000D01*
X2160000Y3820000D01*
X2080000Y3660000D02*
X2060000Y3700000D01*
X2100000D01*
X2080000Y3660000D01*
X2160000Y3180000D02*
X2140000Y3220000D01*
X2180000D01*
X2160000Y3180000D01*
X2080000Y3020000D02*
X2060000Y3060000D01*
X2100000D01*
X2080000Y3020000D01*
Y2700000D02*
X2060000Y2740000D01*
X2100000D01*
X2080000Y2700000D01*
X2160000Y2540000D02*
X2140000Y2580000D01*
X2180000D01*
X2160000Y2540000D01*
X2080000Y2380000D02*
X2060000Y2420000D01*
X2100000D01*
X2080000Y2380000D01*
X2160000Y2220000D02*
X2140000Y2260000D01*
X2180000D01*
X2160000Y2220000D01*
X2080000Y2060000D02*
X2060000Y2100000D01*
X2100000D01*
X2080000Y2060000D01*
X2160000Y1900000D02*
X2140000Y1940000D01*
X2180000D01*
X2160000Y1900000D01*
X2080000Y1740000D02*
X2060000Y1780000D01*
X2100000D01*
X2080000Y1740000D01*
X2000000Y3820000D02*
X1980000Y3860000D01*
X2020000D01*
X2000000Y3820000D01*
X1920000Y3660000D02*
X1900000Y3700000D01*
X1940000D01*
X1920000Y3660000D01*
X2000000Y3180000D02*
X1980000Y3220000D01*
X2020000D01*
X2000000Y3180000D01*
X1920000Y3020000D02*
X1900000Y3060000D01*
X1940000D01*
X1920000Y3020000D01*
X2000000Y2540000D02*
X1980000Y2580000D01*
X2020000D01*
X2000000Y2540000D01*
X1920000Y2380000D02*
X1900000Y2420000D01*
X1940000D01*
X1920000Y2380000D01*
X2000000Y2220000D02*
X1980000Y2260000D01*
X2020000D01*
X2000000Y2220000D01*
X1920000Y2060000D02*
X1900000Y2100000D01*
X1940000D01*
X1920000Y2060000D01*
X2000000Y1900000D02*
X1980000Y1940000D01*
X2020000D01*
X2000000Y1900000D01*
X1920000Y1740000D02*
X1900000Y1780000D01*
X1940000D01*
X1920000Y1740000D01*
X2000000Y1580000D02*
X1980000Y1620000D01*
X2020000D01*
X2000000Y1580000D01*
X1840000Y4780000D02*
X1820000Y4820000D01*
X1860000D01*
X1840000Y4780000D01*
X1760000Y3660000D02*
X1740000Y3700000D01*
X1780000D01*
X1760000Y3660000D01*
Y2700000D02*
X1740000Y2740000D01*
X1780000D01*
X1760000Y2700000D01*
X1840000Y2540000D02*
X1820000Y2580000D01*
X1860000D01*
X1840000Y2540000D01*
X1760000Y2380000D02*
X1740000Y2420000D01*
X1780000D01*
X1760000Y2380000D01*
X1840000Y2220000D02*
X1820000Y2260000D01*
X1860000D01*
X1840000Y2220000D01*
X1760000Y2060000D02*
X1740000Y2100000D01*
X1780000D01*
X1760000Y2060000D01*
X1840000Y1900000D02*
X1820000Y1940000D01*
X1860000D01*
X1840000Y1900000D01*
X1760000Y1740000D02*
X1740000Y1780000D01*
X1780000D01*
X1760000Y1740000D01*
X1840000Y1580000D02*
X1820000Y1620000D01*
X1860000D01*
X1840000Y1580000D01*
X1760000Y1420000D02*
X1740000Y1460000D01*
X1780000D01*
X1760000Y1420000D01*
X1680000Y3820000D02*
X1660000Y3860000D01*
X1700000D01*
X1680000Y3820000D01*
X1600000Y3660000D02*
X1580000Y3700000D01*
X1620000D01*
X1600000Y3660000D01*
X1680000Y3500000D02*
X1660000Y3540000D01*
X1700000D01*
X1680000Y3500000D01*
X1600000Y3340000D02*
X1580000Y3380000D01*
X1620000D01*
X1600000Y3340000D01*
Y3020000D02*
X1580000Y3060000D01*
X1620000D01*
X1600000Y3020000D01*
X1680000Y2860000D02*
X1660000Y2900000D01*
X1700000D01*
X1680000Y2860000D01*
X1600000Y2700000D02*
X1580000Y2740000D01*
X1620000D01*
X1600000Y2700000D01*
X1680000Y2540000D02*
X1660000Y2580000D01*
X1700000D01*
X1680000Y2540000D01*
X1600000Y2380000D02*
X1580000Y2420000D01*
X1620000D01*
X1600000Y2380000D01*
X1680000Y2220000D02*
X1660000Y2260000D01*
X1700000D01*
X1680000Y2220000D01*
X1600000Y2060000D02*
X1580000Y2100000D01*
X1620000D01*
X1600000Y2060000D01*
X1680000Y1900000D02*
X1660000Y1940000D01*
X1700000D01*
X1680000Y1900000D01*
Y1580000D02*
X1660000Y1620000D01*
X1700000D01*
X1680000Y1580000D01*
X1520000Y3820000D02*
X1500000Y3860000D01*
X1540000D01*
X1520000Y3820000D01*
X1440000Y3660000D02*
X1420000Y3700000D01*
X1460000D01*
X1440000Y3660000D01*
X1520000Y3500000D02*
X1500000Y3540000D01*
X1540000D01*
X1520000Y3500000D01*
X1440000Y3020000D02*
X1420000Y3060000D01*
X1460000D01*
X1440000Y3020000D01*
X1520000Y2860000D02*
X1500000Y2900000D01*
X1540000D01*
X1520000Y2860000D01*
X1440000Y2700000D02*
X1420000Y2740000D01*
X1460000D01*
X1440000Y2700000D01*
X1520000Y2540000D02*
X1500000Y2580000D01*
X1540000D01*
X1520000Y2540000D01*
X1440000Y2380000D02*
X1420000Y2420000D01*
X1460000D01*
X1440000Y2380000D01*
X1520000Y2220000D02*
X1500000Y2260000D01*
X1540000D01*
X1520000Y2220000D01*
X1360000Y3180000D02*
X1340000Y3220000D01*
X1380000D01*
X1360000Y3180000D01*
Y2860000D02*
X1340000Y2900000D01*
X1380000D01*
X1360000Y2860000D01*
Y2540000D02*
X1340000Y2580000D01*
X1380000D01*
X1360000Y2540000D01*
X2850000Y2335000D02*
X2830000Y2375000D01*
X2870000D01*
X2850000Y2335000D01*
X2851181Y2299410D02*
X2831181Y2339410D01*
X2871181D01*
X2851181Y2299410D01*
X1705000Y4545000D02*
X1685000Y4585000D01*
X1725000D01*
X1705000Y4545000D01*
X1695000Y4030000D02*
X1675000Y4070000D01*
X1715000D01*
X1695000Y4030000D01*
X1625000Y4100000D02*
X1605000Y4140000D01*
X1645000D01*
X1625000Y4100000D01*
X1645000Y4130000D02*
X1625000Y4170000D01*
X1665000D01*
X1645000Y4130000D01*
X1762500Y4467500D02*
X1742500Y4507500D01*
X1782500D01*
X1762500Y4467500D01*
X1875000Y4210000D02*
X1855000Y4250000D01*
X1895000D01*
X1875000Y4210000D01*
Y4270000D02*
X1855000Y4310000D01*
X1895000D01*
X1875000Y4270000D01*
X1810000Y4275000D02*
X1790000Y4315000D01*
X1830000D01*
X1810000Y4275000D01*
X1802061Y4242060D02*
X1782061Y4282060D01*
X1822061D01*
X1802061Y4242060D01*
X1820000Y4115000D02*
X1800000Y4155000D01*
X1840000D01*
X1820000Y4115000D01*
X2850000Y1535000D02*
X2830000Y1575000D01*
X2870000D01*
X2850000Y1535000D01*
X1743358Y4268358D02*
X1723358Y4308358D01*
X1763358D01*
X1743358Y4268358D01*
X1575000Y1545000D02*
X1555000Y1585000D01*
X1595000D01*
X1575000Y1545000D01*
X1280000Y1455000D02*
X1260000Y1495000D01*
X1300000D01*
X1280000Y1455000D01*
X2630000D02*
X2610000Y1495000D01*
X2650000D01*
X2630000Y1455000D01*
X1660000Y4175000D02*
X1640000Y4215000D01*
X1680000D01*
X1660000Y4175000D01*
X1285000Y4125000D02*
X1265000Y4165000D01*
X1305000D01*
X1285000Y4125000D01*
X1540000Y4095000D02*
X1520000Y4135000D01*
X1560000D01*
X1540000Y4095000D01*
X1513162Y4115726D02*
X1493162Y4155726D01*
X1533162D01*
X1513162Y4115726D01*
X1410000Y1630000D02*
X1390000Y1670000D01*
X1430000D01*
X1410000Y1630000D01*
X1360000Y1635000D02*
X1340000Y1675000D01*
X1380000D01*
X1360000Y1635000D01*
X1330000Y4210000D02*
X1310000Y4250000D01*
X1350000D01*
X1330000Y4210000D01*
X1370000Y4215000D02*
X1350000Y4255000D01*
X1390000D01*
X1370000Y4215000D01*
X1455000Y1950000D02*
X1435000Y1990000D01*
X1475000D01*
X1455000Y1950000D01*
X1205000D02*
X1185000Y1990000D01*
X1225000D01*
X1205000Y1950000D01*
X1400000Y1680000D02*
X1380000Y1720000D01*
X1420000D01*
X1400000Y1680000D01*
X1225000Y2040000D02*
X1205000Y2080000D01*
X1245000D01*
X1225000Y2040000D01*
X1430000D02*
X1410000Y2080000D01*
X1450000D01*
X1430000Y2040000D01*
X2555000Y3920000D02*
X2535000Y3960000D01*
X2575000D01*
X2555000Y3920000D01*
X2480000Y4085000D02*
X2460000Y4125000D01*
X2500000D01*
X2480000Y4085000D01*
X2400224Y3144307D02*
X2380224Y3184307D01*
X2420224D01*
X2400224Y3144307D01*
X2400040Y3219961D02*
X2380040Y3259961D01*
X2420040D01*
X2400040Y3219961D01*
X1680000Y3290000D02*
X1660000Y3330000D01*
X1700000D01*
X1680000Y3290000D01*
X1895000Y3495000D02*
X1875000Y3535000D01*
X1915000D01*
X1895000Y3495000D01*
X2195000Y3505000D02*
X2175000Y3545000D01*
X2215000D01*
X2195000Y3505000D01*
X2405000Y3060000D02*
X2385000Y3100000D01*
X2425000D01*
X2405000Y3060000D01*
X1283835Y3870000D02*
X1263835Y3910000D01*
X1303835D01*
X1283835Y3870000D01*
X1695000Y3070000D02*
X1675000Y3110000D01*
X1715000D01*
X1695000Y3070000D01*
X1365000Y3870000D02*
X1345000Y3910000D01*
X1385000D01*
X1365000Y3870000D01*
X1690000Y3145000D02*
X1670000Y3185000D01*
X1710000D01*
X1690000Y3145000D01*
X2090000Y4010000D02*
X2070000Y4050000D01*
X2110000D01*
X2090000Y4010000D01*
X2175000D02*
X2155000Y4050000D01*
X2195000D01*
X2175000Y4010000D01*
X2315000Y4155000D02*
X2295000Y4195000D01*
X2335000D01*
X2315000Y4155000D01*
X2525000Y4135000D02*
X2505000Y4175000D01*
X2545000D01*
X2525000Y4135000D01*
X1905000Y2795000D02*
X1885000Y2835000D01*
X1925000D01*
X1905000Y2795000D01*
X1960000D02*
X1940000Y2835000D01*
X1980000D01*
X1960000Y2795000D01*
X2405000Y3010000D02*
X2385000Y3050000D01*
X2425000D01*
X2405000Y3010000D01*
X1695000Y2995000D02*
X1675000Y3035000D01*
X1715000D01*
X1695000Y2995000D01*
X2400000Y3295000D02*
X2380000Y3335000D01*
X2420000D01*
X2400000Y3295000D01*
X1265000Y4430000D02*
X1245000Y4470000D01*
X1285000D01*
X1265000Y4430000D01*
X1280000Y4395000D02*
X1260000Y4435000D01*
X1300000D01*
X1280000Y4395000D01*
X1435000D02*
X1415000Y4435000D01*
X1455000D01*
X1435000Y4395000D01*
X1440000Y4430000D02*
X1420000Y4470000D01*
X1460000D01*
X1440000Y4430000D01*
X2245000Y4265000D02*
X2225000Y4305000D01*
X2265000D01*
X2245000Y4265000D01*
X1955000Y4395000D02*
X1935000Y4435000D01*
X1975000D01*
X1955000Y4395000D01*
X1980000Y4450000D02*
X1960000Y4490000D01*
X2000000D01*
X1980000Y4450000D01*
X2150000Y4390000D02*
X2130000Y4430000D01*
X2170000D01*
X2150000Y4390000D01*
X2200000Y4420000D02*
X2180000Y4460000D01*
X2220000D01*
X2200000Y4420000D01*
X2240000Y4355000D02*
X2220000Y4395000D01*
X2260000D01*
X2240000Y4355000D01*
X2840000Y4595000D02*
X2820000Y4635000D01*
X2860000D01*
X2840000Y4595000D01*
X2235000Y4210000D02*
X2215000Y4250000D01*
X2255000D01*
X2235000Y4210000D01*
X2335000Y4605000D02*
X2315000Y4645000D01*
X2355000D01*
X2335000Y4605000D01*
Y4725000D02*
X2315000Y4765000D01*
X2355000D01*
X2335000Y4725000D01*
Y4850000D02*
X2315000Y4890000D01*
X2355000D01*
X2335000Y4850000D01*
X1805000Y4450000D02*
X1785000Y4490000D01*
X1825000D01*
X1805000Y4450000D01*
Y4385000D02*
X1785000Y4425000D01*
X1825000D01*
X1805000Y4385000D01*
X1760000D02*
X1740000Y4425000D01*
X1780000D01*
X1760000Y4385000D01*
X1725000Y4450000D02*
X1705000Y4490000D01*
X1745000D01*
X1725000Y4450000D01*
Y4385000D02*
X1705000Y4425000D01*
X1745000D01*
X1725000Y4385000D01*
X1950000Y4300000D02*
X1930000Y4340000D01*
X1970000D01*
X1950000Y4300000D01*
X2010000Y4325000D02*
X1990000Y4365000D01*
X2030000D01*
X2010000Y4325000D01*
X2095000Y4345000D02*
X2075000Y4385000D01*
X2115000D01*
X2095000Y4345000D01*
X1355000Y4365000D02*
X1335000Y4405000D01*
X1375000D01*
X1355000Y4365000D01*
X2130000Y4355000D02*
X2110000Y4395000D01*
X2150000D01*
X2130000Y4355000D01*
X1925000Y4105000D02*
X1905000Y4145000D01*
X1945000D01*
X1925000Y4105000D01*
X2115000D02*
X2095000Y4145000D01*
X2135000D01*
X2115000Y4105000D01*
X1475000Y4480000D02*
X1455000Y4520000D01*
X1495000D01*
X1475000Y4480000D01*
X1650000D02*
X1630000Y4520000D01*
X1670000D01*
X1650000Y4480000D01*
X1575000Y3915000D02*
X1555000Y3955000D01*
X1595000D01*
X1575000Y3915000D01*
X1430000Y4050000D02*
X1410000Y4090000D01*
X1450000D01*
X1430000Y4050000D01*
X1555000Y4215000D02*
X1535000Y4255000D01*
X1575000D01*
X1555000Y4215000D01*
X1505000Y4260000D02*
X1485000Y4300000D01*
X1525000D01*
X1505000Y4260000D01*
X1605000Y4265000D02*
X1585000Y4305000D01*
X1625000D01*
X1605000Y4265000D01*
X1560000Y4310000D02*
X1540000Y4350000D01*
X1580000D01*
X1560000Y4310000D01*
X1415000Y4690000D02*
X1395000Y4730000D01*
X1435000D01*
X1415000Y4690000D01*
X1610000Y4689882D02*
X1590000Y4729882D01*
X1630000D01*
X1610000Y4689882D01*
X1330000Y4770000D02*
X1310000Y4810000D01*
X1350000D01*
X1330000Y4770000D01*
X1575000D02*
X1555000Y4810000D01*
X1595000D01*
X1575000Y4770000D01*
X1425000Y4575000D02*
X1405000Y4615000D01*
X1445000D01*
X1425000Y4575000D01*
D104*
X2610000Y4693740D02*
G03*
X2610000Y4693740I-20000J0D01*
G01*
X2810000D02*
G03*
X2810000Y4693740I-20000J0D01*
G01*
%TF.MD5,f5ded8e3503f77f173298e5cfdf24925*%
M02*
