%TF.GenerationSoftware,Altium Limited,Altium Designer,20.2.8 (258)*%
G04 Layer_Color=32768*
%FSLAX26Y26*%
%MOIN*%
%TF.SameCoordinates,5803725C-7DB8-4FA7-A0CF-86E37554034E*%
%TF.FilePolarity,Positive*%
%TF.FileFunction,Other,Top_Courtyard*%
%TF.Part,Single*%
G01*
G75*
%TA.AperFunction,NonConductor*%
%ADD59C,0.007874*%
D59*
X1442047Y1129055D02*
Y1510945D01*
X1197953Y1129055D02*
X1442047D01*
X1197953D02*
Y1510945D01*
X1442047D01*
X1305489Y3924882D02*
Y4035118D01*
X1262182Y3924882D02*
X1305489D01*
X1262182D02*
Y4035118D01*
X1305489D01*
X1386653Y3924882D02*
Y4035118D01*
X1343347Y3924882D02*
X1386653D01*
X1343347D02*
Y4035118D01*
X1386653D01*
X1709980Y2832480D02*
X2375335D01*
X1709980D02*
Y3497835D01*
X2375335D01*
Y2832480D02*
Y3497835D01*
X2270055Y4189619D02*
X2331473Y4128201D01*
X2158527Y4078091D02*
X2270055Y4189619D01*
X2158527Y4078091D02*
X2219945Y4016673D01*
X2331473Y4128201D01*
X2029291Y4209134D02*
Y4350866D01*
Y4209134D02*
X2190709D01*
Y4350866D01*
X2029291D02*
X2190709D01*
X1428504Y4651024D02*
Y4928976D01*
Y4651024D02*
X1691496D01*
Y4928976D01*
X1428504D02*
X1691496D01*
X1527539Y3914003D02*
X1588957Y3975422D01*
X1477429Y4086950D02*
X1588957Y3975422D01*
X1416011Y4025532D02*
X1477429Y4086950D01*
X1416011Y4025532D02*
X1527539Y3914003D01*
X1481138Y4456571D02*
Y4543429D01*
Y4456571D02*
X1638862D01*
Y4543429D01*
X1481138D02*
X1638862D01*
X1685055Y4136950D02*
X1746473Y4075532D01*
X1573527Y4025422D02*
X1685055Y4136950D01*
X1573527Y4025422D02*
X1634945Y3964003D01*
X1746473Y4075532D01*
X1737216Y4027326D02*
X1767838Y3996703D01*
X1673186Y3963297D02*
X1737216Y4027326D01*
X1673186Y3963297D02*
X1703809Y3932674D01*
X1767838Y3996703D01*
X1560000Y4126886D02*
X1713114Y4280000D01*
X1560000Y4433114D02*
X1713114Y4280000D01*
X1406886D02*
X1560000Y4433114D01*
X1406886Y4280000D02*
X1560000Y4126886D01*
X2457368Y4237677D02*
X2504612D01*
X2457368Y4139252D02*
Y4237677D01*
Y4139252D02*
X2504612D01*
Y4237677D01*
X2386046Y4129882D02*
X2429353D01*
Y4240118D01*
X2386046D02*
X2429353D01*
X2386046Y4129882D02*
Y4240118D01*
X2662953Y1510945D02*
X2907047D01*
X2662953Y1129055D02*
Y1510945D01*
Y1129055D02*
X2907047D01*
Y1510945D01*
X1974724Y4008347D02*
Y4051653D01*
Y4008347D02*
X2065276D01*
Y4051653D01*
X1974724D02*
X2065276D01*
X1941138Y4081571D02*
Y4168429D01*
Y4081571D02*
X2098862D01*
Y4168429D01*
X1941138D02*
X2098862D01*
X1284724Y2133347D02*
Y2176653D01*
Y2133347D02*
X1375276D01*
Y2176653D01*
X1284724D02*
X1375276D01*
X1250783Y2016571D02*
Y2103429D01*
Y2016571D02*
X1408508D01*
Y2103429D01*
X1250783D02*
X1408508D01*
%TF.MD5,ee240c105b429c51bdd6cd19a1351963*%
M02*
