%TF.GenerationSoftware,Altium Limited,Altium Designer,20.2.8 (258)*%
G04 Layer_Color=32768*
%FSLAX26Y26*%
%MOIN*%
%TF.SameCoordinates,C5A62E15-709C-4439-AAC4-A247E21399B6*%
%TF.FilePolarity,Positive*%
%TF.FileFunction,Other,Mechanical_15*%
%TF.Part,Single*%
G01*
G75*
%TA.AperFunction,NonConductor*%
%ADD95C,0.003937*%
%ADD97C,0.001968*%
D95*
X1716905Y4141958D02*
X1744744Y4114119D01*
X1716905D02*
X1744744Y4141958D01*
X1841410Y3939264D02*
X1869249Y3911425D01*
X1841410Y3911425D02*
X1869249Y3939264D01*
X1771081Y3996820D02*
X1798919Y4024658D01*
X1771081D02*
X1798919Y3996820D01*
X1603781Y4058919D02*
X1631620Y4031081D01*
X1603781D02*
X1631620Y4058919D01*
X2455000Y3181102D02*
Y3218898D01*
X2436102Y3200000D02*
X2473898D01*
X1911102Y2765000D02*
X1948898D01*
X1930000Y2746102D02*
Y2783898D01*
X2455000Y3036102D02*
Y3073898D01*
X2436102Y3055000D02*
X2473898D01*
X2052500Y1180315D02*
Y1219685D01*
X2032815Y1200000D02*
X2072185D01*
X1775042Y4177134D02*
X1812443D01*
X1793742Y4158433D02*
Y4195834D01*
X2745000Y4055315D02*
Y4094685D01*
X2725315Y4075000D02*
X2764685D01*
X1326348Y4145000D02*
X1363750D01*
X1345049Y4126299D02*
Y4163701D01*
X2209606Y4635630D02*
Y4714370D01*
X2028504Y4635630D02*
Y4714370D01*
Y4635630D02*
X2209606D01*
X2028504Y4714370D02*
X2209606D01*
X2099370Y4675000D02*
X2138740D01*
X2119055Y4655315D02*
Y4694685D01*
X2209606Y4758130D02*
Y4836870D01*
X2028504Y4758130D02*
Y4836870D01*
Y4758130D02*
X2209606D01*
X2028504Y4836870D02*
X2209606D01*
X2099370Y4797500D02*
X2138740D01*
X2119055Y4777815D02*
Y4817185D01*
X2209606Y4880630D02*
Y4959370D01*
X2028504Y4880630D02*
Y4959370D01*
Y4880630D02*
X2209606D01*
X2028504Y4959370D02*
X2209606D01*
X2099370Y4920000D02*
X2138740D01*
X2119055Y4900315D02*
Y4939685D01*
X2286299Y4675000D02*
X2323701D01*
X2305000Y4656299D02*
Y4693701D01*
X2286299Y4797500D02*
X2323701D01*
X2305000Y4778799D02*
Y4816201D01*
X2286299Y4920000D02*
X2323701D01*
X2305000Y4901299D02*
Y4938701D01*
X1305315Y1865000D02*
X1344685D01*
X1325000Y1845315D02*
Y1884685D01*
X2835000Y2050315D02*
Y2089685D01*
X2815315Y2070000D02*
X2854685D01*
X2800000Y2230315D02*
Y2269685D01*
X2780315Y2250000D02*
X2819685D01*
X2716722Y2065000D02*
X2752155D01*
X2734439Y2047284D02*
Y2082717D01*
X2545000Y1806339D02*
Y1845709D01*
X2525315Y1826024D02*
X2564685D01*
X2651667Y1806339D02*
Y1845709D01*
X2631982Y1826024D02*
X2671352D01*
X2758333Y1806339D02*
Y1845709D01*
X2738648Y1826024D02*
X2778018D01*
X2865000Y1806339D02*
Y1845709D01*
X2845315Y1826024D02*
X2884685D01*
D97*
X1655659Y4147525D02*
X1711337Y4203203D01*
X1750312Y4052873D02*
X1805989Y4108551D01*
X1655659Y4147525D02*
X1750312Y4052873D01*
X1711337Y4203203D02*
X1805989Y4108551D01*
X1762070Y3893330D02*
X1887344Y4018605D01*
X1823315Y3832084D02*
X1948590Y3957359D01*
X1887344Y4018605D02*
X1948590Y3957359D01*
X1762070Y3893330D02*
X1823315Y3832084D01*
X1761337Y3931398D02*
X1864341Y4034402D01*
X1808663Y4090079D02*
X1864341Y4034402D01*
X1705659Y3987076D02*
X1761337Y3931398D01*
X1705659Y3987076D02*
X1808663Y4090079D01*
X1542536Y4064487D02*
X1598214Y4120165D01*
X1637188Y3969835D02*
X1692866Y4025513D01*
X1542536Y4064487D02*
X1637188Y3969835D01*
X1598214Y4120165D02*
X1692866Y4025513D01*
X2431378Y3245276D02*
X2478622D01*
X2431378Y3154724D02*
X2478622D01*
X2431378D02*
Y3245276D01*
X2478622Y3154724D02*
Y3245276D01*
X1884724Y2741378D02*
Y2788622D01*
X1975275Y2741378D02*
Y2788622D01*
X1884724Y2741378D02*
X1975275D01*
X1884724Y2788622D02*
X1975275D01*
X2431378Y3009724D02*
X2478622D01*
X2431378Y3100276D02*
X2478622D01*
Y3009724D02*
Y3100276D01*
X2431378Y3009724D02*
Y3100276D01*
X1853681Y1107480D02*
X2251319D01*
X1853681D02*
Y1292520D01*
X2251319Y1107480D02*
Y1292520D01*
X1853681D02*
X2251319D01*
X1839018Y4153511D02*
Y4200756D01*
X1748467Y4153511D02*
Y4200756D01*
Y4153511D02*
X1839018D01*
X1748467Y4200756D02*
X1839018D01*
X1390324Y4121378D02*
Y4168622D01*
X1299773Y4121378D02*
Y4168622D01*
Y4121378D02*
X1390324D01*
X1299773Y4168622D02*
X1390324D01*
X2362087Y4645472D02*
Y4704528D01*
X2247913Y4645472D02*
Y4704528D01*
Y4645472D02*
X2362087D01*
X2247913Y4704528D02*
X2362087D01*
Y4767972D02*
Y4827028D01*
X2247913Y4767972D02*
Y4827028D01*
Y4767972D02*
X2362087D01*
X2247913Y4827028D02*
X2362087D01*
Y4890472D02*
Y4949528D01*
X2247913Y4890472D02*
Y4949528D01*
Y4890472D02*
X2362087D01*
X2247913Y4949528D02*
X2362087D01*
X2476220Y4315787D02*
X2903780D01*
X2476220D02*
Y4984882D01*
X2903780D01*
Y4315787D02*
Y4984882D01*
X2670315Y4665000D02*
X2709685D01*
X2690000Y4645315D02*
Y4684685D01*
X1222638Y1733110D02*
Y1996890D01*
X1427362Y1733110D02*
Y1996890D01*
X1222638Y1733110D02*
X1427362D01*
X1222638Y1996890D02*
X1427362D01*
X2768071Y2183189D02*
X2901929D01*
X2768071Y1956811D02*
X2901929D01*
Y2183189D01*
X2768071Y1956811D02*
Y2183189D01*
X2723228Y2289370D02*
X2876772D01*
X2723228Y2210630D02*
X2876772D01*
X2723228D02*
Y2289370D01*
X2876772Y2210630D02*
Y2289370D01*
X2712785Y2021693D02*
Y2108307D01*
X2756092Y2021693D02*
Y2108307D01*
X2712785Y2021693D02*
X2756092D01*
X2712785Y2108307D02*
X2756092D01*
X2503661Y1904764D02*
X2586339D01*
X2503661Y1747284D02*
X2586339D01*
Y1904764D01*
X2503661Y1747284D02*
Y1904764D01*
X2610328D02*
X2693005D01*
X2610328Y1747284D02*
X2693005D01*
Y1904764D01*
X2610328Y1747284D02*
Y1904764D01*
X2716995D02*
X2799672D01*
X2716995Y1747284D02*
X2799672D01*
Y1904764D01*
X2716995Y1747284D02*
Y1904764D01*
X2823661D02*
X2906338D01*
X2823661Y1747284D02*
X2906338D01*
Y1904764D01*
X2823661Y1747284D02*
Y1904764D01*
%TF.MD5,ea55aeb4837517a06d3f4be50c6d66ec*%
M02*
