%TF.GenerationSoftware,Altium Limited,Altium Designer,20.2.8 (258)*%
G04 Layer_Color=8388736*
%FSLAX26Y26*%
%MOIN*%
%TF.SameCoordinates,C5A62E15-709C-4439-AAC4-A247E21399B6*%
%TF.FilePolarity,Negative*%
%TF.FileFunction,Soldermask,Top*%
%TF.Part,Single*%
G01*
G75*
%TA.AperFunction,SMDPad,CuDef*%
%ADD10R,0.051181X0.061024*%
%ADD11R,0.031496X0.035433*%
%ADD12R,0.070866X0.059055*%
%ADD13R,0.059055X0.070866*%
G04:AMPARAMS|DCode=14|XSize=37.646mil|YSize=47.488mil|CornerRadius=0mil|HoleSize=0mil|Usage=FLASHONLY|Rotation=225.000|XOffset=0mil|YOffset=0mil|HoleType=Round|Shape=Rectangle|*
%AMROTATEDRECTD14*
4,1,4,-0.003480,0.030099,0.030099,-0.003480,0.003480,-0.030099,-0.030099,0.003480,-0.003480,0.030099,0.0*
%
%ADD14ROTATEDRECTD14*%

%ADD15R,0.013780X0.022638*%
%ADD16R,0.022638X0.013780*%
%ADD17R,0.029134X0.109843*%
G04:AMPARAMS|DCode=18|XSize=37.646mil|YSize=47.488mil|CornerRadius=0mil|HoleSize=0mil|Usage=FLASHONLY|Rotation=135.000|XOffset=0mil|YOffset=0mil|HoleType=Round|Shape=Rectangle|*
%AMROTATEDRECTD18*
4,1,4,0.030099,0.003480,-0.003480,-0.030099,-0.030099,-0.003480,0.003480,0.030099,0.030099,0.003480,0.0*
%
%ADD18ROTATEDRECTD18*%

%ADD19R,0.037646X0.047488*%
%ADD20P,0.038974X4X270.0*%
G04:AMPARAMS|DCode=21|XSize=11.811mil|YSize=23.622mil|CornerRadius=0mil|HoleSize=0mil|Usage=FLASHONLY|Rotation=135.000|XOffset=0mil|YOffset=0mil|HoleType=Round|Shape=Rectangle|*
%AMROTATEDRECTD21*
4,1,4,0.012527,0.004176,-0.004176,-0.012527,-0.012527,-0.004176,0.004176,0.012527,0.012527,0.004176,0.0*
%
%ADD21ROTATEDRECTD21*%

G04:AMPARAMS|DCode=22|XSize=23.622mil|YSize=11.811mil|CornerRadius=0mil|HoleSize=0mil|Usage=FLASHONLY|Rotation=135.000|XOffset=0mil|YOffset=0mil|HoleType=Round|Shape=Rectangle|*
%AMROTATEDRECTD22*
4,1,4,0.012527,-0.004176,0.004176,-0.012527,-0.012527,0.004176,-0.004176,0.012527,0.012527,-0.004176,0.0*
%
%ADD22ROTATEDRECTD22*%

%ADD23P,0.192088X4X180.0*%
%ADD24R,0.031496X0.023622*%
%ADD31R,0.027559X0.027559*%
%TA.AperFunction,ComponentPad*%
%ADD65C,0.067055*%
%ADD66R,0.067055X0.067055*%
%ADD67C,0.074142*%
%TA.AperFunction,ViaPad*%
%ADD68C,0.028000*%
%TA.AperFunction,SMDPad,CuDef*%
%ADD84R,0.037528X0.041465*%
%ADD85R,0.074929X0.027685*%
%ADD86R,0.078866X0.027685*%
%ADD87R,0.063118X0.067055*%
%ADD88R,0.045402X0.045402*%
%ADD89R,0.047370X0.106425*%
G04:AMPARAMS|DCode=90|XSize=29.654mil|YSize=57.213mil|CornerRadius=5.949mil|HoleSize=0mil|Usage=FLASHONLY|Rotation=0.000|XOffset=0mil|YOffset=0mil|HoleType=Round|Shape=RoundedRectangle|*
%AMROUNDEDRECTD90*
21,1,0.029654,0.045315,0,0,0.0*
21,1,0.017756,0.057213,0,0,0.0*
1,1,0.011898,0.008878,-0.022657*
1,1,0.011898,-0.008878,-0.022657*
1,1,0.011898,-0.008878,0.022657*
1,1,0.011898,0.008878,0.022657*
%
%ADD90ROUNDEDRECTD90*%
%ADD91O,0.025716X0.067055*%
%ADD92R,0.053276X0.074929*%
%ADD93R,0.041465X0.025716*%
%ADD94R,0.078866X0.029654*%
D10*
X1408583Y1476496D02*
D03*
Y1163504D02*
D03*
X1231417Y1476496D02*
D03*
Y1163504D02*
D03*
X2696417D02*
D03*
Y1476496D02*
D03*
X2873583Y1163504D02*
D03*
Y1476496D02*
D03*
D11*
X1283835Y4013465D02*
D03*
Y3946535D02*
D03*
X1365000Y4013465D02*
D03*
Y3946535D02*
D03*
X2407699Y4218465D02*
D03*
Y4151535D02*
D03*
D12*
X2302500Y3015551D02*
D03*
Y3090354D02*
D03*
Y3165157D02*
D03*
Y3239961D02*
D03*
Y3314764D02*
D03*
X1782815D02*
D03*
Y3239961D02*
D03*
Y3165157D02*
D03*
Y3090354D02*
D03*
Y3015551D02*
D03*
D13*
X2192264Y3425000D02*
D03*
X2117461D02*
D03*
X2042658D02*
D03*
X1967854D02*
D03*
X1893051D02*
D03*
Y2905315D02*
D03*
X1967854D02*
D03*
X2042658D02*
D03*
X2117461D02*
D03*
X2192264D02*
D03*
D14*
X2216465Y4074611D02*
D03*
X2273535Y4131681D02*
D03*
X1631465Y4021942D02*
D03*
X1688535Y4079011D02*
D03*
D15*
X2090315Y4315925D02*
D03*
X2110000D02*
D03*
X2129685D02*
D03*
Y4244075D02*
D03*
X2110000D02*
D03*
X2090315D02*
D03*
D16*
X2155768Y4309528D02*
D03*
Y4289842D02*
D03*
Y4270158D02*
D03*
Y4250472D02*
D03*
X2064232D02*
D03*
Y4270158D02*
D03*
Y4289842D02*
D03*
Y4309528D02*
D03*
D17*
X1660000Y4870118D02*
D03*
X1610000D02*
D03*
X1560000D02*
D03*
X1510000D02*
D03*
X1460000D02*
D03*
X1660000Y4709882D02*
D03*
X1560000D02*
D03*
X1510000D02*
D03*
X1460000D02*
D03*
D18*
X1473949Y4029011D02*
D03*
X1531019Y3971942D02*
D03*
D19*
X1600354Y4500000D02*
D03*
X1519646D02*
D03*
X2060354Y4125000D02*
D03*
X1979646D02*
D03*
X1370000Y2060000D02*
D03*
X1289291D02*
D03*
D20*
X1701025Y3960513D02*
D03*
X1740000Y3999487D02*
D03*
D21*
X1576703Y4394139D02*
D03*
X1590623Y4380220D02*
D03*
X1604542Y4366301D02*
D03*
X1618462Y4352381D02*
D03*
X1632381Y4338462D02*
D03*
X1646301Y4324542D02*
D03*
X1660220Y4310623D02*
D03*
X1674139Y4296703D02*
D03*
X1543297Y4165861D02*
D03*
X1529377Y4179780D02*
D03*
X1515458Y4193699D02*
D03*
X1501538Y4207619D02*
D03*
X1487619Y4221538D02*
D03*
X1473699Y4235458D02*
D03*
X1459780Y4249377D02*
D03*
X1445861Y4263297D02*
D03*
D22*
Y4296703D02*
D03*
X1459780Y4310623D02*
D03*
X1473699Y4324542D02*
D03*
X1487619Y4338462D02*
D03*
X1501538Y4352381D02*
D03*
X1515458Y4366301D02*
D03*
X1529377Y4380220D02*
D03*
X1543297Y4394139D02*
D03*
X1674139Y4263297D02*
D03*
X1660220Y4249377D02*
D03*
X1646301Y4235458D02*
D03*
X1632381Y4221538D02*
D03*
X1618462Y4207619D02*
D03*
X1604542Y4193699D02*
D03*
X1590623Y4179780D02*
D03*
X1576703Y4165861D02*
D03*
D23*
X1560000Y4280000D02*
D03*
D24*
X2480990Y4155000D02*
D03*
Y4221929D02*
D03*
D31*
X2047559Y4030000D02*
D03*
X1992441D02*
D03*
X1357559Y2155000D02*
D03*
X1302441D02*
D03*
D65*
X2091870Y1221653D02*
D03*
X2013130D02*
D03*
X2170610D02*
D03*
D66*
X1934390D02*
D03*
D67*
X2590000Y4693740D02*
D03*
X2790000D02*
D03*
D68*
X1340000Y4595000D02*
D03*
X1690000Y4535000D02*
D03*
X1915000Y4500000D02*
D03*
X1960000Y4525000D02*
D03*
X2005000Y4270000D02*
D03*
X1970000Y4290000D02*
D03*
X1424000Y4345000D02*
D03*
X1425000Y4375000D02*
D03*
X1830000Y4360000D02*
D03*
X1961243Y4045072D02*
D03*
X1270000Y4295000D02*
D03*
X2800000Y4800000D02*
D03*
Y3840000D02*
D03*
X2720000Y3680000D02*
D03*
X2800000Y3520000D02*
D03*
X2720000Y3360000D02*
D03*
X2800000Y3200000D02*
D03*
X2720000Y3040000D02*
D03*
X2800000Y2880000D02*
D03*
X2720000Y2720000D02*
D03*
X2800000Y2560000D02*
D03*
X2720000Y2400000D02*
D03*
X2640000Y4800000D02*
D03*
Y1600000D02*
D03*
X2560000Y1440000D02*
D03*
X2480000Y4800000D02*
D03*
X2400000Y3680000D02*
D03*
X2480000Y2880000D02*
D03*
X2400000Y2720000D02*
D03*
X2480000Y2560000D02*
D03*
X2400000Y2400000D02*
D03*
X2480000Y2240000D02*
D03*
X2400000Y2080000D02*
D03*
X2480000Y1600000D02*
D03*
X2400000Y1440000D02*
D03*
X2480000Y1280000D02*
D03*
X2320000Y3840000D02*
D03*
X2240000Y3680000D02*
D03*
X2320000Y3520000D02*
D03*
Y2880000D02*
D03*
X2240000Y2720000D02*
D03*
X2320000Y2560000D02*
D03*
X2240000Y2400000D02*
D03*
X2320000Y2240000D02*
D03*
X2240000Y2080000D02*
D03*
X2320000Y1920000D02*
D03*
Y1600000D02*
D03*
X2240000Y1440000D02*
D03*
X2320000Y1280000D02*
D03*
X2160000Y3840000D02*
D03*
X2080000Y3680000D02*
D03*
X2160000Y3200000D02*
D03*
X2080000Y3040000D02*
D03*
Y2720000D02*
D03*
X2160000Y2560000D02*
D03*
X2080000Y2400000D02*
D03*
X2160000Y2240000D02*
D03*
X2080000Y2080000D02*
D03*
X2160000Y1920000D02*
D03*
X2080000Y1760000D02*
D03*
X2000000Y3840000D02*
D03*
X1920000Y3680000D02*
D03*
X2000000Y3200000D02*
D03*
X1920000Y3040000D02*
D03*
X2000000Y2560000D02*
D03*
X1920000Y2400000D02*
D03*
X2000000Y2240000D02*
D03*
X1920000Y2080000D02*
D03*
X2000000Y1920000D02*
D03*
X1920000Y1760000D02*
D03*
X2000000Y1600000D02*
D03*
X1840000Y4800000D02*
D03*
X1760000Y3680000D02*
D03*
Y2720000D02*
D03*
X1840000Y2560000D02*
D03*
X1760000Y2400000D02*
D03*
X1840000Y2240000D02*
D03*
X1760000Y2080000D02*
D03*
X1840000Y1920000D02*
D03*
X1760000Y1760000D02*
D03*
X1840000Y1600000D02*
D03*
X1760000Y1440000D02*
D03*
X1680000Y3840000D02*
D03*
X1600000Y3680000D02*
D03*
X1680000Y3520000D02*
D03*
X1600000Y3360000D02*
D03*
Y3040000D02*
D03*
X1680000Y2880000D02*
D03*
X1600000Y2720000D02*
D03*
X1680000Y2560000D02*
D03*
X1600000Y2400000D02*
D03*
X1680000Y2240000D02*
D03*
X1600000Y2080000D02*
D03*
X1680000Y1920000D02*
D03*
Y1600000D02*
D03*
X1520000Y3840000D02*
D03*
X1440000Y3680000D02*
D03*
X1520000Y3520000D02*
D03*
X1440000Y3040000D02*
D03*
X1520000Y2880000D02*
D03*
X1440000Y2720000D02*
D03*
X1520000Y2560000D02*
D03*
X1440000Y2400000D02*
D03*
X1520000Y2240000D02*
D03*
X1360000Y3200000D02*
D03*
Y2880000D02*
D03*
Y2560000D02*
D03*
X2850000Y2355000D02*
D03*
X2851181Y2319410D02*
D03*
X1705000Y4565000D02*
D03*
X1695000Y4050000D02*
D03*
X1625000Y4120000D02*
D03*
X1645000Y4150000D02*
D03*
X1762500Y4487500D02*
D03*
X1875000Y4230000D02*
D03*
Y4290000D02*
D03*
X1810000Y4295000D02*
D03*
X1802061Y4262060D02*
D03*
X1820000Y4135000D02*
D03*
X2850000Y1555000D02*
D03*
X1743358Y4288358D02*
D03*
X1575000Y1565000D02*
D03*
X1280000Y1475000D02*
D03*
X2630000D02*
D03*
X1660000Y4195000D02*
D03*
X1285000Y4145000D02*
D03*
X1540000Y4115000D02*
D03*
X1513162Y4135726D02*
D03*
X1410000Y1650000D02*
D03*
X1360000Y1655000D02*
D03*
X1330000Y4230000D02*
D03*
X1370000Y4235000D02*
D03*
X1455000Y1970000D02*
D03*
X1205000D02*
D03*
X1400000Y1700000D02*
D03*
X1225000Y2060000D02*
D03*
X1430000D02*
D03*
X2555000Y3940000D02*
D03*
X2480000Y4105000D02*
D03*
X2400224Y3164307D02*
D03*
X2400040Y3239961D02*
D03*
X1680000Y3310000D02*
D03*
X1895000Y3515000D02*
D03*
X2195000Y3525000D02*
D03*
X2405000Y3080000D02*
D03*
X1283835Y3890000D02*
D03*
X1695000Y3090000D02*
D03*
X1365000Y3890000D02*
D03*
X1690000Y3165000D02*
D03*
X2090000Y4030000D02*
D03*
X2175000D02*
D03*
X2315000Y4175000D02*
D03*
X2525000Y4155000D02*
D03*
X1905000Y2815000D02*
D03*
X1960000D02*
D03*
X2405000Y3030000D02*
D03*
X1695000Y3015000D02*
D03*
X2400000Y3315000D02*
D03*
X1265000Y4450000D02*
D03*
X1280000Y4415000D02*
D03*
X1435000D02*
D03*
X1440000Y4450000D02*
D03*
X2245000Y4285000D02*
D03*
X1955000Y4415000D02*
D03*
X1980000Y4470000D02*
D03*
X2150000Y4410000D02*
D03*
X2200000Y4440000D02*
D03*
X2240000Y4375000D02*
D03*
X2840000Y4615000D02*
D03*
X2235000Y4230000D02*
D03*
X2335000Y4625000D02*
D03*
Y4745000D02*
D03*
Y4870000D02*
D03*
X1805000Y4470000D02*
D03*
Y4405000D02*
D03*
X1760000D02*
D03*
X1725000Y4470000D02*
D03*
Y4405000D02*
D03*
X1950000Y4320000D02*
D03*
X2010000Y4345000D02*
D03*
X2095000Y4365000D02*
D03*
X1355000Y4385000D02*
D03*
X2130000Y4375000D02*
D03*
X1925000Y4125000D02*
D03*
X2115000D02*
D03*
X1475000Y4500000D02*
D03*
X1650000D02*
D03*
X1575000Y3935000D02*
D03*
X1430000Y4070000D02*
D03*
X1555000Y4235000D02*
D03*
X1505000Y4280000D02*
D03*
X1605000Y4285000D02*
D03*
X1560000Y4330000D02*
D03*
X1415000Y4710000D02*
D03*
X1610000Y4709882D02*
D03*
X1330000Y4790000D02*
D03*
X1575000D02*
D03*
X1425000Y4595000D02*
D03*
D84*
X1819333Y4177134D02*
D03*
X1768152D02*
D03*
X1370639Y4145000D02*
D03*
X1319458D02*
D03*
D85*
X2556024Y4104528D02*
D03*
D86*
X2557992Y4045472D02*
D03*
D87*
X2178110Y4675000D02*
D03*
X2060000D02*
D03*
X2178110Y4797500D02*
D03*
X2060000D02*
D03*
X2178110Y4920000D02*
D03*
X2060000D02*
D03*
D88*
X2333543Y4675000D02*
D03*
X2276457D02*
D03*
X2333543Y4797500D02*
D03*
X2276457D02*
D03*
X2333543Y4920000D02*
D03*
X2276457D02*
D03*
D89*
X2640000Y4372874D02*
D03*
Y4518543D02*
D03*
X2540000Y4372874D02*
D03*
Y4518543D02*
D03*
X2740000D02*
D03*
X2840000D02*
D03*
X2740000Y4372874D02*
D03*
X2840000D02*
D03*
D90*
X1250000Y1761654D02*
D03*
X1300000D02*
D03*
X1350000D02*
D03*
X1400000D02*
D03*
X1250000Y1968347D02*
D03*
X1300000D02*
D03*
X1350000D02*
D03*
X1400000D02*
D03*
D91*
X2873386Y2149724D02*
D03*
X2847795D02*
D03*
X2822205D02*
D03*
X2796614D02*
D03*
X2873386Y1990276D02*
D03*
X2847795D02*
D03*
X2822205D02*
D03*
X2796614D02*
D03*
D92*
X2748819Y2250000D02*
D03*
X2851181D02*
D03*
D93*
X2734439Y2035473D02*
D03*
Y2094528D02*
D03*
D94*
X2545000Y1890000D02*
D03*
Y1762047D02*
D03*
X2651667Y1890000D02*
D03*
Y1762047D02*
D03*
X2758333Y1890000D02*
D03*
Y1762047D02*
D03*
X2865000Y1890000D02*
D03*
Y1762047D02*
D03*
%TF.MD5,aa3273498fb5bb744880d609c711b8f4*%
M02*
