%TF.GenerationSoftware,Altium Limited,Altium Designer,20.2.8 (258)*%
G04 Layer_Color=8421504*
%FSLAX26Y26*%
%MOIN*%
%TF.SameCoordinates,C5A62E15-709C-4439-AAC4-A247E21399B6*%
%TF.FilePolarity,Positive*%
%TF.FileFunction,Paste,Top*%
%TF.Part,Single*%
G01*
G75*
%TA.AperFunction,SMDPad,CuDef*%
%ADD10R,0.051181X0.061024*%
%ADD11R,0.031496X0.035433*%
G04:AMPARAMS|DCode=14|XSize=37.646mil|YSize=47.488mil|CornerRadius=0mil|HoleSize=0mil|Usage=FLASHONLY|Rotation=225.000|XOffset=0mil|YOffset=0mil|HoleType=Round|Shape=Rectangle|*
%AMROTATEDRECTD14*
4,1,4,-0.003480,0.030099,0.030099,-0.003480,0.003480,-0.030099,-0.030099,0.003480,-0.003480,0.030099,0.0*
%
%ADD14ROTATEDRECTD14*%

%ADD17R,0.029134X0.109843*%
G04:AMPARAMS|DCode=18|XSize=37.646mil|YSize=47.488mil|CornerRadius=0mil|HoleSize=0mil|Usage=FLASHONLY|Rotation=135.000|XOffset=0mil|YOffset=0mil|HoleType=Round|Shape=Rectangle|*
%AMROTATEDRECTD18*
4,1,4,0.030099,0.003480,-0.003480,-0.030099,-0.030099,-0.003480,0.003480,0.030099,0.030099,0.003480,0.0*
%
%ADD18ROTATEDRECTD18*%

%ADD19R,0.037646X0.047488*%
%ADD20P,0.038974X4X270.0*%
G04:AMPARAMS|DCode=21|XSize=11.811mil|YSize=23.622mil|CornerRadius=0mil|HoleSize=0mil|Usage=FLASHONLY|Rotation=135.000|XOffset=0mil|YOffset=0mil|HoleType=Round|Shape=Rectangle|*
%AMROTATEDRECTD21*
4,1,4,0.012527,0.004176,-0.004176,-0.012527,-0.012527,-0.004176,0.004176,0.012527,0.012527,0.004176,0.0*
%
%ADD21ROTATEDRECTD21*%

G04:AMPARAMS|DCode=22|XSize=23.622mil|YSize=11.811mil|CornerRadius=0mil|HoleSize=0mil|Usage=FLASHONLY|Rotation=135.000|XOffset=0mil|YOffset=0mil|HoleType=Round|Shape=Rectangle|*
%AMROTATEDRECTD22*
4,1,4,0.012527,-0.004176,0.004176,-0.012527,-0.012527,0.004176,-0.004176,0.012527,0.012527,-0.004176,0.0*
%
%ADD22ROTATEDRECTD22*%

%ADD23P,0.192088X4X180.0*%
%ADD24R,0.031496X0.023622*%
%ADD25R,0.029528X0.033465*%
%ADD26R,0.066929X0.019685*%
%ADD27R,0.070866X0.019685*%
%ADD28R,0.055118X0.059055*%
%ADD29R,0.037402X0.037402*%
%ADD30R,0.039370X0.098425*%
%ADD31R,0.027559X0.027559*%
G04:AMPARAMS|DCode=32|XSize=21.654mil|YSize=49.213mil|CornerRadius=1.949mil|HoleSize=0mil|Usage=FLASHONLY|Rotation=0.000|XOffset=0mil|YOffset=0mil|HoleType=Round|Shape=RoundedRectangle|*
%AMROUNDEDRECTD32*
21,1,0.021654,0.045315,0,0,0.0*
21,1,0.017756,0.049213,0,0,0.0*
1,1,0.003898,0.008878,-0.022657*
1,1,0.003898,-0.008878,-0.022657*
1,1,0.003898,-0.008878,0.022657*
1,1,0.003898,0.008878,0.022657*
%
%ADD32ROUNDEDRECTD32*%
%ADD33O,0.017716X0.059055*%
%ADD34R,0.045276X0.066929*%
%ADD35R,0.033465X0.017716*%
%ADD36R,0.070866X0.021654*%
%TA.AperFunction,NonConductor*%
%ADD72R,0.028346X0.022835*%
%ADD73R,0.028346X0.022835*%
%ADD74R,0.028346X0.022835*%
%ADD75R,0.028346X0.022835*%
%ADD76R,0.022835X0.028346*%
%ADD77R,0.022835X0.028346*%
%ADD78R,0.022835X0.028346*%
%ADD79R,0.022835X0.028346*%
%ADD80R,0.011977X0.020835*%
%ADD81R,0.011977X0.020835*%
%ADD82R,0.020835X0.011977*%
%ADD83R,0.020835X0.011977*%
D10*
X1408583Y1476496D02*
D03*
Y1163504D02*
D03*
X1231417Y1476496D02*
D03*
Y1163504D02*
D03*
X2696417D02*
D03*
Y1476496D02*
D03*
X2873583Y1163504D02*
D03*
Y1476496D02*
D03*
D11*
X1283835Y4013465D02*
D03*
Y3946535D02*
D03*
X1365000Y4013465D02*
D03*
Y3946535D02*
D03*
X2407699Y4218465D02*
D03*
Y4151535D02*
D03*
D14*
X2216465Y4074611D02*
D03*
X2273535Y4131681D02*
D03*
X1631465Y4021942D02*
D03*
X1688535Y4079011D02*
D03*
D17*
X1660000Y4870118D02*
D03*
X1610000D02*
D03*
X1560000D02*
D03*
X1510000D02*
D03*
X1460000D02*
D03*
X1660000Y4709882D02*
D03*
X1560000D02*
D03*
X1510000D02*
D03*
X1460000D02*
D03*
D18*
X1473949Y4029011D02*
D03*
X1531019Y3971942D02*
D03*
D19*
X1600354Y4500000D02*
D03*
X1519646D02*
D03*
X2060354Y4125000D02*
D03*
X1979646D02*
D03*
X1370000Y2060000D02*
D03*
X1289291D02*
D03*
D20*
X1701025Y3960513D02*
D03*
X1740000Y3999487D02*
D03*
D21*
X1576703Y4394139D02*
D03*
X1590623Y4380220D02*
D03*
X1604542Y4366301D02*
D03*
X1618462Y4352381D02*
D03*
X1632381Y4338462D02*
D03*
X1646301Y4324542D02*
D03*
X1660220Y4310623D02*
D03*
X1674139Y4296703D02*
D03*
X1543297Y4165861D02*
D03*
X1529377Y4179780D02*
D03*
X1515458Y4193699D02*
D03*
X1501538Y4207619D02*
D03*
X1487619Y4221538D02*
D03*
X1473699Y4235458D02*
D03*
X1459780Y4249377D02*
D03*
X1445861Y4263297D02*
D03*
D22*
Y4296703D02*
D03*
X1459780Y4310623D02*
D03*
X1473699Y4324542D02*
D03*
X1487619Y4338462D02*
D03*
X1501538Y4352381D02*
D03*
X1515458Y4366301D02*
D03*
X1529377Y4380220D02*
D03*
X1543297Y4394139D02*
D03*
X1674139Y4263297D02*
D03*
X1660220Y4249377D02*
D03*
X1646301Y4235458D02*
D03*
X1632381Y4221538D02*
D03*
X1618462Y4207619D02*
D03*
X1604542Y4193699D02*
D03*
X1590623Y4179780D02*
D03*
X1576703Y4165861D02*
D03*
D23*
X1560000Y4280000D02*
D03*
D24*
X2480990Y4155000D02*
D03*
Y4221929D02*
D03*
D25*
X1819333Y4177134D02*
D03*
X1768152D02*
D03*
X1370639Y4145000D02*
D03*
X1319458D02*
D03*
D26*
X2556024Y4104528D02*
D03*
D27*
X2557992Y4045472D02*
D03*
D28*
X2178110Y4675000D02*
D03*
X2060000D02*
D03*
X2178110Y4797500D02*
D03*
X2060000D02*
D03*
X2178110Y4920000D02*
D03*
X2060000D02*
D03*
D29*
X2333543Y4675000D02*
D03*
X2276457D02*
D03*
X2333543Y4797500D02*
D03*
X2276457D02*
D03*
X2333543Y4920000D02*
D03*
X2276457D02*
D03*
D30*
X2640000Y4372874D02*
D03*
Y4518543D02*
D03*
X2540000Y4372874D02*
D03*
Y4518543D02*
D03*
X2740000D02*
D03*
X2840000D02*
D03*
X2740000Y4372874D02*
D03*
X2840000D02*
D03*
D31*
X2047559Y4030000D02*
D03*
X1992441D02*
D03*
X1357559Y2155000D02*
D03*
X1302441D02*
D03*
D32*
X1250000Y1761654D02*
D03*
X1300000D02*
D03*
X1350000D02*
D03*
X1400000D02*
D03*
X1250000Y1968347D02*
D03*
X1300000D02*
D03*
X1350000D02*
D03*
X1400000D02*
D03*
D33*
X2873386Y2149724D02*
D03*
X2847795D02*
D03*
X2822205D02*
D03*
X2796614D02*
D03*
X2873386Y1990276D02*
D03*
X2847795D02*
D03*
X2822205D02*
D03*
X2796614D02*
D03*
D34*
X2748819Y2250000D02*
D03*
X2851181D02*
D03*
D35*
X2734439Y2035473D02*
D03*
Y2094528D02*
D03*
D36*
X2545000Y1890000D02*
D03*
Y1762047D02*
D03*
X2651667Y1890000D02*
D03*
Y1762047D02*
D03*
X2758333Y1890000D02*
D03*
Y1762047D02*
D03*
X2865000Y1890000D02*
D03*
Y1762047D02*
D03*
D72*
X2322185Y2998819D02*
D03*
Y3032283D02*
D03*
Y3073622D02*
D03*
Y3298031D02*
D03*
Y3331496D02*
D03*
X1763130Y3331496D02*
D03*
Y3298032D02*
D03*
Y3256693D02*
D03*
Y2998819D02*
D03*
Y3032284D02*
D03*
Y3148425D02*
D03*
Y3181890D02*
D03*
X2322185Y3181890D02*
D03*
Y3148425D02*
D03*
D73*
X2282815Y2998819D02*
D03*
Y3032284D02*
D03*
Y3073622D02*
D03*
Y3298032D02*
D03*
Y3331496D02*
D03*
X1802500D02*
D03*
Y3298032D02*
D03*
Y3256693D02*
D03*
Y2998819D02*
D03*
Y3032284D02*
D03*
X1802500Y3148425D02*
D03*
Y3181890D02*
D03*
X2282815D02*
D03*
Y3148425D02*
D03*
D74*
X2322185Y3107087D02*
D03*
Y3223228D02*
D03*
Y3256693D02*
D03*
X1763130Y3223228D02*
D03*
Y3107087D02*
D03*
Y3073622D02*
D03*
D75*
X2282815Y3107087D02*
D03*
X2282815Y3223228D02*
D03*
Y3256693D02*
D03*
X1802500Y3223228D02*
D03*
X1802500Y3107087D02*
D03*
Y3073622D02*
D03*
D76*
X2208996Y3444685D02*
D03*
X2175532D02*
D03*
X1909784D02*
D03*
X1876319D02*
D03*
X1876319Y2885630D02*
D03*
X1909784D02*
D03*
X2175532D02*
D03*
X2208996D02*
D03*
X2134193D02*
D03*
X2100709D02*
D03*
X2100709Y3444685D02*
D03*
X1984607Y2885630D02*
D03*
X1984606Y3444685D02*
D03*
X2025925D02*
D03*
X2025925Y2885630D02*
D03*
X2059390D02*
D03*
X2059390Y3444685D02*
D03*
D77*
X2208996Y3405315D02*
D03*
X2175532D02*
D03*
X1909784D02*
D03*
X1876319D02*
D03*
Y2925000D02*
D03*
X1909784D02*
D03*
X2175532D02*
D03*
X2208996D02*
D03*
X2134193D02*
D03*
X2100709D02*
D03*
Y3405315D02*
D03*
X1984607Y2925000D02*
D03*
Y3405315D02*
D03*
X2025925Y3405315D02*
D03*
Y2925000D02*
D03*
X2059390D02*
D03*
Y3405315D02*
D03*
D78*
X2134173Y3444685D02*
D03*
X1951142D02*
D03*
Y2885630D02*
D03*
D79*
X2134173Y3405315D02*
D03*
X1951142Y3405315D02*
D03*
Y2925000D02*
D03*
D80*
X2090315Y4315925D02*
D03*
X2129685D02*
D03*
Y4244075D02*
D03*
X2090315D02*
D03*
D81*
X2110000Y4315925D02*
D03*
Y4244074D02*
D03*
D82*
X2155768Y4309528D02*
D03*
Y4250472D02*
D03*
X2064232D02*
D03*
Y4309528D02*
D03*
D83*
X2155768Y4289842D02*
D03*
Y4270157D02*
D03*
X2064233D02*
D03*
Y4289842D02*
D03*
%TF.MD5,e25ff7f1ca4b3e90f4cfe63eae1cbf58*%
M02*
