%TF.GenerationSoftware,Altium Limited,Altium Designer,20.2.8 (258)*%
G04 Layer_Color=32896*
%FSLAX26Y26*%
%MOIN*%
%TF.SameCoordinates,C5A62E15-709C-4439-AAC4-A247E21399B6*%
%TF.FilePolarity,Positive*%
%TF.FileFunction,Legend,Bot*%
%TF.Part,Single*%
G01*
G75*
%TA.AperFunction,NonConductor*%
%ADD59C,0.007874*%
G36*
X2860000Y4865962D02*
X2852230D01*
Y4880688D01*
X2844460D01*
Y4865962D01*
X2821002D01*
X2817820Y4866110D01*
X2816340Y4866258D01*
X2814934Y4866480D01*
X2813528Y4866702D01*
X2812270Y4866924D01*
X2811160Y4867220D01*
X2810050Y4867516D01*
X2809088Y4867812D01*
X2808274Y4868108D01*
X2807534Y4868330D01*
X2806868Y4868552D01*
X2806424Y4868774D01*
X2806054Y4868922D01*
X2805832Y4869070D01*
X2805758D01*
X2803464Y4870328D01*
X2802428Y4871068D01*
X2801540Y4871808D01*
X2800652Y4872474D01*
X2799838Y4873214D01*
X2799098Y4873954D01*
X2798432Y4874694D01*
X2797914Y4875360D01*
X2797396Y4875952D01*
X2796952Y4876544D01*
X2796582Y4876988D01*
X2796360Y4877432D01*
X2796138Y4877728D01*
X2795990Y4877876D01*
Y4877950D01*
X2795398Y4879060D01*
X2794880Y4880244D01*
X2793992Y4882538D01*
X2793400Y4884906D01*
X2793030Y4887052D01*
X2792882Y4888014D01*
X2792734Y4888902D01*
X2792660Y4889716D01*
Y4890382D01*
X2792586Y4890974D01*
Y4891344D01*
Y4891640D01*
Y4891714D01*
Y4891862D01*
X2792660Y4894008D01*
X2792956Y4896006D01*
X2793252Y4897856D01*
X2793696Y4899410D01*
X2793918Y4900076D01*
X2794066Y4900742D01*
X2794288Y4901260D01*
X2794436Y4901704D01*
X2794584Y4902074D01*
X2794732Y4902296D01*
X2794806Y4902444D01*
Y4902518D01*
X2795694Y4904220D01*
X2796804Y4905774D01*
X2797840Y4907106D01*
X2798950Y4908290D01*
X2799912Y4909178D01*
X2800652Y4909844D01*
X2800948Y4910140D01*
X2801170Y4910288D01*
X2801318Y4910436D01*
X2801392D01*
X2803094Y4911472D01*
X2804796Y4912360D01*
X2806498Y4913026D01*
X2808126Y4913544D01*
X2809532Y4913914D01*
X2810124Y4914062D01*
X2810642Y4914210D01*
X2811086Y4914284D01*
X2811382D01*
X2811604Y4914358D01*
X2811678D01*
X2809606Y4914802D01*
X2807682Y4915394D01*
X2806054Y4916060D01*
X2804648Y4916726D01*
X2803982Y4917022D01*
X2803464Y4917318D01*
X2803020Y4917614D01*
X2802650Y4917836D01*
X2802280Y4917984D01*
X2802058Y4918132D01*
X2801984Y4918280D01*
X2801910D01*
X2800504Y4919390D01*
X2799246Y4920574D01*
X2798210Y4921832D01*
X2797322Y4922942D01*
X2796656Y4923904D01*
X2796212Y4924718D01*
X2796064Y4925014D01*
X2795916Y4925236D01*
X2795842Y4925310D01*
Y4925384D01*
X2795176Y4927012D01*
X2794658Y4928714D01*
X2794288Y4930268D01*
X2793992Y4931748D01*
X2793844Y4933006D01*
Y4933524D01*
X2793770Y4933968D01*
Y4934338D01*
Y4934634D01*
Y4934782D01*
Y4934856D01*
Y4936336D01*
X2793918Y4937742D01*
X2794288Y4940406D01*
X2794510Y4941590D01*
X2794806Y4942700D01*
X2795102Y4943810D01*
X2795398Y4944772D01*
X2795694Y4945586D01*
X2795990Y4946400D01*
X2796286Y4947066D01*
X2796508Y4947584D01*
X2796730Y4948028D01*
X2796878Y4948324D01*
X2796952Y4948546D01*
X2797026Y4948620D01*
X2797692Y4949656D01*
X2798358Y4950692D01*
X2799838Y4952468D01*
X2801466Y4953948D01*
X2803020Y4955206D01*
X2804352Y4956168D01*
X2805018Y4956538D01*
X2805536Y4956834D01*
X2805980Y4957130D01*
X2806276Y4957278D01*
X2806498Y4957426D01*
X2806572D01*
X2809088Y4958462D01*
X2811678Y4959202D01*
X2814268Y4959720D01*
X2815526Y4959942D01*
X2816710Y4960090D01*
X2817820Y4960238D01*
X2818856Y4960312D01*
X2819818Y4960386D01*
X2820558D01*
X2821224Y4960460D01*
X2844460D01*
Y4945808D01*
X2822334D01*
X2821150Y4945660D01*
X2820040Y4945512D01*
X2819004Y4945364D01*
X2818042Y4945142D01*
X2817228Y4944846D01*
X2816414Y4944550D01*
X2815748Y4944328D01*
X2815082Y4944032D01*
X2814564Y4943736D01*
X2814120Y4943514D01*
X2813750Y4943218D01*
X2813454Y4943070D01*
X2813232Y4942922D01*
X2813158Y4942774D01*
X2813084D01*
X2812418Y4942182D01*
X2811900Y4941516D01*
X2811382Y4940850D01*
X2811012Y4940110D01*
X2810346Y4938630D01*
X2809902Y4937224D01*
X2809680Y4935892D01*
X2809532Y4935374D01*
Y4934856D01*
X2809458Y4934486D01*
Y4934190D01*
Y4933968D01*
Y4933894D01*
Y4932784D01*
X2809606Y4931822D01*
X2809976Y4929972D01*
X2810568Y4928418D01*
X2811160Y4927160D01*
X2811752Y4926198D01*
X2812344Y4925458D01*
X2812714Y4925014D01*
X2812788Y4924940D01*
X2812862Y4924866D01*
X2814268Y4923830D01*
X2815822Y4923090D01*
X2817450Y4922498D01*
X2819078Y4922128D01*
X2820484Y4921906D01*
X2821076Y4921832D01*
X2821668D01*
X2822112Y4921758D01*
X2844460D01*
Y4945808D01*
X2852230D01*
Y4960460D01*
X2860000D01*
Y4865962D01*
D02*
G37*
G36*
X2774012D02*
X2758472D01*
Y4904960D01*
X2767574D01*
Y4919834D01*
X2758472D01*
Y4904960D01*
X2743242D01*
X2722434Y4865962D01*
X2703786D01*
X2726068Y4906216D01*
X2726578Y4906070D01*
X2727762Y4905774D01*
X2729020Y4905478D01*
X2731684Y4905108D01*
X2733090Y4905034D01*
X2734570Y4904960D01*
X2743242D01*
X2744782Y4907846D01*
X2728650Y4910880D01*
X2726068Y4906216D01*
X2725542Y4906366D01*
X2724506Y4906662D01*
X2723618Y4906958D01*
X2722878Y4907254D01*
X2722138Y4907550D01*
X2721546Y4907846D01*
X2721102Y4908068D01*
X2720806Y4908216D01*
X2720584Y4908364D01*
X2720510D01*
X2718364Y4909770D01*
X2716514Y4911324D01*
X2714886Y4912952D01*
X2713554Y4914580D01*
X2712518Y4915986D01*
X2712074Y4916578D01*
X2711704Y4917096D01*
X2711482Y4917540D01*
X2711260Y4917836D01*
X2711112Y4918058D01*
Y4918132D01*
X2710520Y4919316D01*
X2710002Y4920574D01*
X2709114Y4923090D01*
X2708522Y4925532D01*
X2708300Y4926716D01*
X2708152Y4927826D01*
X2708004Y4928862D01*
X2707856Y4929824D01*
X2707782Y4930638D01*
Y4931378D01*
X2707708Y4931970D01*
Y4932414D01*
Y4932710D01*
Y4932784D01*
Y4934338D01*
X2707856Y4935818D01*
X2708226Y4938556D01*
X2708448Y4939814D01*
X2708744Y4941072D01*
X2709040Y4942182D01*
X2709336Y4943218D01*
X2709706Y4944106D01*
X2710002Y4944920D01*
X2710298Y4945660D01*
X2710520Y4946252D01*
X2710742Y4946696D01*
X2710890Y4947066D01*
X2710964Y4947288D01*
X2711038Y4947362D01*
X2712370Y4949582D01*
X2713924Y4951506D01*
X2715478Y4953208D01*
X2716958Y4954540D01*
X2717698Y4955132D01*
X2718364Y4955650D01*
X2718956Y4956094D01*
X2719400Y4956464D01*
X2719844Y4956686D01*
X2720140Y4956908D01*
X2720362Y4956982D01*
X2720436Y4957056D01*
X2721620Y4957648D01*
X2722804Y4958240D01*
X2725172Y4959054D01*
X2727540Y4959720D01*
X2729760Y4960090D01*
X2730796Y4960238D01*
X2731684Y4960386D01*
X2732498Y4960460D01*
X2733238D01*
X2733756Y4960534D01*
X2758472D01*
Y4945660D01*
X2735014D01*
X2733830Y4945586D01*
X2732720Y4945438D01*
X2731684Y4945142D01*
X2730870Y4944846D01*
X2730130Y4944550D01*
X2729612Y4944254D01*
X2729316Y4944106D01*
X2729168Y4944032D01*
X2728280Y4943366D01*
X2727466Y4942700D01*
X2726874Y4941960D01*
X2726282Y4941220D01*
X2725838Y4940554D01*
X2725542Y4940036D01*
X2725394Y4939666D01*
X2725320Y4939518D01*
X2724876Y4938408D01*
X2724506Y4937224D01*
X2724284Y4936114D01*
X2724062Y4935078D01*
X2723988Y4934190D01*
X2723914Y4933450D01*
Y4933154D01*
Y4932932D01*
Y4932858D01*
Y4932784D01*
X2723988Y4931378D01*
X2724210Y4930120D01*
X2724432Y4928936D01*
X2724654Y4927974D01*
X2724950Y4927086D01*
X2725172Y4926494D01*
X2725320Y4926124D01*
X2725394Y4925976D01*
X2725912Y4924940D01*
X2726578Y4923978D01*
X2727170Y4923238D01*
X2727836Y4922572D01*
X2728354Y4922054D01*
X2728798Y4921684D01*
X2729094Y4921462D01*
X2729242Y4921388D01*
X2730204Y4920870D01*
X2731166Y4920500D01*
X2732202Y4920204D01*
X2733090Y4920056D01*
X2733830Y4919908D01*
X2734496Y4919834D01*
X2758472D01*
Y4945660D01*
X2767574D01*
Y4960534D01*
X2774012D01*
Y4865962D01*
D02*
G37*
G36*
X2303890Y4865962D02*
X2288350D01*
Y4904960D01*
X2297452D01*
Y4919834D01*
X2288350D01*
Y4904960D01*
X2273120D01*
X2252312Y4865962D01*
X2233664D01*
X2255946Y4906216D01*
X2256456Y4906070D01*
X2257640Y4905774D01*
X2258898Y4905478D01*
X2261562Y4905108D01*
X2262968Y4905034D01*
X2264448Y4904960D01*
X2273120D01*
X2274660Y4907846D01*
X2258528Y4910880D01*
X2255946Y4906216D01*
X2255420Y4906366D01*
X2254384Y4906662D01*
X2253496Y4906958D01*
X2252756Y4907254D01*
X2252016Y4907550D01*
X2251424Y4907846D01*
X2250980Y4908068D01*
X2250684Y4908216D01*
X2250462Y4908364D01*
X2250388D01*
X2248242Y4909770D01*
X2246392Y4911324D01*
X2244764Y4912952D01*
X2243432Y4914580D01*
X2242396Y4915986D01*
X2241952Y4916578D01*
X2241582Y4917096D01*
X2241360Y4917540D01*
X2241138Y4917836D01*
X2240990Y4918058D01*
Y4918132D01*
X2240398Y4919316D01*
X2239880Y4920574D01*
X2238992Y4923090D01*
X2238400Y4925532D01*
X2238178Y4926716D01*
X2238030Y4927826D01*
X2237882Y4928862D01*
X2237734Y4929824D01*
X2237660Y4930638D01*
Y4931378D01*
X2237586Y4931970D01*
Y4932414D01*
Y4932710D01*
Y4932784D01*
Y4934338D01*
X2237734Y4935818D01*
X2238104Y4938556D01*
X2238326Y4939814D01*
X2238622Y4941072D01*
X2238918Y4942182D01*
X2239214Y4943218D01*
X2239584Y4944106D01*
X2239880Y4944920D01*
X2240176Y4945660D01*
X2240398Y4946252D01*
X2240620Y4946696D01*
X2240768Y4947066D01*
X2240842Y4947288D01*
X2240916Y4947362D01*
X2242248Y4949582D01*
X2243802Y4951506D01*
X2245356Y4953208D01*
X2246836Y4954540D01*
X2247576Y4955132D01*
X2248242Y4955650D01*
X2248834Y4956094D01*
X2249278Y4956464D01*
X2249722Y4956686D01*
X2250018Y4956908D01*
X2250240Y4956982D01*
X2250314Y4957056D01*
X2251498Y4957648D01*
X2252682Y4958240D01*
X2255050Y4959054D01*
X2257418Y4959720D01*
X2259638Y4960090D01*
X2260674Y4960238D01*
X2261562Y4960386D01*
X2262376Y4960460D01*
X2263116D01*
X2263634Y4960534D01*
X2288350D01*
Y4945660D01*
X2264892D01*
X2263708Y4945586D01*
X2262598Y4945438D01*
X2261562Y4945142D01*
X2260748Y4944846D01*
X2260008Y4944550D01*
X2259490Y4944254D01*
X2259194Y4944106D01*
X2259046Y4944032D01*
X2258158Y4943366D01*
X2257344Y4942700D01*
X2256752Y4941960D01*
X2256160Y4941220D01*
X2255716Y4940554D01*
X2255420Y4940036D01*
X2255272Y4939666D01*
X2255198Y4939518D01*
X2254754Y4938408D01*
X2254384Y4937224D01*
X2254162Y4936114D01*
X2253940Y4935078D01*
X2253866Y4934190D01*
X2253792Y4933450D01*
Y4933154D01*
Y4932932D01*
Y4932858D01*
Y4932784D01*
X2253866Y4931378D01*
X2254088Y4930120D01*
X2254310Y4928936D01*
X2254532Y4927974D01*
X2254828Y4927086D01*
X2255050Y4926494D01*
X2255198Y4926124D01*
X2255272Y4925976D01*
X2255790Y4924940D01*
X2256456Y4923978D01*
X2257048Y4923238D01*
X2257714Y4922572D01*
X2258232Y4922054D01*
X2258676Y4921684D01*
X2258972Y4921462D01*
X2259120Y4921388D01*
X2260082Y4920870D01*
X2261044Y4920500D01*
X2262080Y4920204D01*
X2262968Y4920056D01*
X2263708Y4919908D01*
X2264374Y4919834D01*
X2288350D01*
Y4945660D01*
X2297452D01*
Y4960534D01*
X2303890D01*
Y4865962D01*
D02*
G37*
G36*
X2601222Y4865962D02*
X2586126D01*
Y4934920D01*
X2587680Y4937668D01*
X2586126Y4939370D01*
Y4934920D01*
X2547128Y4865962D01*
X2530108D01*
Y4960460D01*
X2545130D01*
Y4890490D01*
X2584350Y4960460D01*
X2601222D01*
Y4865962D01*
D02*
G37*
G36*
X2011812Y4865962D02*
X1996716Y4865962D01*
Y4934920D01*
X1998270Y4937668D01*
X1996716Y4939370D01*
Y4934920D01*
X1957718Y4865962D01*
X1940698D01*
Y4960460D01*
X1955720D01*
Y4890490D01*
X1994940Y4960460D01*
X2011812Y4960460D01*
Y4865962D01*
D02*
G37*
G36*
X1888602Y4961422D02*
X1890452Y4961274D01*
X1892154Y4961052D01*
X1893782Y4960830D01*
X1895336Y4960460D01*
X1896816Y4960090D01*
X1898148Y4959720D01*
X1899406Y4959276D01*
X1900590Y4958832D01*
X1901552Y4958462D01*
X1902440Y4958092D01*
X1903180Y4957722D01*
X1903772Y4957500D01*
X1904142Y4957278D01*
X1904438Y4957130D01*
X1904512Y4957056D01*
X1905918Y4956168D01*
X1907176Y4955280D01*
X1908434Y4954318D01*
X1909544Y4953282D01*
X1910654Y4952246D01*
X1911616Y4951210D01*
X1912504Y4950248D01*
X1913318Y4949212D01*
X1913984Y4948324D01*
X1914650Y4947436D01*
X1915168Y4946696D01*
X1915538Y4946030D01*
X1915908Y4945438D01*
X1916130Y4945068D01*
X1916278Y4944772D01*
X1916352Y4944698D01*
X1917092Y4943144D01*
X1917684Y4941590D01*
X1918276Y4940036D01*
X1918720Y4938408D01*
X1919460Y4935300D01*
X1919756Y4933820D01*
X1919978Y4932414D01*
X1920126Y4931082D01*
X1920274Y4929898D01*
X1920348Y4928788D01*
X1920422Y4927900D01*
X1920496Y4927160D01*
Y4926568D01*
Y4926272D01*
Y4926124D01*
Y4898226D01*
X1920422Y4896376D01*
X1920348Y4894600D01*
X1920126Y4892898D01*
X1919830Y4891344D01*
X1919534Y4889790D01*
X1919164Y4888310D01*
X1918794Y4886978D01*
X1918350Y4885794D01*
X1917980Y4884684D01*
X1917610Y4883648D01*
X1917240Y4882834D01*
X1916944Y4882094D01*
X1916648Y4881502D01*
X1916426Y4881132D01*
X1916352Y4880836D01*
X1916278Y4880762D01*
X1915464Y4879356D01*
X1914502Y4878098D01*
X1913540Y4876914D01*
X1912578Y4875730D01*
X1911616Y4874694D01*
X1910580Y4873732D01*
X1909618Y4872844D01*
X1908656Y4872104D01*
X1907768Y4871364D01*
X1906954Y4870772D01*
X1906214Y4870254D01*
X1905548Y4869810D01*
X1905030Y4869514D01*
X1904660Y4869292D01*
X1904364Y4869144D01*
X1904290Y4869070D01*
X1902810Y4868330D01*
X1901256Y4867738D01*
X1899776Y4867220D01*
X1898222Y4866702D01*
X1895188Y4865962D01*
X1893782Y4865740D01*
X1892450Y4865518D01*
X1891118Y4865370D01*
X1890008Y4865222D01*
X1888972Y4865148D01*
X1888084Y4865074D01*
X1887344Y4865000D01*
X1886382D01*
X1884532Y4865074D01*
X1882756Y4865222D01*
X1880980Y4865370D01*
X1879352Y4865666D01*
X1877798Y4866036D01*
X1876318Y4866406D01*
X1874986Y4866776D01*
X1873728Y4867220D01*
X1872618Y4867590D01*
X1871582Y4867960D01*
X1870694Y4868330D01*
X1869954Y4868700D01*
X1869362Y4868996D01*
X1868992Y4869144D01*
X1868696Y4869292D01*
X1868622Y4869366D01*
X1867216Y4870254D01*
X1865884Y4871142D01*
X1864700Y4872104D01*
X1863516Y4873140D01*
X1862480Y4874176D01*
X1861518Y4875212D01*
X1860630Y4876174D01*
X1859816Y4877210D01*
X1859076Y4878098D01*
X1858484Y4878986D01*
X1857966Y4879726D01*
X1857522Y4880392D01*
X1857226Y4880984D01*
X1857004Y4881354D01*
X1856856Y4881650D01*
X1856782Y4881724D01*
X1856042Y4883278D01*
X1855376Y4884832D01*
X1854858Y4886460D01*
X1854414Y4888014D01*
X1853674Y4891122D01*
X1853378Y4892602D01*
X1853156Y4894008D01*
X1853008Y4895340D01*
X1852860Y4896524D01*
X1852786Y4897634D01*
X1852712Y4898522D01*
X1852638Y4899262D01*
Y4899854D01*
Y4900150D01*
Y4900298D01*
Y4917836D01*
X1885420D01*
Y4902962D01*
X1868622D01*
Y4900076D01*
X1868696Y4897930D01*
X1868992Y4895932D01*
X1869288Y4894156D01*
X1869732Y4892602D01*
X1869954Y4891936D01*
X1870102Y4891344D01*
X1870324Y4890826D01*
X1870472Y4890456D01*
X1870620Y4890086D01*
X1870768Y4889864D01*
X1870842Y4889716D01*
Y4889642D01*
X1871730Y4888088D01*
X1872692Y4886756D01*
X1873728Y4885646D01*
X1874764Y4884684D01*
X1875652Y4883944D01*
X1876392Y4883426D01*
X1876688Y4883204D01*
X1876910Y4883056D01*
X1876984Y4882982D01*
X1877058D01*
X1878612Y4882242D01*
X1880166Y4881650D01*
X1881794Y4881280D01*
X1883200Y4880984D01*
X1884458Y4880836D01*
X1885050Y4880762D01*
X1885494D01*
X1885864Y4880688D01*
X1886382D01*
X1888306Y4880762D01*
X1890156Y4881058D01*
X1891784Y4881354D01*
X1893190Y4881798D01*
X1894300Y4882168D01*
X1894818Y4882316D01*
X1895188Y4882538D01*
X1895484Y4882612D01*
X1895706Y4882760D01*
X1895854Y4882834D01*
X1895928D01*
X1897334Y4883722D01*
X1898592Y4884758D01*
X1899702Y4885720D01*
X1900590Y4886756D01*
X1901330Y4887644D01*
X1901774Y4888310D01*
X1901996Y4888606D01*
X1902144Y4888828D01*
X1902218Y4888902D01*
Y4888976D01*
X1902958Y4890530D01*
X1903476Y4892084D01*
X1903920Y4893638D01*
X1904142Y4895118D01*
X1904290Y4896376D01*
X1904364Y4896894D01*
Y4897338D01*
X1904438Y4897708D01*
Y4898004D01*
Y4898152D01*
Y4898226D01*
Y4926124D01*
X1904364Y4928270D01*
X1904068Y4930194D01*
X1903772Y4931970D01*
X1903328Y4933450D01*
X1903180Y4934116D01*
X1902958Y4934708D01*
X1902810Y4935226D01*
X1902588Y4935596D01*
X1902514Y4935966D01*
X1902366Y4936188D01*
X1902292Y4936336D01*
Y4936410D01*
X1901404Y4938038D01*
X1900368Y4939370D01*
X1899332Y4940628D01*
X1898370Y4941590D01*
X1897482Y4942330D01*
X1896742Y4942922D01*
X1896446Y4943144D01*
X1896224Y4943218D01*
X1896150Y4943366D01*
X1896076D01*
X1894522Y4944180D01*
X1892894Y4944772D01*
X1891340Y4945216D01*
X1889860Y4945512D01*
X1888602Y4945660D01*
X1888084Y4945734D01*
X1887640Y4945808D01*
X1886752D01*
X1885420Y4945734D01*
X1884088Y4945586D01*
X1882904Y4945364D01*
X1881868Y4945068D01*
X1880980Y4944772D01*
X1880314Y4944550D01*
X1879870Y4944402D01*
X1879722Y4944328D01*
X1878464Y4943736D01*
X1877354Y4943070D01*
X1876318Y4942330D01*
X1875504Y4941664D01*
X1874764Y4940998D01*
X1874246Y4940480D01*
X1873950Y4940184D01*
X1873802Y4940036D01*
X1872914Y4939000D01*
X1872174Y4937816D01*
X1871582Y4936706D01*
X1871064Y4935670D01*
X1870694Y4934782D01*
X1870398Y4934042D01*
X1870324Y4933746D01*
X1870250Y4933524D01*
X1870176Y4933450D01*
Y4933376D01*
X1853378D01*
X1854118Y4936410D01*
X1855080Y4939222D01*
X1855598Y4940480D01*
X1856116Y4941738D01*
X1856634Y4942848D01*
X1857152Y4943884D01*
X1857670Y4944846D01*
X1858188Y4945660D01*
X1858558Y4946400D01*
X1859002Y4946992D01*
X1859298Y4947436D01*
X1859520Y4947806D01*
X1859668Y4948028D01*
X1859742Y4948102D01*
X1861592Y4950396D01*
X1863590Y4952394D01*
X1865514Y4954096D01*
X1866476Y4954836D01*
X1867364Y4955502D01*
X1868252Y4956094D01*
X1869066Y4956612D01*
X1869732Y4956982D01*
X1870324Y4957352D01*
X1870842Y4957648D01*
X1871212Y4957870D01*
X1871434Y4957944D01*
X1871508Y4958018D01*
X1872840Y4958610D01*
X1874172Y4959202D01*
X1876836Y4960016D01*
X1879352Y4960682D01*
X1880610Y4960904D01*
X1881720Y4961052D01*
X1882830Y4961200D01*
X1883792Y4961348D01*
X1884606Y4961422D01*
X1885346D01*
X1885938Y4961496D01*
X1886752D01*
X1888602Y4961422D01*
D02*
G37*
G36*
X2478308Y4961422D02*
X2480084Y4961348D01*
X2481860Y4961126D01*
X2483488Y4960830D01*
X2485116Y4960534D01*
X2486596Y4960164D01*
X2487928Y4959720D01*
X2489186Y4959350D01*
X2490296Y4958980D01*
X2491332Y4958536D01*
X2492220Y4958166D01*
X2492960Y4957870D01*
X2493552Y4957574D01*
X2493922Y4957426D01*
X2494218Y4957278D01*
X2494292Y4957204D01*
X2495698Y4956390D01*
X2496956Y4955428D01*
X2498140Y4954466D01*
X2499324Y4953504D01*
X2500360Y4952468D01*
X2501248Y4951432D01*
X2502136Y4950396D01*
X2502950Y4949434D01*
X2503616Y4948546D01*
X2504208Y4947658D01*
X2504726Y4946918D01*
X2505170Y4946252D01*
X2505466Y4945660D01*
X2505688Y4945290D01*
X2505836Y4944994D01*
X2505910Y4944920D01*
X2506576Y4943440D01*
X2507242Y4941812D01*
X2507760Y4940258D01*
X2508204Y4938630D01*
X2508944Y4935522D01*
X2509166Y4933968D01*
X2509388Y4932562D01*
X2509536Y4931230D01*
X2509684Y4929972D01*
X2509758Y4928862D01*
X2509832Y4927974D01*
X2509906Y4927160D01*
Y4926642D01*
Y4926272D01*
Y4926124D01*
Y4900224D01*
X2509832Y4898226D01*
X2509758Y4896302D01*
X2509536Y4894452D01*
X2509314Y4892676D01*
X2508944Y4891048D01*
X2508648Y4889494D01*
X2508278Y4888014D01*
X2507908Y4886682D01*
X2507538Y4885498D01*
X2507168Y4884462D01*
X2506798Y4883574D01*
X2506502Y4882760D01*
X2506280Y4882168D01*
X2506058Y4881724D01*
X2505984Y4881428D01*
X2505910Y4881354D01*
X2505096Y4879948D01*
X2504208Y4878542D01*
X2503320Y4877284D01*
X2502358Y4876100D01*
X2501396Y4875064D01*
X2500434Y4874028D01*
X2499472Y4873140D01*
X2498584Y4872326D01*
X2497696Y4871586D01*
X2496882Y4870994D01*
X2496142Y4870476D01*
X2495550Y4870032D01*
X2495032Y4869662D01*
X2494588Y4869440D01*
X2494366Y4869292D01*
X2494292Y4869218D01*
X2492812Y4868478D01*
X2491332Y4867812D01*
X2489778Y4867294D01*
X2488298Y4866776D01*
X2486744Y4866406D01*
X2485264Y4866036D01*
X2483858Y4865740D01*
X2482452Y4865518D01*
X2481194Y4865370D01*
X2480010Y4865222D01*
X2478974Y4865148D01*
X2478086Y4865074D01*
X2477346Y4865000D01*
X2476384D01*
X2474830Y4865074D01*
X2473276Y4865148D01*
X2470390Y4865592D01*
X2469058Y4865814D01*
X2467800Y4866184D01*
X2466616Y4866480D01*
X2465506Y4866850D01*
X2464470Y4867146D01*
X2463582Y4867516D01*
X2462842Y4867812D01*
X2462176Y4868034D01*
X2461658Y4868330D01*
X2461288Y4868478D01*
X2461066Y4868552D01*
X2460992Y4868626D01*
X2458476Y4870106D01*
X2456256Y4871808D01*
X2455220Y4872696D01*
X2454258Y4873584D01*
X2453370Y4874472D01*
X2452630Y4875286D01*
X2451890Y4876026D01*
X2451298Y4876766D01*
X2450706Y4877432D01*
X2450262Y4878024D01*
X2449892Y4878468D01*
X2449670Y4878838D01*
X2449522Y4879060D01*
X2449448Y4879134D01*
X2447894Y4881798D01*
X2446562Y4884536D01*
X2445452Y4887274D01*
X2445008Y4888532D01*
X2444564Y4889790D01*
X2444268Y4890974D01*
X2443972Y4892010D01*
X2443676Y4892972D01*
X2443528Y4893786D01*
X2443306Y4894452D01*
X2443232Y4894896D01*
X2443158Y4895266D01*
Y4895340D01*
X2459142D01*
X2459586Y4893638D01*
X2460178Y4892084D01*
X2460770Y4890678D01*
X2461436Y4889494D01*
X2461954Y4888532D01*
X2462398Y4887792D01*
X2462694Y4887348D01*
X2462842Y4887274D01*
Y4887200D01*
X2463804Y4886016D01*
X2464840Y4884980D01*
X2465876Y4884092D01*
X2466764Y4883352D01*
X2467578Y4882834D01*
X2468244Y4882390D01*
X2468688Y4882168D01*
X2468762Y4882094D01*
X2468836D01*
X2470168Y4881502D01*
X2471500Y4881132D01*
X2472758Y4880836D01*
X2473942Y4880614D01*
X2474904Y4880466D01*
X2475718Y4880392D01*
X2476384D01*
X2478308Y4880466D01*
X2480084Y4880762D01*
X2481712Y4881132D01*
X2483044Y4881576D01*
X2484154Y4882020D01*
X2484598Y4882242D01*
X2485042Y4882390D01*
X2485338Y4882538D01*
X2485560Y4882686D01*
X2485634Y4882760D01*
X2485708D01*
X2487114Y4883796D01*
X2488298Y4884832D01*
X2489334Y4886016D01*
X2490222Y4887126D01*
X2490888Y4888088D01*
X2491406Y4888902D01*
X2491554Y4889198D01*
X2491702Y4889420D01*
X2491776Y4889568D01*
Y4889642D01*
X2492442Y4891418D01*
X2492960Y4893194D01*
X2493330Y4894970D01*
X2493552Y4896598D01*
X2493700Y4897412D01*
Y4898078D01*
X2493774Y4898670D01*
X2493848Y4899188D01*
Y4899632D01*
Y4899928D01*
Y4900150D01*
Y4900224D01*
Y4926124D01*
X2493774Y4928344D01*
X2493552Y4930342D01*
X2493182Y4932192D01*
X2492812Y4933746D01*
X2492590Y4934412D01*
X2492442Y4935004D01*
X2492220Y4935522D01*
X2492072Y4935892D01*
X2491998Y4936262D01*
X2491850Y4936484D01*
X2491776Y4936632D01*
Y4936706D01*
X2490888Y4938334D01*
X2489926Y4939666D01*
X2488890Y4940924D01*
X2487928Y4941886D01*
X2487040Y4942626D01*
X2486374Y4943218D01*
X2486078Y4943440D01*
X2485856Y4943514D01*
X2485782Y4943662D01*
X2485708D01*
X2484154Y4944476D01*
X2482600Y4945068D01*
X2481046Y4945512D01*
X2479566Y4945808D01*
X2478308Y4945956D01*
X2477790Y4946030D01*
X2477272Y4946104D01*
X2476384D01*
X2474904Y4946030D01*
X2473498Y4945808D01*
X2472240Y4945512D01*
X2471056Y4945216D01*
X2470168Y4944846D01*
X2469428Y4944550D01*
X2468984Y4944328D01*
X2468910Y4944254D01*
X2468836D01*
X2467578Y4943514D01*
X2466394Y4942700D01*
X2465432Y4941812D01*
X2464544Y4940998D01*
X2463804Y4940258D01*
X2463286Y4939666D01*
X2462990Y4939222D01*
X2462842Y4939148D01*
Y4939074D01*
X2461954Y4937742D01*
X2461214Y4936410D01*
X2460548Y4935078D01*
X2460030Y4933820D01*
X2459660Y4932710D01*
X2459364Y4931822D01*
X2459290Y4931526D01*
X2459216Y4931304D01*
X2459142Y4931156D01*
Y4931082D01*
X2443158D01*
X2443898Y4934486D01*
X2444342Y4936040D01*
X2444860Y4937594D01*
X2445378Y4939000D01*
X2445896Y4940332D01*
X2446414Y4941590D01*
X2446932Y4942700D01*
X2447450Y4943736D01*
X2447894Y4944624D01*
X2448338Y4945438D01*
X2448708Y4946104D01*
X2449004Y4946622D01*
X2449226Y4946992D01*
X2449374Y4947214D01*
X2449448Y4947288D01*
X2450336Y4948546D01*
X2451224Y4949730D01*
X2452186Y4950840D01*
X2453148Y4951802D01*
X2454184Y4952764D01*
X2455146Y4953652D01*
X2456034Y4954392D01*
X2456922Y4955132D01*
X2457810Y4955724D01*
X2458550Y4956316D01*
X2459216Y4956760D01*
X2459808Y4957130D01*
X2460326Y4957426D01*
X2460696Y4957648D01*
X2460918Y4957722D01*
X2460992Y4957796D01*
X2462324Y4958462D01*
X2463656Y4959054D01*
X2464988Y4959498D01*
X2466320Y4959942D01*
X2468910Y4960608D01*
X2470094Y4960830D01*
X2471278Y4961052D01*
X2472314Y4961200D01*
X2473350Y4961274D01*
X2474164Y4961422D01*
X2474978D01*
X2475570Y4961496D01*
X2476384D01*
X2478308Y4961422D01*
D02*
G37*
G36*
X2101204D02*
X2102980Y4961348D01*
X2104756Y4961126D01*
X2106384Y4960830D01*
X2108012Y4960534D01*
X2109492Y4960164D01*
X2110824Y4959720D01*
X2112082Y4959350D01*
X2113192Y4958980D01*
X2114228Y4958536D01*
X2115116Y4958166D01*
X2115856Y4957870D01*
X2116448Y4957574D01*
X2116818Y4957426D01*
X2117114Y4957278D01*
X2117188Y4957204D01*
X2118594Y4956390D01*
X2119852Y4955428D01*
X2121036Y4954466D01*
X2122220Y4953504D01*
X2123256Y4952468D01*
X2124144Y4951432D01*
X2125032Y4950396D01*
X2125846Y4949434D01*
X2126512Y4948546D01*
X2127104Y4947658D01*
X2127622Y4946918D01*
X2128066Y4946252D01*
X2128362Y4945660D01*
X2128584Y4945290D01*
X2128732Y4944994D01*
X2128806Y4944920D01*
X2129472Y4943440D01*
X2130138Y4941812D01*
X2130656Y4940258D01*
X2131100Y4938630D01*
X2131840Y4935522D01*
X2132062Y4933968D01*
X2132284Y4932562D01*
X2132432Y4931230D01*
X2132580Y4929972D01*
X2132654Y4928862D01*
X2132728Y4927974D01*
X2132802Y4927160D01*
Y4926642D01*
Y4926272D01*
Y4926124D01*
Y4900224D01*
X2132728Y4898226D01*
X2132654Y4896302D01*
X2132432Y4894452D01*
X2132210Y4892676D01*
X2131840Y4891048D01*
X2131544Y4889494D01*
X2131174Y4888014D01*
X2130804Y4886682D01*
X2130434Y4885498D01*
X2130064Y4884462D01*
X2129694Y4883574D01*
X2129398Y4882760D01*
X2129176Y4882168D01*
X2128954Y4881724D01*
X2128880Y4881428D01*
X2128806Y4881354D01*
X2127992Y4879948D01*
X2127104Y4878542D01*
X2126216Y4877284D01*
X2125254Y4876100D01*
X2124292Y4875064D01*
X2123330Y4874028D01*
X2122368Y4873140D01*
X2121480Y4872326D01*
X2120592Y4871586D01*
X2119778Y4870994D01*
X2119038Y4870476D01*
X2118446Y4870032D01*
X2117928Y4869662D01*
X2117484Y4869440D01*
X2117262Y4869292D01*
X2117188Y4869218D01*
X2115708Y4868478D01*
X2114228Y4867812D01*
X2112674Y4867294D01*
X2111194Y4866776D01*
X2109640Y4866406D01*
X2108160Y4866036D01*
X2106754Y4865740D01*
X2105348Y4865518D01*
X2104090Y4865370D01*
X2102906Y4865222D01*
X2101870Y4865148D01*
X2100982Y4865074D01*
X2100242Y4865000D01*
X2099280D01*
X2097726Y4865074D01*
X2096172Y4865148D01*
X2093286Y4865592D01*
X2091954Y4865814D01*
X2090696Y4866184D01*
X2089512Y4866480D01*
X2088402Y4866850D01*
X2087366Y4867146D01*
X2086478Y4867516D01*
X2085738Y4867812D01*
X2085072Y4868034D01*
X2084554Y4868330D01*
X2084184Y4868478D01*
X2083962Y4868552D01*
X2083888Y4868626D01*
X2081372Y4870106D01*
X2079152Y4871808D01*
X2078116Y4872696D01*
X2077154Y4873584D01*
X2076266Y4874472D01*
X2075526Y4875286D01*
X2074786Y4876026D01*
X2074194Y4876766D01*
X2073602Y4877432D01*
X2073158Y4878024D01*
X2072788Y4878468D01*
X2072566Y4878838D01*
X2072418Y4879060D01*
X2072344Y4879134D01*
X2070790Y4881798D01*
X2069458Y4884536D01*
X2068348Y4887274D01*
X2067904Y4888532D01*
X2067460Y4889790D01*
X2067164Y4890974D01*
X2066868Y4892010D01*
X2066572Y4892972D01*
X2066424Y4893786D01*
X2066202Y4894452D01*
X2066128Y4894896D01*
X2066054Y4895266D01*
Y4895340D01*
X2082038D01*
X2082482Y4893638D01*
X2083074Y4892084D01*
X2083666Y4890678D01*
X2084332Y4889494D01*
X2084850Y4888532D01*
X2085294Y4887792D01*
X2085590Y4887348D01*
X2085738Y4887274D01*
Y4887200D01*
X2086700Y4886016D01*
X2087736Y4884980D01*
X2088772Y4884092D01*
X2089660Y4883352D01*
X2090474Y4882834D01*
X2091140Y4882390D01*
X2091584Y4882168D01*
X2091658Y4882094D01*
X2091732D01*
X2093064Y4881502D01*
X2094396Y4881132D01*
X2095654Y4880836D01*
X2096838Y4880614D01*
X2097800Y4880466D01*
X2098614Y4880392D01*
X2099280D01*
X2101204Y4880466D01*
X2102980Y4880762D01*
X2104608Y4881132D01*
X2105940Y4881576D01*
X2107050Y4882020D01*
X2107494Y4882242D01*
X2107938Y4882390D01*
X2108234Y4882538D01*
X2108456Y4882686D01*
X2108530Y4882760D01*
X2108604D01*
X2110010Y4883796D01*
X2111194Y4884832D01*
X2112230Y4886016D01*
X2113118Y4887126D01*
X2113784Y4888088D01*
X2114302Y4888902D01*
X2114450Y4889198D01*
X2114598Y4889420D01*
X2114672Y4889568D01*
Y4889642D01*
X2115338Y4891418D01*
X2115856Y4893194D01*
X2116226Y4894970D01*
X2116448Y4896598D01*
X2116596Y4897412D01*
Y4898078D01*
X2116670Y4898670D01*
X2116744Y4899188D01*
Y4899632D01*
Y4899928D01*
Y4900150D01*
Y4900224D01*
Y4926124D01*
X2116670Y4928344D01*
X2116448Y4930342D01*
X2116078Y4932192D01*
X2115708Y4933746D01*
X2115486Y4934412D01*
X2115338Y4935004D01*
X2115116Y4935522D01*
X2114968Y4935892D01*
X2114894Y4936262D01*
X2114746Y4936484D01*
X2114672Y4936632D01*
Y4936706D01*
X2113784Y4938334D01*
X2112822Y4939666D01*
X2111786Y4940924D01*
X2110824Y4941886D01*
X2109936Y4942626D01*
X2109270Y4943218D01*
X2108974Y4943440D01*
X2108752Y4943514D01*
X2108678Y4943662D01*
X2108604D01*
X2107050Y4944476D01*
X2105496Y4945068D01*
X2103942Y4945512D01*
X2102462Y4945808D01*
X2101204Y4945956D01*
X2100686Y4946030D01*
X2100168Y4946104D01*
X2099280D01*
X2097800Y4946030D01*
X2096394Y4945808D01*
X2095136Y4945512D01*
X2093952Y4945216D01*
X2093064Y4944846D01*
X2092324Y4944550D01*
X2091880Y4944328D01*
X2091806Y4944254D01*
X2091732D01*
X2090474Y4943514D01*
X2089290Y4942700D01*
X2088328Y4941812D01*
X2087440Y4940998D01*
X2086700Y4940258D01*
X2086182Y4939666D01*
X2085886Y4939222D01*
X2085738Y4939148D01*
Y4939074D01*
X2084850Y4937742D01*
X2084110Y4936410D01*
X2083444Y4935078D01*
X2082926Y4933820D01*
X2082556Y4932710D01*
X2082260Y4931822D01*
X2082186Y4931526D01*
X2082112Y4931304D01*
X2082038Y4931156D01*
Y4931082D01*
X2066054D01*
X2066794Y4934486D01*
X2067238Y4936040D01*
X2067756Y4937594D01*
X2068274Y4939000D01*
X2068792Y4940332D01*
X2069310Y4941590D01*
X2069828Y4942700D01*
X2070346Y4943736D01*
X2070790Y4944624D01*
X2071234Y4945438D01*
X2071604Y4946104D01*
X2071900Y4946622D01*
X2072122Y4946992D01*
X2072270Y4947214D01*
X2072344Y4947288D01*
X2073232Y4948546D01*
X2074120Y4949730D01*
X2075082Y4950840D01*
X2076044Y4951802D01*
X2077080Y4952764D01*
X2078042Y4953652D01*
X2078930Y4954392D01*
X2079818Y4955132D01*
X2080706Y4955724D01*
X2081446Y4956316D01*
X2082112Y4956760D01*
X2082704Y4957130D01*
X2083222Y4957426D01*
X2083592Y4957648D01*
X2083814Y4957722D01*
X2083888Y4957796D01*
X2085220Y4958462D01*
X2086552Y4959054D01*
X2087884Y4959498D01*
X2089216Y4959942D01*
X2091806Y4960608D01*
X2092990Y4960830D01*
X2094174Y4961052D01*
X2095210Y4961200D01*
X2096246Y4961274D01*
X2097060Y4961422D01*
X2097874D01*
X2098466Y4961496D01*
X2099280D01*
X2101204Y4961422D01*
D02*
G37*
G36*
X2226190Y4865962D02*
X2209392D01*
X2203197Y4883870D01*
X2209466D01*
Y4898744D01*
X2198051D01*
X2203197Y4883870D01*
X2166785D01*
X2160552Y4865962D01*
X2143828D01*
X2179348Y4960460D01*
X2190670D01*
X2226190Y4865962D01*
D02*
G37*
G36*
X2049182D02*
X2033272D01*
Y4960460D01*
X2049182D01*
Y4865962D01*
D02*
G37*
G36*
X2657166Y4961422D02*
X2658942Y4961274D01*
X2660718Y4961126D01*
X2662346Y4960830D01*
X2663900Y4960460D01*
X2665380Y4960090D01*
X2666712Y4959720D01*
X2667970Y4959350D01*
X2669080Y4958906D01*
X2670116Y4958536D01*
X2671004Y4958166D01*
X2671744Y4957796D01*
X2672262Y4957500D01*
X2672706Y4957352D01*
X2673002Y4957204D01*
X2673076Y4957130D01*
X2674482Y4956316D01*
X2675740Y4955354D01*
X2676998Y4954392D01*
X2678108Y4953430D01*
X2679218Y4952394D01*
X2680180Y4951358D01*
X2681068Y4950396D01*
X2681882Y4949434D01*
X2682548Y4948472D01*
X2683214Y4947658D01*
X2683732Y4946918D01*
X2684102Y4946252D01*
X2684472Y4945660D01*
X2684694Y4945290D01*
X2684842Y4944994D01*
X2684916Y4944920D01*
X2685656Y4943440D01*
X2686322Y4941886D01*
X2686840Y4940332D01*
X2687358Y4938704D01*
X2687728Y4937150D01*
X2688098Y4935670D01*
X2688394Y4934190D01*
X2688616Y4932784D01*
X2688764Y4931526D01*
X2688912Y4930342D01*
X2688986Y4929306D01*
X2689060Y4928418D01*
X2689134Y4927678D01*
Y4927086D01*
Y4926790D01*
Y4926642D01*
Y4899780D01*
X2689060Y4897856D01*
X2688986Y4896006D01*
X2688764Y4894230D01*
X2688468Y4892528D01*
X2688172Y4890974D01*
X2687802Y4889420D01*
X2687432Y4888014D01*
X2686988Y4886756D01*
X2686618Y4885572D01*
X2686248Y4884536D01*
X2685878Y4883648D01*
X2685582Y4882908D01*
X2685286Y4882316D01*
X2685064Y4881872D01*
X2684990Y4881576D01*
X2684916Y4881502D01*
X2684102Y4880096D01*
X2683214Y4878690D01*
X2682252Y4877432D01*
X2681290Y4876248D01*
X2680328Y4875138D01*
X2679292Y4874176D01*
X2678330Y4873214D01*
X2677442Y4872400D01*
X2676554Y4871734D01*
X2675740Y4871068D01*
X2675000Y4870550D01*
X2674334Y4870106D01*
X2673816Y4869736D01*
X2673446Y4869514D01*
X2673150Y4869366D01*
X2673076Y4869292D01*
X2671596Y4868552D01*
X2670116Y4867886D01*
X2668562Y4867294D01*
X2667082Y4866850D01*
X2665528Y4866406D01*
X2664048Y4866036D01*
X2662642Y4865740D01*
X2661310Y4865518D01*
X2660052Y4865370D01*
X2658868Y4865222D01*
X2657906Y4865148D01*
X2657018Y4865074D01*
X2656278Y4865000D01*
X2655316D01*
X2653466Y4865074D01*
X2651616Y4865222D01*
X2649914Y4865370D01*
X2648286Y4865666D01*
X2646658Y4865962D01*
X2645252Y4866332D01*
X2643846Y4866776D01*
X2642588Y4867146D01*
X2641478Y4867516D01*
X2640442Y4867960D01*
X2639554Y4868330D01*
X2638814Y4868626D01*
X2638222Y4868922D01*
X2637852Y4869144D01*
X2637556Y4869218D01*
X2637482Y4869292D01*
X2636076Y4870106D01*
X2634744Y4871068D01*
X2633560Y4872030D01*
X2632376Y4872992D01*
X2631340Y4874028D01*
X2630378Y4875064D01*
X2629490Y4876026D01*
X2628676Y4876988D01*
X2627936Y4877950D01*
X2627344Y4878764D01*
X2626826Y4879504D01*
X2626382Y4880170D01*
X2626086Y4880762D01*
X2625864Y4881132D01*
X2625716Y4881428D01*
X2625642Y4881502D01*
X2624902Y4882982D01*
X2624236Y4884536D01*
X2623718Y4886164D01*
X2623200Y4887718D01*
X2622756Y4889272D01*
X2622460Y4890752D01*
X2622164Y4892232D01*
X2621942Y4893638D01*
X2621794Y4894896D01*
X2621646Y4896080D01*
X2621572Y4897116D01*
X2621498Y4898004D01*
X2621424Y4898744D01*
Y4899336D01*
Y4899632D01*
Y4899780D01*
Y4926642D01*
X2621498Y4928566D01*
X2621572Y4930416D01*
X2621794Y4932192D01*
X2622090Y4933894D01*
X2622386Y4935448D01*
X2622756Y4937002D01*
X2623126Y4938408D01*
X2623496Y4939666D01*
X2623940Y4940850D01*
X2624310Y4941886D01*
X2624680Y4942774D01*
X2624976Y4943514D01*
X2625272Y4944106D01*
X2625494Y4944550D01*
X2625568Y4944846D01*
X2625642Y4944920D01*
X2626456Y4946400D01*
X2627344Y4947732D01*
X2628306Y4948990D01*
X2629268Y4950174D01*
X2630230Y4951284D01*
X2631192Y4952246D01*
X2632154Y4953208D01*
X2633116Y4954022D01*
X2634004Y4954688D01*
X2634818Y4955354D01*
X2635558Y4955872D01*
X2636224Y4956316D01*
X2636742Y4956686D01*
X2637112Y4956908D01*
X2637408Y4957056D01*
X2637482Y4957130D01*
X2638962Y4957870D01*
X2640442Y4958610D01*
X2641996Y4959128D01*
X2643476Y4959646D01*
X2645030Y4960090D01*
X2646510Y4960460D01*
X2647916Y4960756D01*
X2649248Y4960978D01*
X2650580Y4961126D01*
X2651690Y4961274D01*
X2652726Y4961348D01*
X2653614Y4961422D01*
X2654354Y4961496D01*
X2655316D01*
X2657166Y4961422D01*
D02*
G37*
G36*
X2395576Y4961422D02*
X2397352Y4961274D01*
X2399128Y4961126D01*
X2400756Y4960830D01*
X2402310Y4960460D01*
X2403790Y4960090D01*
X2405122Y4959720D01*
X2406380Y4959350D01*
X2407490Y4958906D01*
X2408526Y4958536D01*
X2409414Y4958166D01*
X2410154Y4957796D01*
X2410672Y4957500D01*
X2411116Y4957352D01*
X2411412Y4957204D01*
X2411486Y4957130D01*
X2412892Y4956316D01*
X2414150Y4955354D01*
X2415408Y4954392D01*
X2416518Y4953430D01*
X2417628Y4952394D01*
X2418590Y4951358D01*
X2419478Y4950396D01*
X2420292Y4949434D01*
X2420958Y4948472D01*
X2421624Y4947658D01*
X2422142Y4946918D01*
X2422512Y4946252D01*
X2422882Y4945660D01*
X2423104Y4945290D01*
X2423252Y4944994D01*
X2423326Y4944920D01*
X2424066Y4943440D01*
X2424732Y4941886D01*
X2425250Y4940332D01*
X2425768Y4938704D01*
X2426138Y4937150D01*
X2426508Y4935670D01*
X2426804Y4934190D01*
X2427026Y4932784D01*
X2427174Y4931526D01*
X2427322Y4930342D01*
X2427396Y4929306D01*
X2427470Y4928418D01*
X2427544Y4927678D01*
Y4927086D01*
Y4926790D01*
Y4926642D01*
Y4899780D01*
X2427470Y4897856D01*
X2427396Y4896006D01*
X2427174Y4894230D01*
X2426878Y4892528D01*
X2426582Y4890974D01*
X2426212Y4889420D01*
X2425842Y4888014D01*
X2425398Y4886756D01*
X2425028Y4885572D01*
X2424658Y4884536D01*
X2424288Y4883648D01*
X2423992Y4882908D01*
X2423696Y4882316D01*
X2423474Y4881872D01*
X2423400Y4881576D01*
X2423326Y4881502D01*
X2422512Y4880096D01*
X2421624Y4878690D01*
X2420662Y4877432D01*
X2419700Y4876248D01*
X2418738Y4875138D01*
X2417702Y4874176D01*
X2416740Y4873214D01*
X2415852Y4872400D01*
X2414964Y4871734D01*
X2414150Y4871068D01*
X2413410Y4870550D01*
X2412744Y4870106D01*
X2412226Y4869736D01*
X2411856Y4869514D01*
X2411560Y4869366D01*
X2411486Y4869292D01*
X2410006Y4868552D01*
X2408526Y4867886D01*
X2406972Y4867294D01*
X2405492Y4866850D01*
X2403938Y4866406D01*
X2402458Y4866036D01*
X2401052Y4865740D01*
X2399720Y4865518D01*
X2398462Y4865370D01*
X2397278Y4865222D01*
X2396316Y4865148D01*
X2395428Y4865074D01*
X2394688Y4865000D01*
X2393726D01*
X2391876Y4865074D01*
X2390026Y4865222D01*
X2388324Y4865370D01*
X2386696Y4865666D01*
X2385068Y4865962D01*
X2383662Y4866332D01*
X2382256Y4866776D01*
X2380998Y4867146D01*
X2379888Y4867516D01*
X2378852Y4867960D01*
X2377964Y4868330D01*
X2377224Y4868626D01*
X2376632Y4868922D01*
X2376262Y4869144D01*
X2375966Y4869218D01*
X2375892Y4869292D01*
X2374486Y4870106D01*
X2373154Y4871068D01*
X2371970Y4872030D01*
X2370786Y4872992D01*
X2369750Y4874028D01*
X2368788Y4875064D01*
X2367900Y4876026D01*
X2367086Y4876988D01*
X2366346Y4877950D01*
X2365754Y4878764D01*
X2365236Y4879504D01*
X2364792Y4880170D01*
X2364496Y4880762D01*
X2364274Y4881132D01*
X2364126Y4881428D01*
X2364052Y4881502D01*
X2363312Y4882982D01*
X2362646Y4884536D01*
X2362128Y4886164D01*
X2361610Y4887718D01*
X2361166Y4889272D01*
X2360870Y4890752D01*
X2360574Y4892232D01*
X2360352Y4893638D01*
X2360204Y4894896D01*
X2360056Y4896080D01*
X2359982Y4897116D01*
X2359908Y4898004D01*
X2359834Y4898744D01*
Y4899336D01*
Y4899632D01*
Y4899780D01*
Y4926642D01*
X2359908Y4928566D01*
X2359982Y4930416D01*
X2360204Y4932192D01*
X2360500Y4933894D01*
X2360796Y4935448D01*
X2361166Y4937002D01*
X2361536Y4938408D01*
X2361906Y4939666D01*
X2362350Y4940850D01*
X2362720Y4941886D01*
X2363090Y4942774D01*
X2363386Y4943514D01*
X2363682Y4944106D01*
X2363904Y4944550D01*
X2363978Y4944846D01*
X2364052Y4944920D01*
X2364866Y4946400D01*
X2365754Y4947732D01*
X2366716Y4948990D01*
X2367678Y4950174D01*
X2368640Y4951284D01*
X2369602Y4952246D01*
X2370564Y4953208D01*
X2371526Y4954022D01*
X2372414Y4954688D01*
X2373228Y4955354D01*
X2373968Y4955872D01*
X2374634Y4956316D01*
X2375152Y4956686D01*
X2375522Y4956908D01*
X2375818Y4957056D01*
X2375892Y4957130D01*
X2377372Y4957870D01*
X2378852Y4958610D01*
X2380406Y4959128D01*
X2381886Y4959646D01*
X2383440Y4960090D01*
X2384920Y4960460D01*
X2386326Y4960756D01*
X2387658Y4960978D01*
X2388990Y4961126D01*
X2390100Y4961274D01*
X2391136Y4961348D01*
X2392024Y4961422D01*
X2392764Y4961496D01*
X2393726D01*
X2395576Y4961422D01*
D02*
G37*
G36*
X1712416Y3960754D02*
X1712312Y3960414D01*
X1712220Y3960061D01*
X1712089Y3959328D01*
X1712011Y3958595D01*
X1711985Y3958229D01*
X1711959Y3957889D01*
Y3957575D01*
X1711946Y3957274D01*
Y3957012D01*
Y3956777D01*
Y3956594D01*
Y3956463D01*
X1711959Y3956372D01*
Y3956345D01*
X1712050Y3955364D01*
X1712207Y3954396D01*
X1712390Y3953481D01*
X1712495Y3953062D01*
X1712586Y3952656D01*
X1712678Y3952303D01*
X1712770Y3951976D01*
X1712861Y3951675D01*
X1712940Y3951440D01*
X1713005Y3951244D01*
X1713057Y3951087D01*
X1713084Y3951008D01*
X1713097Y3950969D01*
X1710951Y3948823D01*
X1710716Y3949373D01*
X1710494Y3949962D01*
X1710284Y3950537D01*
X1710101Y3951087D01*
X1710036Y3951335D01*
X1709957Y3951571D01*
X1709905Y3951780D01*
X1709866Y3951950D01*
X1709813Y3952081D01*
X1709774Y3952198D01*
X1709761Y3952264D01*
Y3952290D01*
X1709578Y3953049D01*
X1709512Y3953402D01*
X1709434Y3953742D01*
X1709395Y3954069D01*
X1709342Y3954357D01*
X1709316Y3954645D01*
X1709264Y3954906D01*
X1709251Y3955129D01*
X1709225Y3955338D01*
X1709211Y3955534D01*
X1709198Y3955678D01*
X1709185Y3955796D01*
Y3955874D01*
Y3955927D01*
Y3955953D01*
X1695031Y3941799D01*
X1692807Y3944023D01*
X1710977Y3962193D01*
X1712416Y3960754D01*
D02*
G37*
G36*
X1723326Y3949713D02*
X1721495Y3940870D01*
X1721273Y3939810D01*
X1721155Y3939300D01*
X1721050Y3938829D01*
X1720932Y3938371D01*
X1720828Y3937953D01*
X1720749Y3937560D01*
X1720658Y3937207D01*
X1720579Y3936867D01*
X1720501Y3936579D01*
X1720448Y3936318D01*
X1720396Y3936108D01*
X1720357Y3935938D01*
X1720318Y3935820D01*
X1720292Y3935742D01*
Y3935716D01*
X1721168Y3935964D01*
X1722044Y3936187D01*
X1722463Y3936291D01*
X1722882Y3936396D01*
X1723261Y3936488D01*
X1723614Y3936579D01*
X1723954Y3936658D01*
X1724255Y3936723D01*
X1724517Y3936776D01*
X1724752Y3936828D01*
X1724922Y3936867D01*
X1725079Y3936893D01*
X1725158Y3936919D01*
X1725184D01*
X1734210Y3938829D01*
X1737127Y3935912D01*
X1719716Y3932445D01*
X1712050Y3924780D01*
X1709656Y3927174D01*
X1717322Y3934839D01*
X1720540Y3952499D01*
X1723326Y3949713D01*
D02*
G37*
G36*
X1784167Y3868768D02*
X1776619Y3857715D01*
X1774251Y3859533D01*
X1774329Y3860004D01*
X1774355Y3860475D01*
X1774342Y3860906D01*
X1774316Y3861299D01*
X1774264Y3861639D01*
X1774211Y3861901D01*
X1774185Y3862005D01*
X1774172Y3862071D01*
Y3862123D01*
X1774159Y3862136D01*
X1774002Y3862633D01*
X1773780Y3863091D01*
X1773544Y3863510D01*
X1773296Y3863863D01*
X1773178Y3864033D01*
X1773073Y3864164D01*
X1772969Y3864294D01*
X1772877Y3864386D01*
X1772812Y3864478D01*
X1772707Y3864582D01*
X1772380Y3864883D01*
X1772040Y3865145D01*
X1771700Y3865380D01*
X1771360Y3865590D01*
X1771033Y3865760D01*
X1770706Y3865877D01*
X1770405Y3865995D01*
X1770104Y3866087D01*
X1769829Y3866152D01*
X1769594Y3866204D01*
X1769371Y3866244D01*
X1769175Y3866257D01*
X1769018Y3866283D01*
X1768914D01*
X1768835D01*
X1768809D01*
X1768416Y3866257D01*
X1768011Y3866191D01*
X1767631Y3866100D01*
X1767265Y3865969D01*
X1766899Y3865812D01*
X1766559Y3865655D01*
X1766258Y3865485D01*
X1765957Y3865315D01*
X1765682Y3865119D01*
X1765447Y3864962D01*
X1765225Y3864792D01*
X1765054Y3864648D01*
X1764924Y3864517D01*
X1764806Y3864425D01*
X1764754Y3864373D01*
X1764727Y3864347D01*
X1764374Y3863967D01*
X1764073Y3863588D01*
X1763799Y3863209D01*
X1763550Y3862829D01*
X1763354Y3862450D01*
X1763184Y3862097D01*
X1763053Y3861757D01*
X1762922Y3861443D01*
X1762831Y3861142D01*
X1762765Y3860867D01*
X1762713Y3860632D01*
X1762687Y3860422D01*
X1762660Y3860265D01*
X1762634Y3860135D01*
Y3860056D01*
Y3860030D01*
Y3859611D01*
X1762674Y3859206D01*
X1762739Y3858800D01*
X1762831Y3858447D01*
X1762948Y3858094D01*
X1763066Y3857767D01*
X1763210Y3857466D01*
X1763367Y3857204D01*
X1763511Y3856956D01*
X1763655Y3856733D01*
X1763799Y3856537D01*
X1763903Y3856380D01*
X1764021Y3856262D01*
X1764086Y3856171D01*
X1764165Y3856092D01*
X1764427Y3855857D01*
X1764688Y3855648D01*
X1764950Y3855465D01*
X1765211Y3855307D01*
X1765486Y3855164D01*
X1765748Y3855059D01*
X1765996Y3854941D01*
X1766245Y3854876D01*
X1766467Y3854810D01*
X1766650Y3854758D01*
X1766847Y3854719D01*
X1767004Y3854693D01*
X1767134Y3854666D01*
X1767226Y3854653D01*
X1767278D01*
X1767304D01*
X1767645D01*
X1767985Y3854680D01*
X1768312Y3854745D01*
X1768652Y3854823D01*
X1768966Y3854928D01*
X1769280Y3855059D01*
X1769842Y3855307D01*
X1770104Y3855438D01*
X1770339Y3855569D01*
X1770549Y3855700D01*
X1770732Y3855805D01*
X1770876Y3855896D01*
X1770967Y3855962D01*
X1771046Y3856014D01*
X1771059Y3856027D01*
X1773191Y3853502D01*
X1772720Y3853136D01*
X1772236Y3852835D01*
X1771752Y3852560D01*
X1771281Y3852325D01*
X1770810Y3852142D01*
X1770352Y3851998D01*
X1769934Y3851867D01*
X1769528Y3851776D01*
X1769149Y3851710D01*
X1768809Y3851658D01*
X1768495Y3851632D01*
X1768233Y3851605D01*
X1768024D01*
X1767867D01*
X1767762D01*
X1767736D01*
X1767200Y3851671D01*
X1766663Y3851762D01*
X1766140Y3851919D01*
X1765656Y3852090D01*
X1765185Y3852299D01*
X1764741Y3852534D01*
X1764322Y3852770D01*
X1763929Y3853005D01*
X1763589Y3853241D01*
X1763275Y3853476D01*
X1762988Y3853685D01*
X1762765Y3853882D01*
X1762582Y3854039D01*
X1762438Y3854156D01*
X1762333Y3854261D01*
X1761810Y3854837D01*
X1761352Y3855425D01*
X1760986Y3856027D01*
X1760659Y3856616D01*
X1760397Y3857217D01*
X1760188Y3857793D01*
X1760031Y3858342D01*
X1759913Y3858879D01*
X1759835Y3859376D01*
X1759783Y3859821D01*
X1759756Y3860213D01*
X1759743Y3860566D01*
X1759756Y3860841D01*
Y3861050D01*
X1759770Y3861168D01*
Y3861220D01*
X1759861Y3861809D01*
X1759992Y3862385D01*
X1760149Y3862934D01*
X1760345Y3863470D01*
X1760568Y3863954D01*
X1760803Y3864425D01*
X1761052Y3864857D01*
X1761300Y3865262D01*
X1761535Y3865629D01*
X1761771Y3865943D01*
X1761980Y3866231D01*
X1762190Y3866466D01*
X1762347Y3866649D01*
X1762464Y3866793D01*
X1762504Y3866832D01*
X1762543Y3866872D01*
X1762556Y3866885D01*
X1762569Y3866898D01*
X1763053Y3867356D01*
X1763550Y3867748D01*
X1764073Y3868088D01*
X1764570Y3868402D01*
X1765068Y3868637D01*
X1765565Y3868847D01*
X1766023Y3869017D01*
X1766454Y3869161D01*
X1766873Y3869265D01*
X1767252Y3869357D01*
X1767592Y3869409D01*
X1767867Y3869449D01*
X1768102Y3869475D01*
X1768286D01*
X1768403Y3869488D01*
X1768429D01*
X1769031Y3869462D01*
X1769620Y3869396D01*
X1770169Y3869265D01*
X1770706Y3869122D01*
X1771203Y3868938D01*
X1771661Y3868742D01*
X1772105Y3868533D01*
X1772485Y3868311D01*
X1772838Y3868088D01*
X1773165Y3867866D01*
X1773440Y3867669D01*
X1773675Y3867486D01*
X1773845Y3867343D01*
X1773989Y3867225D01*
X1774094Y3867120D01*
X1774408Y3866780D01*
X1774709Y3866401D01*
X1774970Y3866034D01*
X1775206Y3865642D01*
X1775415Y3865276D01*
X1775611Y3864896D01*
X1775768Y3864530D01*
X1775912Y3864177D01*
X1776017Y3863837D01*
X1776134Y3863536D01*
X1776200Y3863261D01*
X1776265Y3863039D01*
X1776318Y3862829D01*
X1776344Y3862698D01*
X1776370Y3862594D01*
Y3862568D01*
X1780281Y3868415D01*
X1773034Y3875662D01*
X1775153Y3877782D01*
X1784167Y3868768D01*
D02*
G37*
G36*
X1789687Y3861181D02*
X1790001Y3861155D01*
X1790289Y3861103D01*
X1790563Y3861063D01*
X1790799Y3861011D01*
X1791021Y3860946D01*
X1791217Y3860906D01*
X1791374Y3860854D01*
X1791505Y3860802D01*
X1791597Y3860762D01*
X1791662Y3860749D01*
X1791675Y3860736D01*
X1792015Y3860579D01*
X1792369Y3860383D01*
X1792722Y3860161D01*
X1793062Y3859925D01*
X1793768Y3859402D01*
X1794095Y3859127D01*
X1794409Y3858866D01*
X1794723Y3858604D01*
X1794985Y3858369D01*
X1795233Y3858146D01*
X1795443Y3857937D01*
X1795613Y3857793D01*
X1803867Y3849539D01*
X1785762Y3831434D01*
X1783369Y3833828D01*
X1791414Y3841873D01*
X1788313Y3844973D01*
X1788025Y3845235D01*
X1787777Y3845457D01*
X1787581Y3845627D01*
X1787424Y3845732D01*
X1787306Y3845823D01*
X1787227Y3845876D01*
X1787214Y3845889D01*
X1786940Y3846033D01*
X1786678Y3846164D01*
X1786403Y3846255D01*
X1786168Y3846334D01*
X1785959Y3846412D01*
X1785789Y3846451D01*
X1785684Y3846477D01*
X1785645Y3846491D01*
X1785292Y3846556D01*
X1784899Y3846582D01*
X1784494Y3846569D01*
X1784101D01*
X1783761Y3846543D01*
X1783473Y3846517D01*
X1783355Y3846504D01*
X1783277D01*
X1783238Y3846491D01*
X1783211D01*
X1782911Y3846451D01*
X1782584Y3846412D01*
X1781903Y3846307D01*
X1781197Y3846177D01*
X1780517Y3846046D01*
X1780216Y3845980D01*
X1779928Y3845928D01*
X1779666Y3845876D01*
X1779431Y3845823D01*
X1779261Y3845784D01*
X1779117Y3845745D01*
X1779025Y3845732D01*
X1778999D01*
X1772838Y3844358D01*
X1769842Y3847354D01*
X1777887Y3849146D01*
X1778764Y3849316D01*
X1779182Y3849369D01*
X1779588Y3849434D01*
X1779967Y3849473D01*
X1780334Y3849499D01*
X1780674Y3849526D01*
X1780988Y3849552D01*
X1781275Y3849578D01*
X1781537D01*
X1781746D01*
X1781943Y3849591D01*
X1782086Y3849578D01*
X1782204Y3849591D01*
X1782270Y3849578D01*
X1782296D01*
X1782675Y3849539D01*
X1783054Y3849473D01*
X1783447Y3849395D01*
X1783813Y3849290D01*
X1784140Y3849198D01*
X1784284Y3849159D01*
X1784402Y3849120D01*
X1784507Y3849094D01*
X1784572Y3849055D01*
X1784624D01*
X1784637Y3849041D01*
X1784245Y3849591D01*
X1783892Y3850127D01*
X1783604Y3850651D01*
X1783342Y3851148D01*
X1783146Y3851632D01*
X1782950Y3852089D01*
X1782819Y3852508D01*
X1782701Y3852914D01*
X1782623Y3853280D01*
X1782571Y3853594D01*
X1782518Y3853882D01*
X1782492Y3854117D01*
X1782479Y3854313D01*
X1782466Y3854457D01*
Y3854536D01*
Y3854562D01*
X1782492Y3855033D01*
X1782571Y3855504D01*
X1782662Y3855935D01*
X1782793Y3856354D01*
X1782950Y3856747D01*
X1783120Y3857126D01*
X1783303Y3857466D01*
X1783486Y3857780D01*
X1783669Y3858068D01*
X1783839Y3858316D01*
X1784009Y3858539D01*
X1784140Y3858722D01*
X1784284Y3858866D01*
X1784376Y3858983D01*
X1784428Y3859036D01*
X1784454Y3859062D01*
X1784742Y3859323D01*
X1785030Y3859585D01*
X1785331Y3859807D01*
X1785632Y3860004D01*
X1785919Y3860187D01*
X1786207Y3860344D01*
X1786495Y3860475D01*
X1786757Y3860606D01*
X1786992Y3860710D01*
X1787227Y3860789D01*
X1787437Y3860867D01*
X1787607Y3860932D01*
X1787751Y3860972D01*
X1787842Y3861011D01*
X1787908Y3861024D01*
X1787934D01*
X1788300Y3861103D01*
X1788667Y3861155D01*
X1789020Y3861168D01*
X1789360Y3861194D01*
X1789687Y3861181D01*
D02*
G37*
G36*
X2503234Y3212867D02*
X2503845Y3212774D01*
X2504418Y3212663D01*
X2504954Y3212515D01*
X2505472Y3212330D01*
X2505954Y3212127D01*
X2506379Y3211923D01*
X2506786Y3211701D01*
X2507137Y3211479D01*
X2507452Y3211257D01*
X2507729Y3211054D01*
X2507952Y3210869D01*
X2508118Y3210721D01*
X2508247Y3210610D01*
X2508340Y3210517D01*
X2508358Y3210499D01*
X2508765Y3210036D01*
X2509117Y3209555D01*
X2509413Y3209037D01*
X2509691Y3208519D01*
X2509912Y3208001D01*
X2510097Y3207483D01*
X2510245Y3206965D01*
X2510356Y3206484D01*
X2510468Y3206022D01*
X2510523Y3205596D01*
X2510579Y3205208D01*
X2510615Y3204875D01*
X2510634Y3204597D01*
Y3204486D01*
X2510653Y3204394D01*
Y3204320D01*
Y3204264D01*
Y3204246D01*
Y3204227D01*
X2510634Y3203543D01*
X2510560Y3202895D01*
X2510449Y3202266D01*
X2510320Y3201693D01*
X2510153Y3201156D01*
X2509968Y3200657D01*
X2509765Y3200194D01*
X2509561Y3199787D01*
X2509358Y3199417D01*
X2509154Y3199084D01*
X2508969Y3198807D01*
X2508802Y3198585D01*
X2508673Y3198400D01*
X2508562Y3198270D01*
X2508488Y3198178D01*
X2508470Y3198159D01*
X2508044Y3197752D01*
X2507600Y3197401D01*
X2507156Y3197105D01*
X2506693Y3196827D01*
X2506249Y3196605D01*
X2505805Y3196420D01*
X2505361Y3196272D01*
X2504954Y3196161D01*
X2504566Y3196050D01*
X2504215Y3195995D01*
X2503881Y3195939D01*
X2503622Y3195902D01*
X2503401Y3195884D01*
X2503234Y3195865D01*
X2503086D01*
X2502735Y3195884D01*
X2502383Y3195902D01*
X2501735Y3196013D01*
X2501125Y3196161D01*
X2500866Y3196235D01*
X2500607Y3196328D01*
X2500367Y3196420D01*
X2500163Y3196494D01*
X2499997Y3196568D01*
X2499830Y3196642D01*
X2499719Y3196698D01*
X2499626Y3196753D01*
X2499571Y3196772D01*
X2499552Y3196790D01*
X2498961Y3197160D01*
X2498461Y3197567D01*
X2498220Y3197771D01*
X2498017Y3197974D01*
X2497814Y3198159D01*
X2497647Y3198363D01*
X2497481Y3198529D01*
X2497351Y3198696D01*
X2497240Y3198844D01*
X2497129Y3198973D01*
X2497055Y3199084D01*
X2496999Y3199158D01*
X2496981Y3199214D01*
X2496963Y3199232D01*
Y3199084D01*
Y3198955D01*
Y3198844D01*
Y3198751D01*
Y3198696D01*
Y3198640D01*
Y3198622D01*
Y3198603D01*
X2496981Y3197882D01*
X2497037Y3197179D01*
X2497110Y3196531D01*
X2497166Y3196217D01*
X2497203Y3195939D01*
X2497240Y3195680D01*
X2497296Y3195458D01*
X2497332Y3195255D01*
X2497369Y3195088D01*
X2497407Y3194940D01*
X2497425Y3194848D01*
X2497443Y3194774D01*
Y3194755D01*
X2497536Y3194422D01*
X2497628Y3194089D01*
X2497721Y3193793D01*
X2497814Y3193497D01*
X2497925Y3193238D01*
X2498017Y3192998D01*
X2498110Y3192776D01*
X2498202Y3192572D01*
X2498276Y3192387D01*
X2498369Y3192221D01*
X2498424Y3192091D01*
X2498498Y3191980D01*
X2498535Y3191888D01*
X2498572Y3191832D01*
X2498609Y3191795D01*
Y3191777D01*
X2498887Y3191388D01*
X2499182Y3191037D01*
X2499479Y3190722D01*
X2499756Y3190482D01*
X2499997Y3190278D01*
X2500200Y3190130D01*
X2500274Y3190075D01*
X2500329Y3190038D01*
X2500367Y3190001D01*
X2500385D01*
X2500811Y3189779D01*
X2501236Y3189631D01*
X2501680Y3189520D01*
X2502068Y3189427D01*
X2502420Y3189390D01*
X2502568Y3189372D01*
X2502698D01*
X2502790Y3189353D01*
X2502938D01*
X2503253Y3189372D01*
X2503548Y3189390D01*
X2504085Y3189501D01*
X2504548Y3189649D01*
X2504769Y3189742D01*
X2504954Y3189834D01*
X2505121Y3189908D01*
X2505287Y3190001D01*
X2505417Y3190075D01*
X2505510Y3190149D01*
X2505602Y3190204D01*
X2505657Y3190260D01*
X2505695Y3190278D01*
X2505713Y3190297D01*
X2505916Y3190482D01*
X2506083Y3190704D01*
X2506398Y3191185D01*
X2506657Y3191703D01*
X2506860Y3192221D01*
X2506934Y3192443D01*
X2507008Y3192683D01*
X2507064Y3192887D01*
X2507101Y3193053D01*
X2507137Y3193201D01*
X2507156Y3193312D01*
X2507175Y3193386D01*
Y3193405D01*
X2510190Y3193127D01*
X2510097Y3192572D01*
X2509986Y3192054D01*
X2509838Y3191573D01*
X2509672Y3191111D01*
X2509506Y3190685D01*
X2509302Y3190315D01*
X2509117Y3189964D01*
X2508914Y3189649D01*
X2508729Y3189353D01*
X2508544Y3189113D01*
X2508358Y3188909D01*
X2508211Y3188743D01*
X2508099Y3188595D01*
X2507988Y3188502D01*
X2507933Y3188447D01*
X2507914Y3188428D01*
X2507544Y3188132D01*
X2507156Y3187873D01*
X2506749Y3187651D01*
X2506342Y3187466D01*
X2505935Y3187300D01*
X2505528Y3187170D01*
X2505121Y3187059D01*
X2504733Y3186967D01*
X2504381Y3186911D01*
X2504048Y3186856D01*
X2503752Y3186819D01*
X2503493Y3186782D01*
X2503289D01*
X2503123Y3186763D01*
X2502994D01*
X2502476Y3186782D01*
X2501976Y3186837D01*
X2501495Y3186911D01*
X2501032Y3187004D01*
X2500588Y3187115D01*
X2500200Y3187244D01*
X2499811Y3187374D01*
X2499479Y3187522D01*
X2499164Y3187670D01*
X2498887Y3187799D01*
X2498646Y3187929D01*
X2498443Y3188040D01*
X2498276Y3188132D01*
X2498165Y3188225D01*
X2498091Y3188262D01*
X2498073Y3188280D01*
X2497684Y3188576D01*
X2497332Y3188909D01*
X2496999Y3189261D01*
X2496685Y3189612D01*
X2496407Y3189982D01*
X2496130Y3190352D01*
X2495908Y3190704D01*
X2495686Y3191055D01*
X2495501Y3191388D01*
X2495334Y3191703D01*
X2495205Y3191980D01*
X2495094Y3192221D01*
X2495001Y3192424D01*
X2494946Y3192572D01*
X2494909Y3192665D01*
X2494890Y3192702D01*
X2494706Y3193275D01*
X2494539Y3193867D01*
X2494391Y3194496D01*
X2494262Y3195144D01*
X2494169Y3195791D01*
X2494077Y3196457D01*
X2494003Y3197086D01*
X2493947Y3197697D01*
X2493910Y3198270D01*
X2493873Y3198807D01*
X2493854Y3199288D01*
X2493836Y3199491D01*
Y3199695D01*
Y3199880D01*
X2493818Y3200046D01*
Y3200176D01*
Y3200287D01*
Y3200379D01*
Y3200453D01*
Y3200490D01*
Y3200509D01*
X2493836Y3201360D01*
X2493873Y3202174D01*
X2493910Y3202914D01*
X2493984Y3203617D01*
X2494077Y3204264D01*
X2494169Y3204838D01*
X2494262Y3205374D01*
X2494354Y3205855D01*
X2494465Y3206281D01*
X2494557Y3206651D01*
X2494650Y3206965D01*
X2494742Y3207224D01*
X2494816Y3207428D01*
X2494854Y3207576D01*
X2494890Y3207650D01*
X2494909Y3207687D01*
X2495113Y3208149D01*
X2495353Y3208575D01*
X2495593Y3208963D01*
X2495852Y3209333D01*
X2496111Y3209685D01*
X2496370Y3209999D01*
X2496630Y3210295D01*
X2496889Y3210554D01*
X2497129Y3210776D01*
X2497332Y3210980D01*
X2497536Y3211146D01*
X2497721Y3211294D01*
X2497851Y3211387D01*
X2497961Y3211479D01*
X2498035Y3211516D01*
X2498054Y3211535D01*
X2498443Y3211775D01*
X2498831Y3211979D01*
X2499238Y3212164D01*
X2499626Y3212312D01*
X2500015Y3212441D01*
X2500403Y3212552D01*
X2500755Y3212645D01*
X2501106Y3212719D01*
X2501421Y3212774D01*
X2501698Y3212811D01*
X2501957Y3212848D01*
X2502180Y3212867D01*
X2502365Y3212885D01*
X2502605D01*
X2503234Y3212867D01*
D02*
G37*
G36*
X2524731Y3213218D02*
X2525341Y3213163D01*
X2525934Y3213089D01*
X2526507Y3212996D01*
X2527044Y3212885D01*
X2527561Y3212737D01*
X2528043Y3212608D01*
X2528486Y3212460D01*
X2528875Y3212312D01*
X2529245Y3212182D01*
X2529559Y3212053D01*
X2529818Y3211923D01*
X2530041Y3211831D01*
X2530189Y3211757D01*
X2530281Y3211701D01*
X2530318Y3211683D01*
X2530836Y3211368D01*
X2531317Y3211035D01*
X2531761Y3210684D01*
X2532186Y3210314D01*
X2532575Y3209944D01*
X2532927Y3209574D01*
X2533260Y3209185D01*
X2533537Y3208834D01*
X2533796Y3208501D01*
X2534037Y3208168D01*
X2534222Y3207890D01*
X2534388Y3207650D01*
X2534499Y3207428D01*
X2534591Y3207280D01*
X2534647Y3207187D01*
X2534666Y3207150D01*
X2534925Y3206577D01*
X2535165Y3206003D01*
X2535369Y3205411D01*
X2535535Y3204819D01*
X2535683Y3204227D01*
X2535812Y3203635D01*
X2535905Y3203080D01*
X2535997Y3202562D01*
X2536053Y3202063D01*
X2536108Y3201600D01*
X2536127Y3201193D01*
X2536164Y3200842D01*
Y3200564D01*
X2536182Y3200453D01*
Y3200361D01*
Y3200287D01*
Y3200231D01*
Y3200194D01*
Y3200176D01*
X2536164Y3199491D01*
X2536127Y3198825D01*
X2536053Y3198178D01*
X2535979Y3197567D01*
X2535868Y3196957D01*
X2535757Y3196402D01*
X2535628Y3195865D01*
X2535498Y3195366D01*
X2535387Y3194922D01*
X2535258Y3194515D01*
X2535146Y3194163D01*
X2535035Y3193867D01*
X2534961Y3193627D01*
X2534887Y3193460D01*
X2534851Y3193349D01*
X2534832Y3193331D01*
Y3193312D01*
X2534573Y3192739D01*
X2534277Y3192184D01*
X2533963Y3191684D01*
X2533648Y3191203D01*
X2533315Y3190778D01*
X2532982Y3190371D01*
X2532668Y3190019D01*
X2532353Y3189686D01*
X2532057Y3189390D01*
X2531780Y3189150D01*
X2531539Y3188928D01*
X2531317Y3188761D01*
X2531132Y3188632D01*
X2531003Y3188521D01*
X2530928Y3188465D01*
X2530892Y3188447D01*
X2530392Y3188151D01*
X2529856Y3187892D01*
X2529300Y3187670D01*
X2528745Y3187466D01*
X2528191Y3187318D01*
X2527617Y3187170D01*
X2527081Y3187059D01*
X2526544Y3186967D01*
X2526063Y3186911D01*
X2525601Y3186856D01*
X2525193Y3186819D01*
X2524842Y3186782D01*
X2524564D01*
X2524435Y3186763D01*
X2524157D01*
X2523418Y3186782D01*
X2522715Y3186856D01*
X2522048Y3186967D01*
X2521401Y3187096D01*
X2520809Y3187263D01*
X2520254Y3187448D01*
X2519736Y3187651D01*
X2519273Y3187855D01*
X2518848Y3188058D01*
X2518478Y3188262D01*
X2518145Y3188447D01*
X2517886Y3188613D01*
X2517664Y3188743D01*
X2517516Y3188854D01*
X2517423Y3188928D01*
X2517387Y3188946D01*
X2516887Y3189390D01*
X2516425Y3189853D01*
X2515999Y3190352D01*
X2515610Y3190870D01*
X2515259Y3191407D01*
X2514945Y3191925D01*
X2514667Y3192443D01*
X2514427Y3192961D01*
X2514204Y3193442D01*
X2514019Y3193886D01*
X2513872Y3194274D01*
X2513742Y3194626D01*
X2513649Y3194903D01*
X2513613Y3195033D01*
X2513594Y3195125D01*
X2513575Y3195199D01*
X2513557Y3195255D01*
X2513539Y3195292D01*
Y3195310D01*
X2516924Y3196161D01*
X2517072Y3195569D01*
X2517238Y3195033D01*
X2517423Y3194515D01*
X2517646Y3194052D01*
X2517849Y3193608D01*
X2518090Y3193201D01*
X2518311Y3192850D01*
X2518534Y3192517D01*
X2518737Y3192239D01*
X2518941Y3191980D01*
X2519126Y3191777D01*
X2519292Y3191610D01*
X2519421Y3191462D01*
X2519514Y3191370D01*
X2519588Y3191314D01*
X2519606Y3191296D01*
X2519995Y3191018D01*
X2520383Y3190759D01*
X2520791Y3190537D01*
X2521198Y3190352D01*
X2521604Y3190204D01*
X2522012Y3190075D01*
X2522400Y3189964D01*
X2522770Y3189871D01*
X2523103Y3189797D01*
X2523436Y3189760D01*
X2523713Y3189723D01*
X2523954Y3189686D01*
X2524157D01*
X2524305Y3189668D01*
X2524435D01*
X2524860Y3189686D01*
X2525286Y3189723D01*
X2525693Y3189779D01*
X2526100Y3189853D01*
X2526470Y3189945D01*
X2526840Y3190056D01*
X2527173Y3190149D01*
X2527488Y3190278D01*
X2527765Y3190389D01*
X2528024Y3190482D01*
X2528246Y3190593D01*
X2528431Y3190685D01*
X2528579Y3190759D01*
X2528690Y3190815D01*
X2528764Y3190852D01*
X2528782Y3190870D01*
X2529153Y3191111D01*
X2529485Y3191370D01*
X2529800Y3191647D01*
X2530096Y3191943D01*
X2530355Y3192239D01*
X2530595Y3192554D01*
X2530818Y3192850D01*
X2531021Y3193127D01*
X2531188Y3193405D01*
X2531336Y3193664D01*
X2531465Y3193904D01*
X2531557Y3194108D01*
X2531650Y3194274D01*
X2531706Y3194385D01*
X2531724Y3194478D01*
X2531742Y3194496D01*
X2531909Y3194959D01*
X2532057Y3195440D01*
X2532186Y3195921D01*
X2532279Y3196420D01*
X2532464Y3197364D01*
X2532519Y3197826D01*
X2532575Y3198270D01*
X2532612Y3198659D01*
X2532631Y3199029D01*
X2532649Y3199362D01*
X2532668Y3199639D01*
X2532686Y3199880D01*
Y3200046D01*
Y3200157D01*
Y3200194D01*
X2532668Y3200675D01*
X2532649Y3201138D01*
X2532557Y3202026D01*
X2532501Y3202451D01*
X2532427Y3202858D01*
X2532353Y3203247D01*
X2532279Y3203598D01*
X2532205Y3203931D01*
X2532149Y3204227D01*
X2532075Y3204486D01*
X2532020Y3204708D01*
X2531965Y3204875D01*
X2531927Y3205004D01*
X2531890Y3205097D01*
Y3205115D01*
X2531724Y3205559D01*
X2531539Y3205966D01*
X2531336Y3206355D01*
X2531113Y3206706D01*
X2530892Y3207058D01*
X2530669Y3207372D01*
X2530429Y3207650D01*
X2530207Y3207909D01*
X2529985Y3208131D01*
X2529782Y3208334D01*
X2529597Y3208501D01*
X2529430Y3208649D01*
X2529300Y3208760D01*
X2529208Y3208852D01*
X2529134Y3208889D01*
X2529115Y3208908D01*
X2528727Y3209167D01*
X2528320Y3209370D01*
X2527913Y3209574D01*
X2527506Y3209740D01*
X2527081Y3209870D01*
X2526673Y3209981D01*
X2526285Y3210073D01*
X2525896Y3210147D01*
X2525545Y3210221D01*
X2525212Y3210258D01*
X2524916Y3210295D01*
X2524657Y3210314D01*
X2524454Y3210332D01*
X2524176D01*
X2523695Y3210314D01*
X2523251Y3210277D01*
X2522825Y3210221D01*
X2522419Y3210129D01*
X2522048Y3210036D01*
X2521697Y3209925D01*
X2521383Y3209814D01*
X2521086Y3209703D01*
X2520827Y3209574D01*
X2520587Y3209463D01*
X2520383Y3209352D01*
X2520217Y3209259D01*
X2520088Y3209167D01*
X2519995Y3209111D01*
X2519939Y3209074D01*
X2519921Y3209056D01*
X2519606Y3208797D01*
X2519311Y3208519D01*
X2519052Y3208205D01*
X2518793Y3207890D01*
X2518552Y3207539D01*
X2518349Y3207206D01*
X2518145Y3206873D01*
X2517979Y3206540D01*
X2517831Y3206225D01*
X2517682Y3205929D01*
X2517572Y3205670D01*
X2517479Y3205448D01*
X2517405Y3205245D01*
X2517349Y3205115D01*
X2517331Y3205023D01*
X2517312Y3204986D01*
X2513983Y3205763D01*
X2514186Y3206410D01*
X2514445Y3207021D01*
X2514704Y3207594D01*
X2515000Y3208131D01*
X2515296Y3208612D01*
X2515592Y3209074D01*
X2515907Y3209481D01*
X2516202Y3209851D01*
X2516499Y3210184D01*
X2516758Y3210462D01*
X2516998Y3210721D01*
X2517220Y3210906D01*
X2517387Y3211072D01*
X2517535Y3211183D01*
X2517608Y3211257D01*
X2517646Y3211276D01*
X2518145Y3211627D01*
X2518663Y3211923D01*
X2519218Y3212182D01*
X2519755Y3212404D01*
X2520291Y3212608D01*
X2520827Y3212756D01*
X2521345Y3212885D01*
X2521845Y3212996D01*
X2522326Y3213070D01*
X2522751Y3213126D01*
X2523122Y3213181D01*
X2523454Y3213200D01*
X2523732Y3213218D01*
X2523843Y3213237D01*
X2524102D01*
X2524731Y3213218D01*
D02*
G37*
G36*
X1764918Y4200505D02*
X1764944D01*
X1765467Y4200479D01*
X1765977Y4200387D01*
X1766475Y4200257D01*
X1766946Y4200100D01*
X1767403Y4199930D01*
X1767822Y4199720D01*
X1768227Y4199498D01*
X1768607Y4199276D01*
X1768934Y4199053D01*
X1769235Y4198831D01*
X1769509Y4198635D01*
X1769719Y4198451D01*
X1769902Y4198294D01*
X1770033Y4198190D01*
X1770137Y4198085D01*
X1770556Y4197640D01*
X1770922Y4197196D01*
X1771249Y4196738D01*
X1771511Y4196293D01*
X1771746Y4195848D01*
X1771943Y4195417D01*
X1772113Y4195011D01*
X1772244Y4194645D01*
X1772348Y4194278D01*
X1772427Y4193965D01*
X1772479Y4193677D01*
X1772518Y4193428D01*
X1772557Y4193232D01*
Y4193075D01*
X1772571Y4192983D01*
Y4192957D01*
X1772557Y4192447D01*
X1772518Y4191963D01*
X1772414Y4191492D01*
X1772296Y4191060D01*
X1772152Y4190629D01*
X1771995Y4190236D01*
X1771825Y4189883D01*
X1771629Y4189556D01*
X1771459Y4189255D01*
X1771275Y4188993D01*
X1771119Y4188758D01*
X1770961Y4188575D01*
X1770844Y4188431D01*
X1770752Y4188313D01*
X1770687Y4188248D01*
X1770661Y4188222D01*
X1770412Y4187999D01*
X1770164Y4187777D01*
X1769653Y4187424D01*
X1769405Y4187280D01*
X1769169Y4187149D01*
X1768934Y4187044D01*
X1768711Y4186953D01*
X1768515Y4186861D01*
X1768319Y4186796D01*
X1768162Y4186743D01*
X1768018Y4186704D01*
X1767900Y4186665D01*
X1767809Y4186652D01*
X1767770Y4186639D01*
X1767744D01*
X1767443Y4186600D01*
X1767142Y4186587D01*
X1766527Y4186626D01*
X1765938Y4186717D01*
X1765389Y4186848D01*
X1765153Y4186927D01*
X1764931Y4186992D01*
X1764735Y4187057D01*
X1764565Y4187123D01*
X1764434Y4187175D01*
X1764342Y4187214D01*
X1764264Y4187241D01*
X1764251Y4187254D01*
X1764460Y4186861D01*
X1764643Y4186469D01*
X1764787Y4186089D01*
X1764918Y4185723D01*
X1765023Y4185357D01*
X1765088Y4185004D01*
X1765140Y4184690D01*
X1765193Y4184376D01*
X1765206Y4184101D01*
X1765219Y4183852D01*
Y4183617D01*
Y4183434D01*
Y4183277D01*
X1765206Y4183159D01*
X1765193Y4183094D01*
Y4183068D01*
X1765114Y4182675D01*
X1765009Y4182309D01*
X1764879Y4181943D01*
X1764735Y4181589D01*
X1764578Y4181249D01*
X1764408Y4180948D01*
X1764225Y4180635D01*
X1764041Y4180373D01*
X1763871Y4180124D01*
X1763701Y4179902D01*
X1763544Y4179693D01*
X1763414Y4179536D01*
X1763296Y4179392D01*
X1763204Y4179300D01*
X1763152Y4179248D01*
X1763126Y4179222D01*
X1762681Y4178803D01*
X1762210Y4178437D01*
X1761726Y4178136D01*
X1761242Y4177861D01*
X1760784Y4177639D01*
X1760313Y4177456D01*
X1759868Y4177299D01*
X1759437Y4177181D01*
X1759044Y4177076D01*
X1758691Y4177011D01*
X1758364Y4176972D01*
X1758076Y4176945D01*
X1757854Y4176906D01*
X1757684Y4176919D01*
X1757566Y4176906D01*
X1757540D01*
X1756938Y4176959D01*
X1756363Y4177037D01*
X1755800Y4177181D01*
X1755251Y4177364D01*
X1754727Y4177573D01*
X1754256Y4177809D01*
X1753799Y4178057D01*
X1753367Y4178306D01*
X1752988Y4178555D01*
X1752634Y4178803D01*
X1752347Y4179038D01*
X1752098Y4179235D01*
X1751902Y4179405D01*
X1751745Y4179536D01*
X1751627Y4179653D01*
X1751156Y4180150D01*
X1750738Y4180674D01*
X1750384Y4181184D01*
X1750070Y4181707D01*
X1749809Y4182204D01*
X1749586Y4182688D01*
X1749403Y4183159D01*
X1749246Y4183604D01*
X1749129Y4184010D01*
X1749050Y4184376D01*
X1748972Y4184716D01*
X1748932Y4184991D01*
X1748906Y4185226D01*
X1748893Y4185396D01*
X1748880Y4185514D01*
Y4185540D01*
X1748893Y4186129D01*
X1748958Y4186717D01*
X1749063Y4187241D01*
X1749207Y4187777D01*
X1749377Y4188261D01*
X1749560Y4188706D01*
X1749756Y4189137D01*
X1749979Y4189517D01*
X1750201Y4189870D01*
X1750410Y4190184D01*
X1750594Y4190446D01*
X1750764Y4190668D01*
X1750921Y4190851D01*
X1751025Y4190982D01*
X1751104Y4191060D01*
X1751130Y4191087D01*
X1751457Y4191387D01*
X1751784Y4191662D01*
X1752098Y4191898D01*
X1752425Y4192120D01*
X1752752Y4192290D01*
X1753066Y4192473D01*
X1753354Y4192604D01*
X1753642Y4192735D01*
X1753916Y4192826D01*
X1754152Y4192905D01*
X1754361Y4192983D01*
X1754544Y4193036D01*
X1754701Y4193062D01*
X1754806Y4193088D01*
X1754871Y4193101D01*
X1754898D01*
X1755290Y4193153D01*
X1755682D01*
X1756075D01*
X1756454Y4193114D01*
X1756821Y4193062D01*
X1757174Y4192997D01*
X1757514Y4192918D01*
X1757841Y4192826D01*
X1758129Y4192748D01*
X1758390Y4192643D01*
X1758626Y4192565D01*
X1758822Y4192473D01*
X1758992Y4192408D01*
X1759097Y4192355D01*
X1759188Y4192316D01*
X1759201Y4192303D01*
X1759057Y4192656D01*
X1758940Y4192983D01*
X1758848Y4193310D01*
X1758756Y4193637D01*
X1758704Y4193925D01*
X1758652Y4194213D01*
X1758626Y4194475D01*
X1758600Y4194736D01*
X1758586Y4194959D01*
X1758600Y4195155D01*
X1758586Y4195325D01*
X1758600Y4195469D01*
Y4195600D01*
X1758613Y4195691D01*
X1758626Y4195730D01*
Y4195757D01*
X1758691Y4196057D01*
X1758770Y4196345D01*
X1758861Y4196620D01*
X1758966Y4196882D01*
X1759214Y4197366D01*
X1759476Y4197784D01*
X1759607Y4197967D01*
X1759738Y4198124D01*
X1759855Y4198268D01*
X1759947Y4198386D01*
X1760025Y4198491D01*
X1760091Y4198556D01*
X1760130Y4198595D01*
X1760143Y4198608D01*
X1760523Y4198962D01*
X1760915Y4199249D01*
X1761321Y4199524D01*
X1761726Y4199747D01*
X1762131Y4199917D01*
X1762524Y4200074D01*
X1762916Y4200204D01*
X1763283Y4200309D01*
X1763636Y4200374D01*
X1763950Y4200427D01*
X1764225Y4200466D01*
X1764473Y4200479D01*
X1764669Y4200492D01*
X1764813Y4200505D01*
X1764918D01*
D02*
G37*
G36*
X1779281Y4186142D02*
X1779517D01*
X1779700Y4186116D01*
X1779805D01*
X1779844Y4186102D01*
X1780446Y4185998D01*
X1781021Y4185841D01*
X1781597Y4185632D01*
X1782133Y4185409D01*
X1782656Y4185174D01*
X1783140Y4184899D01*
X1783598Y4184624D01*
X1784030Y4184350D01*
X1784422Y4184062D01*
X1784763Y4183800D01*
X1785063Y4183578D01*
X1785312Y4183355D01*
X1785521Y4183172D01*
X1785613Y4183107D01*
X1785796Y4182924D01*
X1786228Y4182466D01*
X1786620Y4181995D01*
X1786986Y4181524D01*
X1787326Y4181053D01*
X1787627Y4180595D01*
X1787889Y4180124D01*
X1788138Y4179693D01*
X1788347Y4179274D01*
X1788517Y4178895D01*
X1788687Y4178541D01*
X1788818Y4178227D01*
X1788909Y4177953D01*
X1789001Y4177730D01*
X1789053Y4177573D01*
X1789079Y4177469D01*
X1789092Y4177430D01*
X1789236Y4176841D01*
X1789341Y4176265D01*
X1789406Y4175703D01*
X1789446Y4175140D01*
X1789459Y4174604D01*
X1789446Y4174094D01*
X1789406Y4173583D01*
X1789354Y4173139D01*
X1789302Y4172720D01*
X1789236Y4172315D01*
X1789171Y4171988D01*
X1789119Y4171700D01*
X1789040Y4171464D01*
X1789001Y4171294D01*
X1788975Y4171190D01*
X1788962Y4171150D01*
X1788739Y4170562D01*
X1788504Y4169986D01*
X1788229Y4169424D01*
X1787928Y4168887D01*
X1787614Y4168364D01*
X1787287Y4167854D01*
X1786960Y4167396D01*
X1786659Y4166964D01*
X1786345Y4166572D01*
X1786057Y4166206D01*
X1785783Y4165905D01*
X1785560Y4165630D01*
X1785364Y4165434D01*
X1785299Y4165342D01*
X1785233Y4165277D01*
X1785181Y4165225D01*
X1785142Y4165185D01*
X1785116Y4165159D01*
X1785103Y4165146D01*
X1784605Y4164675D01*
X1784108Y4164230D01*
X1783598Y4163825D01*
X1783114Y4163445D01*
X1782604Y4163092D01*
X1782133Y4162778D01*
X1781662Y4162490D01*
X1781217Y4162229D01*
X1780825Y4161993D01*
X1780446Y4161797D01*
X1780119Y4161627D01*
X1779831Y4161496D01*
X1779608Y4161378D01*
X1779438Y4161313D01*
X1779334Y4161261D01*
X1779307D01*
X1779294Y4161248D01*
X1778706Y4161025D01*
X1778104Y4160842D01*
X1777528Y4160711D01*
X1776966Y4160594D01*
X1776430Y4160528D01*
X1775906Y4160476D01*
X1775435Y4160450D01*
X1774977Y4160437D01*
X1774559D01*
X1774193Y4160463D01*
X1773866Y4160476D01*
X1773591Y4160515D01*
X1773369Y4160554D01*
X1773198Y4160568D01*
X1773107Y4160581D01*
X1773068Y4160594D01*
X1772505Y4160738D01*
X1771943Y4160934D01*
X1771393Y4161169D01*
X1770857Y4161418D01*
X1770360Y4161706D01*
X1769850Y4162006D01*
X1769392Y4162307D01*
X1768947Y4162621D01*
X1768568Y4162922D01*
X1768201Y4163210D01*
X1767887Y4163472D01*
X1767613Y4163694D01*
X1767416Y4163890D01*
X1767312Y4163969D01*
X1767116Y4164165D01*
X1766605Y4164701D01*
X1766161Y4165251D01*
X1765768Y4165800D01*
X1765402Y4166350D01*
X1765101Y4166886D01*
X1764839Y4167409D01*
X1764617Y4167919D01*
X1764434Y4168390D01*
X1764277Y4168835D01*
X1764159Y4169240D01*
X1764054Y4169607D01*
X1763989Y4169908D01*
X1763924Y4170156D01*
X1763898Y4170339D01*
X1763884Y4170457D01*
X1763871Y4170496D01*
X1763832Y4171163D01*
Y4171818D01*
X1763884Y4172472D01*
X1763976Y4173113D01*
X1764107Y4173740D01*
X1764251Y4174329D01*
X1764421Y4174892D01*
X1764617Y4175428D01*
X1764800Y4175925D01*
X1764983Y4176370D01*
X1765153Y4176749D01*
X1765310Y4177089D01*
X1765441Y4177351D01*
X1765506Y4177469D01*
X1765559Y4177547D01*
X1765598Y4177613D01*
X1765624Y4177665D01*
X1765637Y4177704D01*
X1765650Y4177717D01*
X1768646Y4175925D01*
X1768332Y4175402D01*
X1768071Y4174905D01*
X1767835Y4174408D01*
X1767665Y4173924D01*
X1767495Y4173466D01*
X1767377Y4173008D01*
X1767286Y4172602D01*
X1767207Y4172210D01*
X1767155Y4171870D01*
X1767116Y4171543D01*
X1767102Y4171268D01*
Y4171033D01*
X1767089Y4170836D01*
Y4170706D01*
X1767102Y4170614D01*
Y4170588D01*
X1767181Y4170117D01*
X1767273Y4169659D01*
X1767403Y4169214D01*
X1767560Y4168796D01*
X1767744Y4168403D01*
X1767940Y4168024D01*
X1768136Y4167671D01*
X1768332Y4167344D01*
X1768515Y4167056D01*
X1768725Y4166794D01*
X1768895Y4166572D01*
X1769039Y4166376D01*
X1769182Y4166232D01*
X1769274Y4166114D01*
X1769366Y4166023D01*
X1769679Y4165735D01*
X1770007Y4165460D01*
X1770334Y4165211D01*
X1770674Y4164976D01*
X1771001Y4164780D01*
X1771341Y4164597D01*
X1771642Y4164426D01*
X1771956Y4164296D01*
X1772230Y4164178D01*
X1772479Y4164060D01*
X1772714Y4163982D01*
X1772911Y4163916D01*
X1773068Y4163864D01*
X1773185Y4163825D01*
X1773264Y4163799D01*
X1773290D01*
X1773722Y4163707D01*
X1774140Y4163655D01*
X1774559Y4163628D01*
X1774977D01*
X1775370Y4163655D01*
X1775762Y4163707D01*
X1776129Y4163759D01*
X1776469Y4163812D01*
X1776783Y4163890D01*
X1777071Y4163969D01*
X1777332Y4164047D01*
X1777542Y4164126D01*
X1777725Y4164178D01*
X1777842Y4164217D01*
X1777921Y4164270D01*
X1777947D01*
X1778392Y4164479D01*
X1778837Y4164714D01*
X1779268Y4164963D01*
X1779687Y4165251D01*
X1780485Y4165787D01*
X1780851Y4166075D01*
X1781204Y4166350D01*
X1781505Y4166598D01*
X1781780Y4166847D01*
X1782028Y4167069D01*
X1782238Y4167252D01*
X1782421Y4167409D01*
X1782539Y4167527D01*
X1782617Y4167605D01*
X1782643Y4167632D01*
X1782970Y4167985D01*
X1783284Y4168325D01*
X1783847Y4169018D01*
X1784108Y4169358D01*
X1784344Y4169698D01*
X1784566Y4170025D01*
X1784763Y4170326D01*
X1784946Y4170614D01*
X1785116Y4170863D01*
X1785246Y4171098D01*
X1785364Y4171294D01*
X1785443Y4171451D01*
X1785508Y4171569D01*
X1785547Y4171661D01*
X1785560Y4171674D01*
X1785757Y4172105D01*
X1785914Y4172524D01*
X1786044Y4172943D01*
X1786136Y4173348D01*
X1786228Y4173754D01*
X1786293Y4174133D01*
X1786319Y4174499D01*
X1786345Y4174839D01*
Y4175153D01*
Y4175441D01*
X1786332Y4175690D01*
X1786319Y4175912D01*
X1786306Y4176082D01*
Y4176213D01*
X1786280Y4176291D01*
Y4176318D01*
X1786188Y4176775D01*
X1786044Y4177207D01*
X1785901Y4177639D01*
X1785730Y4178044D01*
X1785521Y4178437D01*
X1785312Y4178803D01*
X1785103Y4179143D01*
X1784880Y4179470D01*
X1784684Y4179771D01*
X1784475Y4180033D01*
X1784292Y4180268D01*
X1784121Y4180464D01*
X1783991Y4180621D01*
X1783794Y4180818D01*
X1783441Y4181145D01*
X1783101Y4181432D01*
X1782761Y4181694D01*
X1782408Y4181916D01*
X1782081Y4182113D01*
X1781754Y4182283D01*
X1781453Y4182427D01*
X1781165Y4182557D01*
X1780890Y4182649D01*
X1780642Y4182741D01*
X1780419Y4182806D01*
X1780236Y4182858D01*
X1780079Y4182885D01*
X1779975Y4182911D01*
X1779909Y4182924D01*
X1779883D01*
X1779478Y4182963D01*
X1779072Y4182976D01*
X1778667Y4182937D01*
X1778261Y4182898D01*
X1777842Y4182819D01*
X1777463Y4182727D01*
X1777084Y4182636D01*
X1776730Y4182518D01*
X1776403Y4182400D01*
X1776090Y4182296D01*
X1775828Y4182191D01*
X1775605Y4182100D01*
X1775409Y4182008D01*
X1775278Y4181956D01*
X1775200Y4181903D01*
X1775161Y4181890D01*
X1773355Y4184794D01*
X1773957Y4185108D01*
X1774572Y4185357D01*
X1775161Y4185579D01*
X1775749Y4185749D01*
X1776299Y4185880D01*
X1776835Y4185998D01*
X1777345Y4186063D01*
X1777816Y4186116D01*
X1778261Y4186142D01*
X1778640Y4186155D01*
X1778994Y4186168D01*
X1779281Y4186142D01*
D02*
G37*
G36*
X1575573Y4017048D02*
X1573440Y4014916D01*
X1564571Y4023785D01*
X1564519Y4023105D01*
X1564440Y4022398D01*
X1564231Y4021012D01*
X1564100Y4020332D01*
X1563983Y4019664D01*
X1563852Y4019037D01*
X1563708Y4018448D01*
X1563577Y4017898D01*
X1563459Y4017388D01*
X1563329Y4016943D01*
X1563237Y4016564D01*
X1563145Y4016263D01*
X1563119Y4016132D01*
X1563093Y4016028D01*
X1563054Y4015936D01*
X1563041Y4015871D01*
Y4015845D01*
X1563028Y4015832D01*
X1562779Y4015034D01*
X1562491Y4014249D01*
X1562217Y4013477D01*
X1561929Y4012744D01*
X1561628Y4012051D01*
X1561340Y4011371D01*
X1561052Y4010743D01*
X1560778Y4010154D01*
X1560503Y4009618D01*
X1560267Y4009147D01*
X1560045Y4008715D01*
X1559862Y4008375D01*
X1559783Y4008218D01*
X1559705Y4008087D01*
X1559639Y4007970D01*
X1559587Y4007865D01*
X1559548Y4007800D01*
X1559522Y4007747D01*
X1559509Y4007708D01*
X1559496Y4007695D01*
X1559090Y4007002D01*
X1558671Y4006347D01*
X1558266Y4005733D01*
X1557887Y4005144D01*
X1557507Y4004608D01*
X1557154Y4004124D01*
X1556814Y4003679D01*
X1556487Y4003273D01*
X1556212Y4002920D01*
X1555951Y4002606D01*
X1555728Y4002331D01*
X1555532Y4002109D01*
X1555375Y4001952D01*
X1555257Y4001808D01*
X1555192Y4001743D01*
X1555166Y4001717D01*
X1552876Y4004006D01*
X1553334Y4004542D01*
X1553779Y4005092D01*
X1554198Y4005615D01*
X1554577Y4006125D01*
X1554943Y4006622D01*
X1555283Y4007119D01*
X1555597Y4007564D01*
X1555872Y4007996D01*
X1556134Y4008388D01*
X1556356Y4008741D01*
X1556539Y4009055D01*
X1556709Y4009330D01*
X1556840Y4009539D01*
X1556919Y4009696D01*
X1556984Y4009788D01*
X1556997Y4009827D01*
X1557416Y4010612D01*
X1557821Y4011410D01*
X1558201Y4012182D01*
X1558541Y4012967D01*
X1558881Y4013725D01*
X1559169Y4014458D01*
X1559456Y4015164D01*
X1559705Y4015832D01*
X1559927Y4016446D01*
X1560111Y4016996D01*
X1560267Y4017493D01*
X1560359Y4017715D01*
X1560411Y4017925D01*
X1560477Y4018095D01*
X1560516Y4018265D01*
X1560568Y4018396D01*
X1560608Y4018513D01*
X1560621Y4018605D01*
X1560634Y4018670D01*
X1560647Y4018709D01*
X1560660Y4018723D01*
X1560908Y4019599D01*
X1561105Y4020449D01*
X1561301Y4021247D01*
X1561458Y4022032D01*
X1561602Y4022752D01*
X1561719Y4023445D01*
X1561811Y4024086D01*
X1561889Y4024662D01*
X1561968Y4025185D01*
X1562020Y4025656D01*
X1562060Y4026061D01*
X1562086Y4026401D01*
X1562099Y4026676D01*
X1562125Y4026885D01*
X1562112Y4027003D01*
X1562125Y4027042D01*
X1563852Y4028769D01*
X1575573Y4017048D01*
D02*
G37*
G36*
X1579262Y4011162D02*
X1579497D01*
X1579680Y4011135D01*
X1579785D01*
X1579824Y4011122D01*
X1580426Y4011018D01*
X1581002Y4010861D01*
X1581577Y4010651D01*
X1582113Y4010429D01*
X1582637Y4010193D01*
X1583121Y4009919D01*
X1583579Y4009644D01*
X1584010Y4009369D01*
X1584403Y4009081D01*
X1584743Y4008820D01*
X1585044Y4008597D01*
X1585292Y4008375D01*
X1585502Y4008192D01*
X1585593Y4008127D01*
X1585776Y4007943D01*
X1586208Y4007486D01*
X1586601Y4007015D01*
X1586967Y4006544D01*
X1587307Y4006073D01*
X1587608Y4005615D01*
X1587869Y4005144D01*
X1588118Y4004712D01*
X1588327Y4004294D01*
X1588497Y4003914D01*
X1588667Y4003561D01*
X1588798Y4003247D01*
X1588890Y4002972D01*
X1588981Y4002750D01*
X1589034Y4002593D01*
X1589060Y4002488D01*
X1589073Y4002449D01*
X1589217Y4001860D01*
X1589321Y4001285D01*
X1589387Y4000722D01*
X1589426Y4000160D01*
X1589439Y3999624D01*
X1589426Y3999113D01*
X1589387Y3998603D01*
X1589334Y3998159D01*
X1589282Y3997740D01*
X1589217Y3997334D01*
X1589151Y3997007D01*
X1589099Y3996720D01*
X1589021Y3996484D01*
X1588981Y3996314D01*
X1588955Y3996209D01*
X1588942Y3996170D01*
X1588720Y3995581D01*
X1588484Y3995006D01*
X1588209Y3994443D01*
X1587909Y3993907D01*
X1587595Y3993384D01*
X1587268Y3992874D01*
X1586941Y3992416D01*
X1586640Y3991984D01*
X1586326Y3991592D01*
X1586038Y3991225D01*
X1585763Y3990924D01*
X1585541Y3990650D01*
X1585345Y3990454D01*
X1585279Y3990362D01*
X1585214Y3990296D01*
X1585161Y3990244D01*
X1585122Y3990205D01*
X1585096Y3990179D01*
X1585083Y3990166D01*
X1584586Y3989695D01*
X1584089Y3989250D01*
X1583579Y3988845D01*
X1583095Y3988465D01*
X1582584Y3988112D01*
X1582113Y3987798D01*
X1581643Y3987510D01*
X1581198Y3987249D01*
X1580805Y3987013D01*
X1580426Y3986817D01*
X1580099Y3986647D01*
X1579811Y3986516D01*
X1579589Y3986398D01*
X1579419Y3986333D01*
X1579314Y3986280D01*
X1579288D01*
X1579275Y3986267D01*
X1578686Y3986045D01*
X1578084Y3985862D01*
X1577509Y3985731D01*
X1576946Y3985613D01*
X1576410Y3985548D01*
X1575887Y3985496D01*
X1575416Y3985469D01*
X1574958Y3985456D01*
X1574539D01*
X1574173Y3985483D01*
X1573846Y3985496D01*
X1573571Y3985535D01*
X1573349Y3985574D01*
X1573179Y3985587D01*
X1573087Y3985600D01*
X1573048Y3985613D01*
X1572486Y3985757D01*
X1571923Y3985954D01*
X1571374Y3986189D01*
X1570837Y3986438D01*
X1570340Y3986725D01*
X1569830Y3987026D01*
X1569372Y3987327D01*
X1568927Y3987641D01*
X1568548Y3987942D01*
X1568182Y3988230D01*
X1567868Y3988491D01*
X1567593Y3988714D01*
X1567397Y3988910D01*
X1567292Y3988988D01*
X1567096Y3989185D01*
X1566586Y3989721D01*
X1566141Y3990270D01*
X1565749Y3990820D01*
X1565382Y3991369D01*
X1565081Y3991905D01*
X1564820Y3992429D01*
X1564597Y3992939D01*
X1564414Y3993410D01*
X1564257Y3993855D01*
X1564140Y3994260D01*
X1564035Y3994626D01*
X1563969Y3994927D01*
X1563904Y3995176D01*
X1563878Y3995359D01*
X1563865Y3995477D01*
X1563852Y3995516D01*
X1563812Y3996183D01*
Y3996837D01*
X1563865Y3997491D01*
X1563956Y3998132D01*
X1564087Y3998760D01*
X1564231Y3999349D01*
X1564401Y3999911D01*
X1564597Y4000448D01*
X1564781Y4000945D01*
X1564964Y4001390D01*
X1565134Y4001769D01*
X1565291Y4002109D01*
X1565421Y4002371D01*
X1565487Y4002488D01*
X1565539Y4002567D01*
X1565579Y4002632D01*
X1565605Y4002685D01*
X1565618Y4002724D01*
X1565631Y4002737D01*
X1568627Y4000945D01*
X1568312Y4000422D01*
X1568051Y3999925D01*
X1567815Y3999427D01*
X1567645Y3998943D01*
X1567475Y3998485D01*
X1567358Y3998028D01*
X1567266Y3997622D01*
X1567188Y3997230D01*
X1567135Y3996890D01*
X1567096Y3996562D01*
X1567083Y3996288D01*
Y3996052D01*
X1567070Y3995856D01*
Y3995725D01*
X1567083Y3995634D01*
Y3995608D01*
X1567161Y3995137D01*
X1567253Y3994679D01*
X1567384Y3994234D01*
X1567541Y3993815D01*
X1567724Y3993423D01*
X1567920Y3993044D01*
X1568116Y3992690D01*
X1568312Y3992363D01*
X1568496Y3992076D01*
X1568705Y3991814D01*
X1568875Y3991592D01*
X1569019Y3991395D01*
X1569163Y3991251D01*
X1569254Y3991134D01*
X1569346Y3991042D01*
X1569660Y3990754D01*
X1569987Y3990480D01*
X1570314Y3990231D01*
X1570654Y3989996D01*
X1570981Y3989799D01*
X1571321Y3989616D01*
X1571622Y3989446D01*
X1571936Y3989315D01*
X1572211Y3989198D01*
X1572459Y3989080D01*
X1572695Y3989001D01*
X1572891Y3988936D01*
X1573048Y3988884D01*
X1573166Y3988845D01*
X1573244Y3988818D01*
X1573270D01*
X1573702Y3988727D01*
X1574121Y3988674D01*
X1574539Y3988648D01*
X1574958D01*
X1575350Y3988674D01*
X1575743Y3988727D01*
X1576109Y3988779D01*
X1576449Y3988831D01*
X1576763Y3988910D01*
X1577051Y3988988D01*
X1577313Y3989067D01*
X1577522Y3989145D01*
X1577705Y3989198D01*
X1577823Y3989237D01*
X1577901Y3989289D01*
X1577927D01*
X1578372Y3989499D01*
X1578817Y3989734D01*
X1579249Y3989983D01*
X1579667Y3990270D01*
X1580465Y3990807D01*
X1580832Y3991095D01*
X1581185Y3991369D01*
X1581486Y3991618D01*
X1581760Y3991866D01*
X1582009Y3992089D01*
X1582218Y3992272D01*
X1582401Y3992429D01*
X1582519Y3992546D01*
X1582598Y3992625D01*
X1582624Y3992651D01*
X1582951Y3993004D01*
X1583265Y3993345D01*
X1583827Y3994038D01*
X1584089Y3994378D01*
X1584324Y3994718D01*
X1584547Y3995045D01*
X1584743Y3995346D01*
X1584926Y3995634D01*
X1585096Y3995882D01*
X1585227Y3996118D01*
X1585345Y3996314D01*
X1585423Y3996471D01*
X1585488Y3996589D01*
X1585528Y3996680D01*
X1585541Y3996693D01*
X1585737Y3997125D01*
X1585894Y3997544D01*
X1586025Y3997962D01*
X1586116Y3998368D01*
X1586208Y3998773D01*
X1586273Y3999153D01*
X1586300Y3999519D01*
X1586326Y3999859D01*
Y4000173D01*
Y4000461D01*
X1586313Y4000709D01*
X1586300Y4000932D01*
X1586286Y4001102D01*
Y4001233D01*
X1586260Y4001311D01*
Y4001337D01*
X1586169Y4001795D01*
X1586025Y4002227D01*
X1585881Y4002659D01*
X1585711Y4003064D01*
X1585502Y4003456D01*
X1585292Y4003823D01*
X1585083Y4004163D01*
X1584861Y4004490D01*
X1584664Y4004791D01*
X1584455Y4005052D01*
X1584272Y4005288D01*
X1584102Y4005484D01*
X1583971Y4005641D01*
X1583775Y4005837D01*
X1583422Y4006164D01*
X1583082Y4006452D01*
X1582741Y4006714D01*
X1582388Y4006936D01*
X1582061Y4007132D01*
X1581734Y4007302D01*
X1581433Y4007446D01*
X1581146Y4007577D01*
X1580871Y4007669D01*
X1580622Y4007760D01*
X1580400Y4007826D01*
X1580217Y4007878D01*
X1580060Y4007904D01*
X1579955Y4007930D01*
X1579890Y4007943D01*
X1579863D01*
X1579458Y4007983D01*
X1579052Y4007996D01*
X1578647Y4007956D01*
X1578241Y4007917D01*
X1577823Y4007839D01*
X1577443Y4007747D01*
X1577064Y4007656D01*
X1576711Y4007538D01*
X1576384Y4007420D01*
X1576070Y4007316D01*
X1575808Y4007211D01*
X1575586Y4007119D01*
X1575390Y4007028D01*
X1575259Y4006975D01*
X1575180Y4006923D01*
X1575141Y4006910D01*
X1573336Y4009814D01*
X1573938Y4010128D01*
X1574552Y4010377D01*
X1575141Y4010599D01*
X1575730Y4010769D01*
X1576279Y4010900D01*
X1576815Y4011018D01*
X1577326Y4011083D01*
X1577797Y4011135D01*
X1578241Y4011162D01*
X1578621Y4011175D01*
X1578974Y4011188D01*
X1579262Y4011162D01*
D02*
G37*
G36*
X2497318Y3062848D02*
X2498021Y3062756D01*
X2498669Y3062608D01*
X2499298Y3062423D01*
X2499871Y3062201D01*
X2500389Y3061960D01*
X2500870Y3061683D01*
X2501314Y3061424D01*
X2501703Y3061146D01*
X2502054Y3060869D01*
X2502332Y3060628D01*
X2502572Y3060406D01*
X2502776Y3060221D01*
X2502905Y3060073D01*
X2502979Y3059981D01*
X2503016Y3059944D01*
X2503257Y3059611D01*
X2503497Y3059259D01*
X2503719Y3058908D01*
X2503923Y3058519D01*
X2504293Y3057705D01*
X2504607Y3056836D01*
X2504866Y3055948D01*
X2505088Y3055060D01*
X2505273Y3054153D01*
X2505403Y3053284D01*
X2505532Y3052451D01*
X2505606Y3051693D01*
X2505643Y3051323D01*
X2505662Y3050990D01*
X2505699Y3050657D01*
X2505717Y3050379D01*
Y3050102D01*
X2505736Y3049861D01*
Y3049658D01*
X2505754Y3049491D01*
Y3049343D01*
Y3049251D01*
Y3049177D01*
Y3049158D01*
Y3048548D01*
X2505717Y3047956D01*
X2505699Y3047401D01*
X2505643Y3046846D01*
X2505588Y3046328D01*
X2505532Y3045828D01*
X2505458Y3045347D01*
X2505366Y3044885D01*
X2505273Y3044441D01*
X2505181Y3044015D01*
X2505070Y3043627D01*
X2504977Y3043238D01*
X2504866Y3042887D01*
X2504737Y3042535D01*
X2504626Y3042221D01*
X2504515Y3041925D01*
X2504404Y3041647D01*
X2504274Y3041370D01*
X2504163Y3041129D01*
X2504052Y3040907D01*
X2503960Y3040704D01*
X2503849Y3040519D01*
X2503664Y3040204D01*
X2503497Y3039964D01*
X2503386Y3039779D01*
X2503294Y3039686D01*
X2503275Y3039649D01*
X2502794Y3039150D01*
X2502295Y3038706D01*
X2501758Y3038317D01*
X2501222Y3037984D01*
X2500685Y3037707D01*
X2500167Y3037466D01*
X2499649Y3037281D01*
X2499150Y3037133D01*
X2498669Y3037004D01*
X2498243Y3036911D01*
X2497855Y3036856D01*
X2497522Y3036800D01*
X2497244Y3036782D01*
X2497133D01*
X2497041Y3036763D01*
X2496874D01*
X2496449Y3036782D01*
X2496023Y3036819D01*
X2495635Y3036856D01*
X2495246Y3036930D01*
X2494895Y3037022D01*
X2494543Y3037115D01*
X2494229Y3037207D01*
X2493951Y3037318D01*
X2493674Y3037411D01*
X2493452Y3037503D01*
X2493248Y3037596D01*
X2493063Y3037688D01*
X2492934Y3037762D01*
X2492823Y3037799D01*
X2492767Y3037836D01*
X2492749Y3037855D01*
X2492416Y3038077D01*
X2492101Y3038299D01*
X2491805Y3038558D01*
X2491546Y3038817D01*
X2491287Y3039076D01*
X2491047Y3039335D01*
X2490843Y3039594D01*
X2490640Y3039853D01*
X2490473Y3040093D01*
X2490325Y3040297D01*
X2490196Y3040500D01*
X2490085Y3040685D01*
X2490011Y3040815D01*
X2489955Y3040926D01*
X2489918Y3041000D01*
X2489900Y3041018D01*
X2489715Y3041407D01*
X2489548Y3041814D01*
X2489419Y3042202D01*
X2489289Y3042591D01*
X2489178Y3042979D01*
X2489104Y3043349D01*
X2489030Y3043701D01*
X2488975Y3044034D01*
X2488938Y3044348D01*
X2488901Y3044626D01*
X2488882Y3044866D01*
X2488864Y3045088D01*
X2488845Y3045255D01*
Y3045384D01*
Y3045477D01*
Y3045495D01*
X2488864Y3046161D01*
X2488938Y3046809D01*
X2489049Y3047401D01*
X2489197Y3047974D01*
X2489363Y3048511D01*
X2489548Y3048992D01*
X2489752Y3049454D01*
X2489955Y3049861D01*
X2490159Y3050231D01*
X2490362Y3050546D01*
X2490547Y3050823D01*
X2490714Y3051045D01*
X2490862Y3051230D01*
X2490973Y3051360D01*
X2491047Y3051452D01*
X2491065Y3051471D01*
X2491491Y3051878D01*
X2491935Y3052248D01*
X2492379Y3052544D01*
X2492823Y3052821D01*
X2493285Y3053043D01*
X2493729Y3053228D01*
X2494155Y3053395D01*
X2494562Y3053506D01*
X2494950Y3053598D01*
X2495302Y3053672D01*
X2495616Y3053728D01*
X2495894Y3053765D01*
X2496097Y3053783D01*
X2496264Y3053802D01*
X2496745D01*
X2497078Y3053765D01*
X2497725Y3053672D01*
X2498299Y3053524D01*
X2498576Y3053450D01*
X2498817Y3053376D01*
X2499057Y3053302D01*
X2499261Y3053228D01*
X2499427Y3053154D01*
X2499594Y3053080D01*
X2499705Y3053025D01*
X2499797Y3052988D01*
X2499853Y3052969D01*
X2499871Y3052951D01*
X2500167Y3052784D01*
X2500463Y3052599D01*
X2500981Y3052192D01*
X2501462Y3051767D01*
X2501666Y3051563D01*
X2501851Y3051360D01*
X2502036Y3051156D01*
X2502184Y3050971D01*
X2502313Y3050805D01*
X2502424Y3050657D01*
X2502517Y3050546D01*
X2502572Y3050453D01*
X2502609Y3050398D01*
X2502628Y3050379D01*
X2502609Y3051082D01*
X2502591Y3051748D01*
X2502535Y3052359D01*
X2502480Y3052932D01*
X2502424Y3053450D01*
X2502350Y3053950D01*
X2502258Y3054394D01*
X2502184Y3054782D01*
X2502110Y3055134D01*
X2502036Y3055448D01*
X2501962Y3055707D01*
X2501888Y3055911D01*
X2501832Y3056077D01*
X2501795Y3056207D01*
X2501758Y3056281D01*
Y3056299D01*
X2501592Y3056669D01*
X2501407Y3057021D01*
X2501222Y3057354D01*
X2501018Y3057668D01*
X2500833Y3057946D01*
X2500630Y3058205D01*
X2500445Y3058445D01*
X2500260Y3058649D01*
X2500075Y3058834D01*
X2499927Y3059000D01*
X2499779Y3059130D01*
X2499649Y3059241D01*
X2499557Y3059333D01*
X2499464Y3059389D01*
X2499427Y3059426D01*
X2499409Y3059444D01*
X2499187Y3059592D01*
X2498965Y3059722D01*
X2498521Y3059944D01*
X2498077Y3060092D01*
X2497670Y3060184D01*
X2497466Y3060221D01*
X2497300Y3060258D01*
X2497152Y3060277D01*
X2497022D01*
X2496911Y3060295D01*
X2496763D01*
X2496430Y3060277D01*
X2496097Y3060240D01*
X2495783Y3060166D01*
X2495487Y3060092D01*
X2495209Y3059981D01*
X2494969Y3059870D01*
X2494728Y3059740D01*
X2494506Y3059629D01*
X2494303Y3059500D01*
X2494136Y3059370D01*
X2493988Y3059259D01*
X2493859Y3059148D01*
X2493766Y3059074D01*
X2493692Y3059000D01*
X2493655Y3058963D01*
X2493637Y3058945D01*
X2493489Y3058778D01*
X2493359Y3058593D01*
X2493119Y3058168D01*
X2492915Y3057724D01*
X2492749Y3057298D01*
X2492601Y3056891D01*
X2492564Y3056725D01*
X2492508Y3056558D01*
X2492471Y3056447D01*
X2492453Y3056336D01*
X2492434Y3056281D01*
Y3056262D01*
X2489308Y3056503D01*
X2489400Y3057039D01*
X2489511Y3057557D01*
X2489659Y3058038D01*
X2489844Y3058482D01*
X2490011Y3058908D01*
X2490214Y3059296D01*
X2490418Y3059648D01*
X2490621Y3059962D01*
X2490825Y3060240D01*
X2491010Y3060480D01*
X2491176Y3060702D01*
X2491324Y3060869D01*
X2491454Y3060998D01*
X2491546Y3061109D01*
X2491620Y3061165D01*
X2491639Y3061183D01*
X2492009Y3061479D01*
X2492397Y3061738D01*
X2492804Y3061979D01*
X2493230Y3062164D01*
X2493637Y3062330D01*
X2494044Y3062478D01*
X2494451Y3062589D01*
X2494821Y3062682D01*
X2495191Y3062737D01*
X2495524Y3062793D01*
X2495820Y3062830D01*
X2496079Y3062867D01*
X2496282D01*
X2496449Y3062885D01*
X2496578D01*
X2497318Y3062848D01*
D02*
G37*
G36*
X2519703Y3063218D02*
X2520314Y3063163D01*
X2520906Y3063089D01*
X2521479Y3062996D01*
X2522016Y3062885D01*
X2522534Y3062737D01*
X2523015Y3062608D01*
X2523459Y3062460D01*
X2523847Y3062312D01*
X2524217Y3062182D01*
X2524532Y3062053D01*
X2524791Y3061923D01*
X2525013Y3061831D01*
X2525161Y3061757D01*
X2525253Y3061701D01*
X2525290Y3061683D01*
X2525808Y3061368D01*
X2526289Y3061035D01*
X2526733Y3060684D01*
X2527159Y3060314D01*
X2527547Y3059944D01*
X2527899Y3059574D01*
X2528232Y3059185D01*
X2528509Y3058834D01*
X2528768Y3058501D01*
X2529009Y3058168D01*
X2529194Y3057890D01*
X2529360Y3057650D01*
X2529471Y3057428D01*
X2529564Y3057280D01*
X2529619Y3057187D01*
X2529638Y3057150D01*
X2529897Y3056577D01*
X2530137Y3056003D01*
X2530341Y3055411D01*
X2530507Y3054819D01*
X2530655Y3054227D01*
X2530785Y3053635D01*
X2530877Y3053080D01*
X2530970Y3052562D01*
X2531025Y3052063D01*
X2531081Y3051600D01*
X2531099Y3051193D01*
X2531136Y3050842D01*
Y3050564D01*
X2531155Y3050453D01*
Y3050361D01*
Y3050287D01*
Y3050231D01*
Y3050194D01*
Y3050176D01*
X2531136Y3049491D01*
X2531099Y3048825D01*
X2531025Y3048178D01*
X2530951Y3047567D01*
X2530840Y3046957D01*
X2530729Y3046402D01*
X2530600Y3045865D01*
X2530470Y3045366D01*
X2530359Y3044922D01*
X2530230Y3044515D01*
X2530119Y3044163D01*
X2530008Y3043867D01*
X2529934Y3043627D01*
X2529860Y3043460D01*
X2529823Y3043349D01*
X2529804Y3043331D01*
Y3043312D01*
X2529545Y3042739D01*
X2529249Y3042184D01*
X2528935Y3041684D01*
X2528620Y3041203D01*
X2528287Y3040778D01*
X2527954Y3040371D01*
X2527640Y3040019D01*
X2527325Y3039686D01*
X2527029Y3039390D01*
X2526752Y3039150D01*
X2526511Y3038928D01*
X2526289Y3038761D01*
X2526104Y3038632D01*
X2525975Y3038521D01*
X2525901Y3038465D01*
X2525864Y3038447D01*
X2525364Y3038151D01*
X2524828Y3037892D01*
X2524273Y3037670D01*
X2523718Y3037466D01*
X2523163Y3037318D01*
X2522589Y3037170D01*
X2522053Y3037059D01*
X2521516Y3036967D01*
X2521035Y3036911D01*
X2520573Y3036856D01*
X2520166Y3036819D01*
X2519814Y3036782D01*
X2519537D01*
X2519407Y3036763D01*
X2519130D01*
X2518390Y3036782D01*
X2517687Y3036856D01*
X2517021Y3036967D01*
X2516373Y3037096D01*
X2515781Y3037263D01*
X2515226Y3037448D01*
X2514708Y3037651D01*
X2514246Y3037855D01*
X2513820Y3038058D01*
X2513450Y3038262D01*
X2513117Y3038447D01*
X2512858Y3038613D01*
X2512636Y3038743D01*
X2512488Y3038854D01*
X2512396Y3038928D01*
X2512359Y3038946D01*
X2511859Y3039390D01*
X2511397Y3039853D01*
X2510971Y3040352D01*
X2510583Y3040870D01*
X2510231Y3041407D01*
X2509917Y3041925D01*
X2509639Y3042443D01*
X2509399Y3042961D01*
X2509177Y3043442D01*
X2508992Y3043886D01*
X2508844Y3044274D01*
X2508714Y3044626D01*
X2508622Y3044903D01*
X2508585Y3045033D01*
X2508566Y3045125D01*
X2508548Y3045199D01*
X2508529Y3045255D01*
X2508511Y3045292D01*
Y3045310D01*
X2511896Y3046161D01*
X2512044Y3045569D01*
X2512211Y3045033D01*
X2512396Y3044515D01*
X2512618Y3044052D01*
X2512821Y3043608D01*
X2513062Y3043201D01*
X2513284Y3042850D01*
X2513506Y3042517D01*
X2513709Y3042239D01*
X2513913Y3041980D01*
X2514098Y3041777D01*
X2514264Y3041610D01*
X2514394Y3041462D01*
X2514486Y3041370D01*
X2514560Y3041314D01*
X2514579Y3041296D01*
X2514967Y3041018D01*
X2515356Y3040759D01*
X2515763Y3040537D01*
X2516170Y3040352D01*
X2516577Y3040204D01*
X2516984Y3040075D01*
X2517372Y3039964D01*
X2517742Y3039871D01*
X2518075Y3039797D01*
X2518408Y3039760D01*
X2518686Y3039723D01*
X2518926Y3039686D01*
X2519130D01*
X2519278Y3039668D01*
X2519407D01*
X2519833Y3039686D01*
X2520258Y3039723D01*
X2520665Y3039779D01*
X2521072Y3039853D01*
X2521442Y3039945D01*
X2521812Y3040056D01*
X2522145Y3040149D01*
X2522460Y3040278D01*
X2522737Y3040389D01*
X2522996Y3040482D01*
X2523218Y3040593D01*
X2523403Y3040685D01*
X2523551Y3040759D01*
X2523662Y3040815D01*
X2523736Y3040852D01*
X2523755Y3040870D01*
X2524125Y3041111D01*
X2524458Y3041370D01*
X2524772Y3041647D01*
X2525068Y3041943D01*
X2525327Y3042239D01*
X2525568Y3042554D01*
X2525790Y3042850D01*
X2525993Y3043127D01*
X2526160Y3043405D01*
X2526308Y3043664D01*
X2526437Y3043904D01*
X2526530Y3044108D01*
X2526622Y3044274D01*
X2526678Y3044385D01*
X2526696Y3044478D01*
X2526715Y3044496D01*
X2526881Y3044959D01*
X2527029Y3045440D01*
X2527159Y3045921D01*
X2527251Y3046420D01*
X2527436Y3047364D01*
X2527492Y3047826D01*
X2527547Y3048270D01*
X2527584Y3048659D01*
X2527603Y3049029D01*
X2527621Y3049362D01*
X2527640Y3049639D01*
X2527658Y3049880D01*
Y3050046D01*
Y3050157D01*
Y3050194D01*
X2527640Y3050675D01*
X2527621Y3051138D01*
X2527529Y3052026D01*
X2527473Y3052451D01*
X2527399Y3052858D01*
X2527325Y3053247D01*
X2527251Y3053598D01*
X2527177Y3053931D01*
X2527122Y3054227D01*
X2527048Y3054486D01*
X2526992Y3054708D01*
X2526937Y3054875D01*
X2526900Y3055004D01*
X2526863Y3055097D01*
Y3055115D01*
X2526696Y3055559D01*
X2526511Y3055966D01*
X2526308Y3056355D01*
X2526086Y3056706D01*
X2525864Y3057058D01*
X2525642Y3057372D01*
X2525401Y3057650D01*
X2525179Y3057909D01*
X2524957Y3058131D01*
X2524754Y3058334D01*
X2524569Y3058501D01*
X2524402Y3058649D01*
X2524273Y3058760D01*
X2524180Y3058852D01*
X2524106Y3058889D01*
X2524088Y3058908D01*
X2523699Y3059167D01*
X2523292Y3059370D01*
X2522885Y3059574D01*
X2522478Y3059740D01*
X2522053Y3059870D01*
X2521646Y3059981D01*
X2521257Y3060073D01*
X2520869Y3060147D01*
X2520517Y3060221D01*
X2520184Y3060258D01*
X2519888Y3060295D01*
X2519629Y3060314D01*
X2519426Y3060332D01*
X2519148D01*
X2518667Y3060314D01*
X2518223Y3060277D01*
X2517798Y3060221D01*
X2517391Y3060129D01*
X2517021Y3060036D01*
X2516669Y3059925D01*
X2516355Y3059814D01*
X2516059Y3059703D01*
X2515800Y3059574D01*
X2515559Y3059463D01*
X2515356Y3059352D01*
X2515189Y3059259D01*
X2515060Y3059167D01*
X2514967Y3059111D01*
X2514912Y3059074D01*
X2514893Y3059056D01*
X2514579Y3058797D01*
X2514283Y3058519D01*
X2514024Y3058205D01*
X2513765Y3057890D01*
X2513524Y3057539D01*
X2513321Y3057206D01*
X2513117Y3056873D01*
X2512951Y3056540D01*
X2512803Y3056225D01*
X2512655Y3055929D01*
X2512544Y3055670D01*
X2512451Y3055448D01*
X2512377Y3055245D01*
X2512322Y3055115D01*
X2512303Y3055023D01*
X2512285Y3054986D01*
X2508955Y3055763D01*
X2509158Y3056410D01*
X2509417Y3057021D01*
X2509676Y3057594D01*
X2509972Y3058131D01*
X2510268Y3058612D01*
X2510564Y3059074D01*
X2510879Y3059481D01*
X2511175Y3059851D01*
X2511471Y3060184D01*
X2511730Y3060462D01*
X2511970Y3060721D01*
X2512192Y3060906D01*
X2512359Y3061072D01*
X2512507Y3061183D01*
X2512581Y3061257D01*
X2512618Y3061276D01*
X2513117Y3061627D01*
X2513635Y3061923D01*
X2514190Y3062182D01*
X2514727Y3062404D01*
X2515263Y3062608D01*
X2515800Y3062756D01*
X2516318Y3062885D01*
X2516817Y3062996D01*
X2517298Y3063070D01*
X2517724Y3063126D01*
X2518094Y3063181D01*
X2518427Y3063200D01*
X2518704Y3063218D01*
X2518815Y3063237D01*
X2519074D01*
X2519703Y3063218D01*
D02*
G37*
G36*
X2005171Y2764306D02*
X2002211Y2763918D01*
X2001934Y2764306D01*
X2001620Y2764658D01*
X2001305Y2764954D01*
X2001009Y2765213D01*
X2000732Y2765416D01*
X2000509Y2765564D01*
X2000417Y2765620D01*
X2000361Y2765657D01*
X2000324Y2765694D01*
X2000306D01*
X1999843Y2765934D01*
X1999362Y2766101D01*
X1998900Y2766230D01*
X1998475Y2766304D01*
X1998271Y2766341D01*
X1998104Y2766360D01*
X1997938Y2766378D01*
X1997809D01*
X1997697Y2766397D01*
X1997550D01*
X1997105Y2766378D01*
X1996680Y2766323D01*
X1996273Y2766249D01*
X1995884Y2766156D01*
X1995533Y2766045D01*
X1995218Y2765897D01*
X1994922Y2765768D01*
X1994645Y2765620D01*
X1994405Y2765472D01*
X1994201Y2765342D01*
X1994016Y2765213D01*
X1993868Y2765083D01*
X1993738Y2764991D01*
X1993665Y2764917D01*
X1993609Y2764861D01*
X1993591Y2764843D01*
X1993332Y2764547D01*
X1993091Y2764214D01*
X1992888Y2763881D01*
X1992721Y2763529D01*
X1992573Y2763159D01*
X1992444Y2762808D01*
X1992351Y2762475D01*
X1992258Y2762142D01*
X1992203Y2761809D01*
X1992148Y2761531D01*
X1992111Y2761254D01*
X1992092Y2761032D01*
Y2760847D01*
X1992073Y2760699D01*
Y2760625D01*
Y2760588D01*
X1992092Y2760070D01*
X1992148Y2759589D01*
X1992222Y2759126D01*
X1992314Y2758682D01*
X1992444Y2758275D01*
X1992573Y2757905D01*
X1992721Y2757572D01*
X1992851Y2757258D01*
X1992998Y2756980D01*
X1993147Y2756740D01*
X1993276Y2756536D01*
X1993406Y2756370D01*
X1993498Y2756240D01*
X1993572Y2756129D01*
X1993628Y2756074D01*
X1993646Y2756055D01*
X1993942Y2755759D01*
X1994256Y2755500D01*
X1994590Y2755260D01*
X1994904Y2755075D01*
X1995237Y2754908D01*
X1995552Y2754760D01*
X1995866Y2754649D01*
X1996162Y2754575D01*
X1996439Y2754501D01*
X1996698Y2754446D01*
X1996939Y2754409D01*
X1997124Y2754372D01*
X1997291D01*
X1997401Y2754353D01*
X1997513D01*
X1997864Y2754372D01*
X1998197Y2754409D01*
X1998512Y2754464D01*
X1998807Y2754538D01*
X1999103Y2754631D01*
X1999362Y2754742D01*
X1999621Y2754834D01*
X1999843Y2754964D01*
X2000047Y2755075D01*
X2000214Y2755167D01*
X2000380Y2755278D01*
X2000509Y2755371D01*
X2000620Y2755445D01*
X2000695Y2755500D01*
X2000732Y2755537D01*
X2000750Y2755556D01*
X2000991Y2755796D01*
X2001213Y2756055D01*
X2001398Y2756333D01*
X2001582Y2756629D01*
X2001730Y2756925D01*
X2001860Y2757239D01*
X2002082Y2757813D01*
X2002175Y2758090D01*
X2002248Y2758349D01*
X2002304Y2758590D01*
X2002360Y2758793D01*
X2002397Y2758960D01*
X2002415Y2759071D01*
X2002434Y2759163D01*
Y2759182D01*
X2005726Y2758904D01*
X2005652Y2758312D01*
X2005523Y2757757D01*
X2005375Y2757221D01*
X2005208Y2756721D01*
X2005005Y2756259D01*
X2004783Y2755833D01*
X2004580Y2755445D01*
X2004358Y2755093D01*
X2004136Y2754779D01*
X2003932Y2754501D01*
X2003728Y2754261D01*
X2003562Y2754057D01*
X2003414Y2753909D01*
X2003303Y2753798D01*
X2003229Y2753724D01*
X2003210Y2753706D01*
X2002785Y2753373D01*
X2002341Y2753058D01*
X2001860Y2752799D01*
X2001398Y2752577D01*
X2000917Y2752392D01*
X2000436Y2752244D01*
X1999973Y2752115D01*
X1999529Y2752004D01*
X1999122Y2751930D01*
X1998734Y2751874D01*
X1998382Y2751819D01*
X1998086Y2751800D01*
X1997845Y2751782D01*
X1997660Y2751763D01*
X1997513D01*
X1996736Y2751800D01*
X1995995Y2751893D01*
X1995311Y2752059D01*
X1994664Y2752244D01*
X1994053Y2752485D01*
X1993498Y2752744D01*
X1992998Y2753021D01*
X1992536Y2753317D01*
X1992129Y2753613D01*
X1991777Y2753891D01*
X1991482Y2754150D01*
X1991223Y2754390D01*
X1991037Y2754594D01*
X1990889Y2754742D01*
X1990815Y2754834D01*
X1990778Y2754871D01*
X1990427Y2755352D01*
X1990112Y2755852D01*
X1989835Y2756351D01*
X1989594Y2756869D01*
X1989409Y2757369D01*
X1989243Y2757868D01*
X1989113Y2758349D01*
X1989003Y2758812D01*
X1988910Y2759237D01*
X1988854Y2759626D01*
X1988799Y2759977D01*
X1988781Y2760292D01*
X1988762Y2760532D01*
X1988744Y2760717D01*
Y2760773D01*
Y2760828D01*
Y2760847D01*
Y2760865D01*
X1988762Y2761531D01*
X1988836Y2762160D01*
X1988966Y2762771D01*
X1989095Y2763344D01*
X1989280Y2763862D01*
X1989484Y2764362D01*
X1989687Y2764806D01*
X1989890Y2765213D01*
X1990112Y2765583D01*
X1990316Y2765916D01*
X1990520Y2766193D01*
X1990686Y2766415D01*
X1990834Y2766600D01*
X1990964Y2766730D01*
X1991037Y2766822D01*
X1991056Y2766841D01*
X1991500Y2767248D01*
X1991963Y2767618D01*
X1992444Y2767914D01*
X1992925Y2768191D01*
X1993406Y2768413D01*
X1993868Y2768598D01*
X1994331Y2768765D01*
X1994756Y2768876D01*
X1995163Y2768968D01*
X1995552Y2769042D01*
X1995884Y2769098D01*
X1996180Y2769135D01*
X1996402Y2769153D01*
X1996588Y2769172D01*
X1996736D01*
X1997198Y2769153D01*
X1997679Y2769098D01*
X1998123Y2769024D01*
X1998567Y2768913D01*
X1998974Y2768802D01*
X1999381Y2768672D01*
X1999751Y2768524D01*
X2000102Y2768376D01*
X2000417Y2768210D01*
X2000713Y2768080D01*
X2000954Y2767932D01*
X2001157Y2767821D01*
X2001342Y2767710D01*
X2001453Y2767636D01*
X2001545Y2767581D01*
X2001564Y2767562D01*
X2000195Y2774463D01*
X1989946D01*
Y2777460D01*
X2002693D01*
X2005171Y2764306D01*
D02*
G37*
G36*
X2019805Y2778218D02*
X2020416Y2778163D01*
X2021007Y2778089D01*
X2021581Y2777996D01*
X2022118Y2777885D01*
X2022636Y2777737D01*
X2023117Y2777608D01*
X2023561Y2777460D01*
X2023949Y2777312D01*
X2024319Y2777182D01*
X2024633Y2777053D01*
X2024892Y2776923D01*
X2025114Y2776831D01*
X2025263Y2776757D01*
X2025355Y2776701D01*
X2025392Y2776683D01*
X2025910Y2776368D01*
X2026391Y2776035D01*
X2026835Y2775684D01*
X2027261Y2775314D01*
X2027649Y2774944D01*
X2028001Y2774574D01*
X2028333Y2774185D01*
X2028611Y2773834D01*
X2028870Y2773501D01*
X2029111Y2773168D01*
X2029295Y2772890D01*
X2029462Y2772650D01*
X2029573Y2772428D01*
X2029666Y2772280D01*
X2029721Y2772187D01*
X2029739Y2772150D01*
X2029998Y2771577D01*
X2030239Y2771003D01*
X2030443Y2770411D01*
X2030609Y2769819D01*
X2030757Y2769227D01*
X2030887Y2768635D01*
X2030979Y2768080D01*
X2031072Y2767562D01*
X2031127Y2767063D01*
X2031182Y2766600D01*
X2031201Y2766193D01*
X2031238Y2765842D01*
Y2765564D01*
X2031256Y2765453D01*
Y2765361D01*
Y2765287D01*
Y2765231D01*
Y2765194D01*
Y2765176D01*
X2031238Y2764491D01*
X2031201Y2763825D01*
X2031127Y2763178D01*
X2031053Y2762567D01*
X2030942Y2761957D01*
X2030831Y2761402D01*
X2030701Y2760865D01*
X2030572Y2760366D01*
X2030461Y2759922D01*
X2030332Y2759515D01*
X2030220Y2759163D01*
X2030110Y2758867D01*
X2030035Y2758627D01*
X2029961Y2758460D01*
X2029925Y2758349D01*
X2029906Y2758331D01*
Y2758312D01*
X2029647Y2757739D01*
X2029351Y2757184D01*
X2029036Y2756684D01*
X2028722Y2756203D01*
X2028389Y2755778D01*
X2028056Y2755371D01*
X2027742Y2755019D01*
X2027427Y2754686D01*
X2027131Y2754390D01*
X2026853Y2754150D01*
X2026613Y2753928D01*
X2026391Y2753761D01*
X2026206Y2753632D01*
X2026076Y2753521D01*
X2026003Y2753465D01*
X2025966Y2753447D01*
X2025466Y2753151D01*
X2024929Y2752892D01*
X2024374Y2752670D01*
X2023820Y2752466D01*
X2023264Y2752318D01*
X2022691Y2752170D01*
X2022155Y2752059D01*
X2021618Y2751967D01*
X2021137Y2751911D01*
X2020675Y2751856D01*
X2020267Y2751819D01*
X2019916Y2751782D01*
X2019639D01*
X2019509Y2751763D01*
X2019232D01*
X2018492Y2751782D01*
X2017789Y2751856D01*
X2017122Y2751967D01*
X2016475Y2752096D01*
X2015883Y2752263D01*
X2015328Y2752448D01*
X2014810Y2752651D01*
X2014348Y2752855D01*
X2013922Y2753058D01*
X2013552Y2753262D01*
X2013219Y2753447D01*
X2012960Y2753613D01*
X2012738Y2753743D01*
X2012590Y2753854D01*
X2012497Y2753928D01*
X2012460Y2753946D01*
X2011961Y2754390D01*
X2011498Y2754853D01*
X2011073Y2755352D01*
X2010685Y2755870D01*
X2010333Y2756407D01*
X2010018Y2756925D01*
X2009741Y2757443D01*
X2009501Y2757961D01*
X2009278Y2758442D01*
X2009093Y2758886D01*
X2008946Y2759274D01*
X2008816Y2759626D01*
X2008724Y2759903D01*
X2008687Y2760033D01*
X2008668Y2760125D01*
X2008649Y2760199D01*
X2008631Y2760255D01*
X2008612Y2760292D01*
Y2760310D01*
X2011998Y2761161D01*
X2012146Y2760569D01*
X2012312Y2760033D01*
X2012497Y2759515D01*
X2012719Y2759052D01*
X2012923Y2758608D01*
X2013164Y2758201D01*
X2013386Y2757850D01*
X2013608Y2757517D01*
X2013811Y2757239D01*
X2014014Y2756980D01*
X2014199Y2756777D01*
X2014366Y2756610D01*
X2014495Y2756462D01*
X2014588Y2756370D01*
X2014662Y2756314D01*
X2014680Y2756296D01*
X2015069Y2756018D01*
X2015457Y2755759D01*
X2015864Y2755537D01*
X2016272Y2755352D01*
X2016678Y2755204D01*
X2017085Y2755075D01*
X2017474Y2754964D01*
X2017844Y2754871D01*
X2018177Y2754797D01*
X2018510Y2754760D01*
X2018787Y2754723D01*
X2019028Y2754686D01*
X2019232D01*
X2019380Y2754668D01*
X2019509D01*
X2019935Y2754686D01*
X2020360Y2754723D01*
X2020767Y2754779D01*
X2021174Y2754853D01*
X2021544Y2754945D01*
X2021914Y2755056D01*
X2022247Y2755149D01*
X2022562Y2755278D01*
X2022839Y2755389D01*
X2023098Y2755482D01*
X2023320Y2755593D01*
X2023505Y2755685D01*
X2023653Y2755759D01*
X2023764Y2755815D01*
X2023838Y2755852D01*
X2023857Y2755870D01*
X2024226Y2756111D01*
X2024560Y2756370D01*
X2024874Y2756647D01*
X2025170Y2756943D01*
X2025429Y2757239D01*
X2025669Y2757554D01*
X2025891Y2757850D01*
X2026095Y2758127D01*
X2026262Y2758405D01*
X2026409Y2758664D01*
X2026539Y2758904D01*
X2026631Y2759108D01*
X2026724Y2759274D01*
X2026780Y2759385D01*
X2026798Y2759478D01*
X2026816Y2759496D01*
X2026983Y2759959D01*
X2027131Y2760440D01*
X2027261Y2760921D01*
X2027353Y2761420D01*
X2027538Y2762364D01*
X2027593Y2762826D01*
X2027649Y2763270D01*
X2027686Y2763659D01*
X2027705Y2764029D01*
X2027723Y2764362D01*
X2027742Y2764639D01*
X2027760Y2764880D01*
Y2765046D01*
Y2765157D01*
Y2765194D01*
X2027742Y2765675D01*
X2027723Y2766138D01*
X2027630Y2767026D01*
X2027575Y2767451D01*
X2027501Y2767858D01*
X2027427Y2768247D01*
X2027353Y2768598D01*
X2027279Y2768931D01*
X2027224Y2769227D01*
X2027149Y2769486D01*
X2027094Y2769708D01*
X2027039Y2769875D01*
X2027002Y2770004D01*
X2026965Y2770097D01*
Y2770115D01*
X2026798Y2770559D01*
X2026613Y2770966D01*
X2026409Y2771355D01*
X2026188Y2771706D01*
X2025966Y2772058D01*
X2025744Y2772372D01*
X2025503Y2772650D01*
X2025281Y2772909D01*
X2025059Y2773131D01*
X2024855Y2773334D01*
X2024670Y2773501D01*
X2024504Y2773649D01*
X2024374Y2773760D01*
X2024282Y2773852D01*
X2024208Y2773889D01*
X2024189Y2773908D01*
X2023801Y2774167D01*
X2023394Y2774370D01*
X2022987Y2774574D01*
X2022580Y2774740D01*
X2022155Y2774870D01*
X2021747Y2774981D01*
X2021359Y2775073D01*
X2020970Y2775147D01*
X2020619Y2775221D01*
X2020286Y2775258D01*
X2019990Y2775295D01*
X2019731Y2775314D01*
X2019527Y2775332D01*
X2019250D01*
X2018769Y2775314D01*
X2018325Y2775277D01*
X2017899Y2775221D01*
X2017493Y2775129D01*
X2017122Y2775036D01*
X2016771Y2774925D01*
X2016457Y2774814D01*
X2016160Y2774703D01*
X2015901Y2774574D01*
X2015661Y2774463D01*
X2015457Y2774352D01*
X2015291Y2774259D01*
X2015161Y2774167D01*
X2015069Y2774111D01*
X2015014Y2774074D01*
X2014995Y2774056D01*
X2014680Y2773797D01*
X2014384Y2773519D01*
X2014126Y2773205D01*
X2013867Y2772890D01*
X2013626Y2772539D01*
X2013422Y2772206D01*
X2013219Y2771873D01*
X2013053Y2771540D01*
X2012905Y2771225D01*
X2012756Y2770929D01*
X2012646Y2770670D01*
X2012553Y2770448D01*
X2012479Y2770245D01*
X2012424Y2770115D01*
X2012405Y2770023D01*
X2012387Y2769986D01*
X2009056Y2770763D01*
X2009260Y2771410D01*
X2009519Y2772021D01*
X2009778Y2772594D01*
X2010074Y2773131D01*
X2010370Y2773612D01*
X2010666Y2774074D01*
X2010980Y2774481D01*
X2011276Y2774851D01*
X2011572Y2775184D01*
X2011832Y2775462D01*
X2012072Y2775721D01*
X2012294Y2775906D01*
X2012460Y2776072D01*
X2012609Y2776183D01*
X2012682Y2776257D01*
X2012719Y2776276D01*
X2013219Y2776627D01*
X2013737Y2776923D01*
X2014292Y2777182D01*
X2014829Y2777404D01*
X2015365Y2777608D01*
X2015901Y2777756D01*
X2016419Y2777885D01*
X2016919Y2777996D01*
X2017400Y2778070D01*
X2017825Y2778126D01*
X2018196Y2778181D01*
X2018528Y2778200D01*
X2018806Y2778218D01*
X2018917Y2778237D01*
X2019176D01*
X2019805Y2778218D01*
D02*
G37*
%LPC*%
G36*
X2852230Y4921758D02*
X2844460D01*
Y4907180D01*
X2822704D01*
X2821002Y4907106D01*
X2819448Y4906958D01*
X2818042Y4906662D01*
X2816858Y4906366D01*
X2815896Y4906070D01*
X2815230Y4905774D01*
X2814786Y4905626D01*
X2814638Y4905552D01*
X2813528Y4904886D01*
X2812492Y4904146D01*
X2811678Y4903406D01*
X2811012Y4902666D01*
X2810494Y4902000D01*
X2810124Y4901482D01*
X2809902Y4901112D01*
X2809828Y4900964D01*
X2809310Y4899780D01*
X2808866Y4898596D01*
X2808570Y4897412D01*
X2808422Y4896302D01*
X2808274Y4895340D01*
X2808200Y4894526D01*
Y4894230D01*
Y4894082D01*
Y4893934D01*
Y4893860D01*
Y4893638D01*
X2808274Y4892528D01*
X2808348Y4891418D01*
X2808792Y4889494D01*
X2809458Y4887866D01*
X2810198Y4886534D01*
X2810568Y4885942D01*
X2810938Y4885424D01*
X2811234Y4884980D01*
X2811604Y4884684D01*
X2811826Y4884388D01*
X2812048Y4884166D01*
X2812122Y4884092D01*
X2812196Y4884018D01*
X2813010Y4883426D01*
X2813898Y4882908D01*
X2815748Y4882094D01*
X2817820Y4881502D01*
X2819744Y4881132D01*
X2820706Y4880984D01*
X2821520Y4880836D01*
X2822334Y4880762D01*
X2823000D01*
X2823518Y4880688D01*
X2844460D01*
Y4907180D01*
X2852230D01*
Y4921758D01*
D02*
G37*
G36*
X2545130Y4890490D02*
X2543576Y4887718D01*
X2545130Y4886016D01*
Y4890490D01*
D02*
G37*
G36*
X1955720Y4890490D02*
X1954166Y4887718D01*
X1955720Y4886016D01*
Y4890490D01*
D02*
G37*
G36*
X2185046Y4936336D02*
X2171962Y4898744D01*
X2159738D01*
Y4883870D01*
X2166785D01*
X2171962Y4898744D01*
X2198051D01*
X2185046Y4936336D01*
D02*
G37*
G36*
X2656204Y4946030D02*
X2655316D01*
X2653392Y4945956D01*
X2651542Y4945660D01*
X2649988Y4945290D01*
X2648582Y4944846D01*
X2647472Y4944402D01*
X2647028Y4944180D01*
X2646658Y4944032D01*
X2646288Y4943884D01*
X2646066Y4943736D01*
X2645992Y4943662D01*
X2645918D01*
X2644512Y4942700D01*
X2643180Y4941664D01*
X2642144Y4940554D01*
X2641256Y4939444D01*
X2640516Y4938482D01*
X2640072Y4937742D01*
X2639850Y4937446D01*
X2639702Y4937224D01*
X2639628Y4937076D01*
Y4937002D01*
X2638888Y4935374D01*
X2638370Y4933672D01*
X2637926Y4931970D01*
X2637704Y4930416D01*
X2637556Y4929084D01*
X2637482Y4928492D01*
X2637408Y4928048D01*
Y4927604D01*
Y4927308D01*
Y4927160D01*
Y4927086D01*
Y4899336D01*
X2637482Y4897264D01*
X2637778Y4895414D01*
X2638074Y4893712D01*
X2638518Y4892306D01*
X2638740Y4891640D01*
X2638888Y4891048D01*
X2639110Y4890604D01*
X2639258Y4890160D01*
X2639406Y4889864D01*
X2639554Y4889642D01*
X2639628Y4889494D01*
Y4889420D01*
X2640516Y4887940D01*
X2641552Y4886608D01*
X2642588Y4885424D01*
X2643624Y4884462D01*
X2644512Y4883722D01*
X2645252Y4883204D01*
X2645548Y4882982D01*
X2645770Y4882908D01*
X2645844Y4882760D01*
X2645918D01*
X2647472Y4882020D01*
X2649100Y4881428D01*
X2650654Y4881058D01*
X2652134Y4880762D01*
X2653392Y4880614D01*
X2653910Y4880540D01*
X2654428D01*
X2654798Y4880466D01*
X2655316D01*
X2657240Y4880540D01*
X2659016Y4880836D01*
X2660644Y4881206D01*
X2661976Y4881650D01*
X2663160Y4882020D01*
X2663604Y4882242D01*
X2663974Y4882390D01*
X2664270Y4882538D01*
X2664492Y4882686D01*
X2664640Y4882760D01*
X2664714D01*
X2666120Y4883722D01*
X2667378Y4884832D01*
X2668414Y4885942D01*
X2669302Y4886978D01*
X2670042Y4887940D01*
X2670486Y4888680D01*
X2670708Y4888976D01*
X2670856Y4889198D01*
X2670930Y4889346D01*
Y4889420D01*
X2671670Y4891048D01*
X2672188Y4892750D01*
X2672558Y4894452D01*
X2672780Y4896006D01*
X2672928Y4897338D01*
X2673002Y4897930D01*
X2673076Y4898374D01*
Y4898818D01*
Y4899114D01*
Y4899262D01*
Y4899336D01*
Y4927086D01*
X2673002Y4929158D01*
X2672706Y4931008D01*
X2672410Y4932710D01*
X2671966Y4934190D01*
X2671818Y4934782D01*
X2671596Y4935374D01*
X2671448Y4935818D01*
X2671226Y4936262D01*
X2671152Y4936558D01*
X2671004Y4936780D01*
X2670930Y4936928D01*
Y4937002D01*
X2670042Y4938556D01*
X2669006Y4939888D01*
X2667970Y4940998D01*
X2667008Y4941960D01*
X2666120Y4942700D01*
X2665380Y4943218D01*
X2665084Y4943440D01*
X2664862Y4943588D01*
X2664788Y4943662D01*
X2664714D01*
X2663160Y4944476D01*
X2661532Y4945068D01*
X2659978Y4945438D01*
X2658498Y4945734D01*
X2657240Y4945882D01*
X2656648Y4945956D01*
X2656204Y4946030D01*
D02*
G37*
G36*
X2394614Y4946030D02*
X2393726D01*
X2391802Y4945956D01*
X2389952Y4945660D01*
X2388398Y4945290D01*
X2386992Y4944846D01*
X2385882Y4944402D01*
X2385438Y4944180D01*
X2385068Y4944032D01*
X2384698Y4943884D01*
X2384476Y4943736D01*
X2384402Y4943662D01*
X2384328D01*
X2382922Y4942700D01*
X2381590Y4941664D01*
X2380554Y4940554D01*
X2379666Y4939444D01*
X2378926Y4938482D01*
X2378482Y4937742D01*
X2378260Y4937446D01*
X2378112Y4937224D01*
X2378038Y4937076D01*
Y4937002D01*
X2377298Y4935374D01*
X2376780Y4933672D01*
X2376336Y4931970D01*
X2376114Y4930416D01*
X2375966Y4929084D01*
X2375892Y4928492D01*
X2375818Y4928048D01*
Y4927604D01*
Y4927308D01*
Y4927160D01*
Y4927086D01*
Y4899336D01*
X2375892Y4897264D01*
X2376188Y4895414D01*
X2376484Y4893712D01*
X2376928Y4892306D01*
X2377150Y4891640D01*
X2377298Y4891048D01*
X2377520Y4890604D01*
X2377668Y4890160D01*
X2377816Y4889864D01*
X2377964Y4889642D01*
X2378038Y4889494D01*
Y4889420D01*
X2378926Y4887940D01*
X2379962Y4886608D01*
X2380998Y4885424D01*
X2382034Y4884462D01*
X2382922Y4883722D01*
X2383662Y4883204D01*
X2383958Y4882982D01*
X2384180Y4882908D01*
X2384254Y4882760D01*
X2384328D01*
X2385882Y4882020D01*
X2387510Y4881428D01*
X2389064Y4881058D01*
X2390544Y4880762D01*
X2391802Y4880614D01*
X2392320Y4880540D01*
X2392838D01*
X2393208Y4880466D01*
X2393726D01*
X2395650Y4880540D01*
X2397426Y4880836D01*
X2399054Y4881206D01*
X2400386Y4881650D01*
X2401570Y4882020D01*
X2402014Y4882242D01*
X2402384Y4882390D01*
X2402680Y4882538D01*
X2402902Y4882686D01*
X2403050Y4882760D01*
X2403124D01*
X2404530Y4883722D01*
X2405788Y4884832D01*
X2406824Y4885942D01*
X2407712Y4886978D01*
X2408452Y4887940D01*
X2408896Y4888680D01*
X2409118Y4888976D01*
X2409266Y4889198D01*
X2409340Y4889346D01*
Y4889420D01*
X2410080Y4891048D01*
X2410598Y4892750D01*
X2410968Y4894452D01*
X2411190Y4896006D01*
X2411338Y4897338D01*
X2411412Y4897930D01*
X2411486Y4898374D01*
Y4898818D01*
Y4899114D01*
Y4899262D01*
Y4899336D01*
Y4927086D01*
X2411412Y4929158D01*
X2411116Y4931008D01*
X2410820Y4932710D01*
X2410376Y4934190D01*
X2410228Y4934782D01*
X2410006Y4935374D01*
X2409858Y4935818D01*
X2409636Y4936262D01*
X2409562Y4936558D01*
X2409414Y4936780D01*
X2409340Y4936928D01*
Y4937002D01*
X2408452Y4938556D01*
X2407416Y4939888D01*
X2406380Y4940998D01*
X2405418Y4941960D01*
X2404530Y4942700D01*
X2403790Y4943218D01*
X2403494Y4943440D01*
X2403272Y4943588D01*
X2403198Y4943662D01*
X2403124D01*
X2401570Y4944476D01*
X2399942Y4945068D01*
X2398388Y4945438D01*
X2396908Y4945734D01*
X2395650Y4945882D01*
X2395058Y4945956D01*
X2394614Y4946030D01*
D02*
G37*
G36*
X1789648Y3857767D02*
X1789334Y3857741D01*
X1789046Y3857688D01*
X1788745Y3857623D01*
X1788483Y3857544D01*
X1788235Y3857427D01*
X1787999Y3857322D01*
X1787790Y3857217D01*
X1787594Y3857100D01*
X1787424Y3856982D01*
X1787280Y3856890D01*
X1787149Y3856786D01*
X1787044Y3856707D01*
X1786979Y3856642D01*
X1786940Y3856603D01*
X1786927Y3856590D01*
X1786626Y3856236D01*
X1786377Y3855883D01*
X1786181Y3855530D01*
X1786024Y3855216D01*
X1785919Y3854928D01*
X1785867Y3854797D01*
X1785841Y3854693D01*
X1785828Y3854601D01*
X1785802Y3854549D01*
Y3854496D01*
X1785789Y3854483D01*
X1785723Y3854026D01*
Y3853581D01*
X1785775Y3853162D01*
X1785854Y3852770D01*
X1785946Y3852443D01*
X1785985Y3852325D01*
X1786024Y3852207D01*
X1786063Y3852116D01*
X1786089Y3852037D01*
X1786102Y3851998D01*
X1786116Y3851985D01*
X1786246Y3851749D01*
X1786377Y3851514D01*
X1786717Y3851017D01*
X1787084Y3850520D01*
X1787450Y3850075D01*
X1787633Y3849866D01*
X1787790Y3849682D01*
X1787960Y3849512D01*
X1788078Y3849369D01*
X1793494Y3843953D01*
X1799472Y3849931D01*
X1793755Y3855648D01*
X1793376Y3856001D01*
X1793009Y3856315D01*
X1792656Y3856590D01*
X1792316Y3856825D01*
X1791989Y3857021D01*
X1791675Y3857204D01*
X1791374Y3857348D01*
X1791113Y3857453D01*
X1790864Y3857544D01*
X1790642Y3857610D01*
X1790446Y3857675D01*
X1790275Y3857715D01*
X1790158Y3857728D01*
X1790053Y3857754D01*
X1790001D01*
X1789975D01*
X1789648Y3857767D01*
D02*
G37*
G36*
X2502309Y3210277D02*
X2502216D01*
X2501847Y3210258D01*
X2501495Y3210203D01*
X2501144Y3210129D01*
X2500829Y3210036D01*
X2500515Y3209907D01*
X2500237Y3209777D01*
X2499978Y3209629D01*
X2499738Y3209481D01*
X2499515Y3209333D01*
X2499312Y3209185D01*
X2499146Y3209056D01*
X2499016Y3208926D01*
X2498905Y3208834D01*
X2498831Y3208760D01*
X2498776Y3208704D01*
X2498757Y3208686D01*
X2498498Y3208371D01*
X2498276Y3208038D01*
X2498091Y3207705D01*
X2497925Y3207354D01*
X2497776Y3206984D01*
X2497666Y3206632D01*
X2497573Y3206281D01*
X2497499Y3205948D01*
X2497443Y3205633D01*
X2497388Y3205337D01*
X2497351Y3205078D01*
X2497332Y3204838D01*
X2497314Y3204653D01*
Y3204505D01*
Y3204431D01*
Y3204394D01*
X2497332Y3203894D01*
X2497369Y3203432D01*
X2497443Y3203006D01*
X2497536Y3202599D01*
X2497647Y3202211D01*
X2497758Y3201859D01*
X2497887Y3201545D01*
X2498017Y3201267D01*
X2498146Y3201008D01*
X2498276Y3200786D01*
X2498387Y3200601D01*
X2498498Y3200435D01*
X2498590Y3200324D01*
X2498664Y3200231D01*
X2498702Y3200176D01*
X2498720Y3200157D01*
X2498997Y3199898D01*
X2499275Y3199658D01*
X2499571Y3199454D01*
X2499867Y3199288D01*
X2500182Y3199140D01*
X2500477Y3199010D01*
X2500755Y3198918D01*
X2501032Y3198825D01*
X2501310Y3198770D01*
X2501550Y3198714D01*
X2501754Y3198696D01*
X2501939Y3198659D01*
X2502106D01*
X2502216Y3198640D01*
X2502309D01*
X2502716Y3198659D01*
X2503086Y3198714D01*
X2503456Y3198788D01*
X2503807Y3198881D01*
X2504122Y3198992D01*
X2504418Y3199121D01*
X2504695Y3199251D01*
X2504954Y3199399D01*
X2505177Y3199547D01*
X2505380Y3199676D01*
X2505546Y3199806D01*
X2505695Y3199917D01*
X2505805Y3200009D01*
X2505880Y3200102D01*
X2505935Y3200139D01*
X2505954Y3200157D01*
X2506213Y3200453D01*
X2506434Y3200768D01*
X2506638Y3201101D01*
X2506805Y3201434D01*
X2506934Y3201767D01*
X2507064Y3202100D01*
X2507156Y3202414D01*
X2507230Y3202729D01*
X2507285Y3203006D01*
X2507341Y3203284D01*
X2507378Y3203524D01*
X2507396Y3203728D01*
Y3203894D01*
X2507415Y3204024D01*
Y3204116D01*
Y3204135D01*
X2507396Y3204634D01*
X2507341Y3205115D01*
X2507267Y3205559D01*
X2507175Y3205966D01*
X2507064Y3206373D01*
X2506934Y3206725D01*
X2506786Y3207058D01*
X2506638Y3207372D01*
X2506508Y3207631D01*
X2506360Y3207872D01*
X2506231Y3208075D01*
X2506120Y3208242D01*
X2506028Y3208390D01*
X2505954Y3208482D01*
X2505898Y3208538D01*
X2505880Y3208556D01*
X2505584Y3208852D01*
X2505269Y3209130D01*
X2504973Y3209352D01*
X2504659Y3209555D01*
X2504344Y3209722D01*
X2504030Y3209851D01*
X2503752Y3209962D01*
X2503456Y3210055D01*
X2503197Y3210129D01*
X2502956Y3210184D01*
X2502753Y3210221D01*
X2502568Y3210258D01*
X2502420D01*
X2502309Y3210277D01*
D02*
G37*
G36*
X1765350Y4197536D02*
X1765049Y4197523D01*
X1764748Y4197483D01*
X1764460Y4197431D01*
X1764185Y4197366D01*
X1763924Y4197261D01*
X1763688Y4197156D01*
X1763270Y4196947D01*
X1763073Y4196829D01*
X1762916Y4196725D01*
X1762786Y4196620D01*
X1762668Y4196529D01*
X1762563Y4196450D01*
X1762498Y4196385D01*
X1762459Y4196345D01*
X1762446Y4196332D01*
X1762249Y4196110D01*
X1762066Y4195874D01*
X1761909Y4195639D01*
X1761778Y4195404D01*
X1761569Y4194932D01*
X1761504Y4194710D01*
X1761425Y4194501D01*
X1761386Y4194305D01*
X1761347Y4194108D01*
X1761321Y4193951D01*
X1761307Y4193807D01*
X1761294Y4193690D01*
Y4193611D01*
Y4193559D01*
Y4193533D01*
X1761307Y4193232D01*
X1761360Y4192944D01*
X1761425Y4192669D01*
X1761504Y4192408D01*
X1761608Y4192146D01*
X1761713Y4191911D01*
X1761948Y4191492D01*
X1762066Y4191296D01*
X1762184Y4191126D01*
X1762289Y4190995D01*
X1762393Y4190864D01*
X1762472Y4190760D01*
X1762589Y4190642D01*
X1762838Y4190419D01*
X1763100Y4190210D01*
X1763361Y4190027D01*
X1763610Y4189883D01*
X1763858Y4189739D01*
X1764107Y4189648D01*
X1764342Y4189543D01*
X1764565Y4189477D01*
X1764774Y4189425D01*
X1764957Y4189373D01*
X1765127Y4189360D01*
X1765271Y4189321D01*
X1765376D01*
X1765467Y4189307D01*
X1765520D01*
X1765546D01*
X1765847Y4189321D01*
X1766134Y4189373D01*
X1766422Y4189425D01*
X1766684Y4189504D01*
X1766946Y4189608D01*
X1767181Y4189713D01*
X1767600Y4189949D01*
X1767796Y4190066D01*
X1767966Y4190184D01*
X1768097Y4190289D01*
X1768227Y4190393D01*
X1768332Y4190472D01*
X1768398Y4190537D01*
X1768437Y4190576D01*
X1768450Y4190590D01*
X1768646Y4190812D01*
X1768816Y4191034D01*
X1768973Y4191270D01*
X1769091Y4191492D01*
X1769300Y4191963D01*
X1769366Y4192185D01*
X1769418Y4192395D01*
X1769483Y4192591D01*
X1769509Y4192774D01*
X1769536Y4192931D01*
X1769549Y4193075D01*
X1769562Y4193193D01*
Y4193271D01*
Y4193324D01*
Y4193350D01*
X1769549Y4193650D01*
X1769509Y4193951D01*
X1769431Y4194239D01*
X1769352Y4194501D01*
X1769261Y4194775D01*
X1769156Y4195011D01*
X1768908Y4195443D01*
X1768803Y4195626D01*
X1768685Y4195796D01*
X1768568Y4195940D01*
X1768476Y4196057D01*
X1768398Y4196162D01*
X1768280Y4196280D01*
X1768031Y4196502D01*
X1767796Y4196685D01*
X1767547Y4196855D01*
X1767286Y4197012D01*
X1767037Y4197130D01*
X1766802Y4197235D01*
X1766566Y4197313D01*
X1766344Y4197379D01*
X1766134Y4197431D01*
X1765938Y4197470D01*
X1765781Y4197497D01*
X1765624Y4197523D01*
X1765520D01*
X1765428Y4197536D01*
X1765376D01*
X1765350D01*
D02*
G37*
G36*
X1757121Y4190354D02*
X1756742Y4190341D01*
X1756350Y4190289D01*
X1755996Y4190223D01*
X1755656Y4190118D01*
X1755329Y4190001D01*
X1755015Y4189870D01*
X1754741Y4189726D01*
X1754466Y4189582D01*
X1754230Y4189425D01*
X1754021Y4189294D01*
X1753838Y4189164D01*
X1753681Y4189033D01*
X1753576Y4188928D01*
X1753472Y4188850D01*
X1753419Y4188797D01*
X1753406Y4188784D01*
X1753131Y4188483D01*
X1752883Y4188182D01*
X1752674Y4187868D01*
X1752491Y4187555D01*
X1752333Y4187241D01*
X1752216Y4186940D01*
X1752111Y4186652D01*
X1752020Y4186377D01*
X1751967Y4186116D01*
X1751915Y4185880D01*
X1751889Y4185671D01*
X1751863Y4185488D01*
X1751850Y4185344D01*
Y4185239D01*
X1751836Y4185174D01*
Y4185148D01*
X1751850Y4184768D01*
X1751902Y4184402D01*
X1751993Y4184049D01*
X1752098Y4183709D01*
X1752216Y4183382D01*
X1752347Y4183094D01*
X1752504Y4182806D01*
X1752648Y4182557D01*
X1752804Y4182322D01*
X1752935Y4182113D01*
X1753066Y4181930D01*
X1753197Y4181773D01*
X1753302Y4181668D01*
X1753380Y4181563D01*
X1753445Y4181498D01*
X1753851Y4181145D01*
X1754256Y4180844D01*
X1754649Y4180608D01*
X1755028Y4180412D01*
X1755198Y4180320D01*
X1755342Y4180255D01*
X1755486Y4180190D01*
X1755604Y4180150D01*
X1755708Y4180124D01*
X1755774Y4180085D01*
X1755826D01*
X1755839Y4180072D01*
X1756350Y4179954D01*
X1756847Y4179902D01*
X1757304Y4179915D01*
X1757697Y4179941D01*
X1758063Y4179993D01*
X1758194Y4180020D01*
X1758325Y4180046D01*
X1758416Y4180085D01*
X1758482Y4180098D01*
X1758534D01*
X1758547Y4180111D01*
X1759031Y4180307D01*
X1759476Y4180517D01*
X1759855Y4180739D01*
X1760196Y4180975D01*
X1760326Y4181079D01*
X1760457Y4181184D01*
X1760562Y4181262D01*
X1760653Y4181354D01*
X1760732Y4181406D01*
X1760784Y4181459D01*
X1760810Y4181485D01*
X1760823Y4181498D01*
X1761098Y4181799D01*
X1761347Y4182100D01*
X1761543Y4182400D01*
X1761726Y4182714D01*
X1761883Y4183028D01*
X1762001Y4183329D01*
X1762105Y4183617D01*
X1762197Y4183892D01*
X1762262Y4184140D01*
X1762315Y4184376D01*
X1762341Y4184585D01*
X1762367Y4184768D01*
X1762380Y4184912D01*
Y4185017D01*
X1762393Y4185082D01*
Y4185108D01*
X1762380Y4185488D01*
X1762328Y4185854D01*
X1762262Y4186207D01*
X1762158Y4186547D01*
X1762040Y4186874D01*
X1761922Y4187175D01*
X1761778Y4187450D01*
X1761634Y4187699D01*
X1761477Y4187934D01*
X1761347Y4188143D01*
X1761216Y4188326D01*
X1761098Y4188470D01*
X1761006Y4188588D01*
X1760850Y4188745D01*
X1760536Y4189033D01*
X1760235Y4189281D01*
X1759908Y4189504D01*
X1759581Y4189674D01*
X1759267Y4189831D01*
X1758953Y4189962D01*
X1758665Y4190066D01*
X1758390Y4190158D01*
X1758116Y4190223D01*
X1757880Y4190275D01*
X1757671Y4190302D01*
X1757488Y4190328D01*
X1757331Y4190354D01*
X1757226D01*
X1757148D01*
X1757121D01*
D02*
G37*
G36*
X2497152Y3051027D02*
X2497059D01*
X2496671Y3051008D01*
X2496282Y3050953D01*
X2495931Y3050879D01*
X2495598Y3050786D01*
X2495283Y3050675D01*
X2494987Y3050546D01*
X2494728Y3050398D01*
X2494469Y3050268D01*
X2494266Y3050120D01*
X2494062Y3049972D01*
X2493896Y3049843D01*
X2493766Y3049732D01*
X2493655Y3049639D01*
X2493563Y3049565D01*
X2493526Y3049510D01*
X2493507Y3049491D01*
X2493248Y3049195D01*
X2493045Y3048862D01*
X2492841Y3048529D01*
X2492675Y3048196D01*
X2492545Y3047845D01*
X2492434Y3047493D01*
X2492342Y3047160D01*
X2492268Y3046827D01*
X2492194Y3046513D01*
X2492157Y3046235D01*
X2492120Y3045976D01*
X2492101Y3045754D01*
X2492083Y3045569D01*
Y3045421D01*
Y3045347D01*
Y3045310D01*
X2492101Y3044811D01*
X2492138Y3044330D01*
X2492212Y3043886D01*
X2492305Y3043460D01*
X2492416Y3043072D01*
X2492545Y3042720D01*
X2492675Y3042387D01*
X2492804Y3042091D01*
X2492934Y3041832D01*
X2493063Y3041592D01*
X2493193Y3041407D01*
X2493304Y3041240D01*
X2493396Y3041111D01*
X2493470Y3041018D01*
X2493507Y3040963D01*
X2493526Y3040944D01*
X2493803Y3040667D01*
X2494081Y3040426D01*
X2494377Y3040204D01*
X2494654Y3040019D01*
X2494950Y3039871D01*
X2495228Y3039742D01*
X2495505Y3039631D01*
X2495764Y3039557D01*
X2496023Y3039483D01*
X2496245Y3039446D01*
X2496449Y3039409D01*
X2496615Y3039372D01*
X2496745D01*
X2496856Y3039353D01*
X2496948D01*
X2497448Y3039390D01*
X2497929Y3039464D01*
X2498373Y3039594D01*
X2498761Y3039742D01*
X2498946Y3039797D01*
X2499094Y3039871D01*
X2499224Y3039945D01*
X2499335Y3040001D01*
X2499427Y3040038D01*
X2499501Y3040075D01*
X2499538Y3040112D01*
X2499557D01*
X2499982Y3040426D01*
X2500371Y3040796D01*
X2500704Y3041166D01*
X2500963Y3041536D01*
X2501185Y3041869D01*
X2501259Y3041999D01*
X2501333Y3042128D01*
X2501388Y3042221D01*
X2501425Y3042313D01*
X2501462Y3042350D01*
Y3042369D01*
X2501684Y3042942D01*
X2501851Y3043497D01*
X2501980Y3044015D01*
X2502054Y3044496D01*
X2502091Y3044700D01*
X2502110Y3044903D01*
X2502128Y3045070D01*
Y3045218D01*
X2502147Y3045329D01*
Y3045421D01*
Y3045477D01*
Y3045495D01*
X2502128Y3045939D01*
X2502091Y3046365D01*
X2502017Y3046772D01*
X2501906Y3047160D01*
X2501795Y3047512D01*
X2501684Y3047845D01*
X2501536Y3048141D01*
X2501407Y3048418D01*
X2501277Y3048659D01*
X2501129Y3048881D01*
X2501018Y3049066D01*
X2500889Y3049214D01*
X2500796Y3049325D01*
X2500722Y3049417D01*
X2500685Y3049473D01*
X2500667Y3049491D01*
X2500389Y3049769D01*
X2500093Y3049991D01*
X2499779Y3050213D01*
X2499483Y3050379D01*
X2499168Y3050527D01*
X2498872Y3050657D01*
X2498576Y3050749D01*
X2498299Y3050842D01*
X2498040Y3050897D01*
X2497818Y3050953D01*
X2497596Y3050971D01*
X2497411Y3051008D01*
X2497263D01*
X2497152Y3051027D01*
D02*
G37*
%LPD*%
D59*
X1821227Y3931608D02*
X1849066Y3959447D01*
X1861593Y3891242D02*
X1889432Y3919081D01*
X1796136Y3980116D02*
X1815623Y3999603D01*
X1754377Y4021874D02*
X1773864Y4041362D01*
%TF.MD5,38a628d8acddf0b4ef803c0c1e18d219*%
M02*
